mtllib boeing_CRAFT_pieceattack.mtl

o polymsh1
g polymsh1

#begin 252 vertices
v -19.114800 -1.296950 -97.399000
v -7.893120 -15.495700 -86.999200
v 7.893120 -15.495700 -86.999200
v 19.114800 -1.296950 -97.399000
v 19.216400 -9.465580 167.237000
v 9.635920 -20.013100 160.371000
v -9.635920 -20.013100 160.371000
v -19.216400 -9.465580 167.237000
v -20.809300 11.000000 -85.300000
v -7.174430 23.136900 22.669300
v 7.174430 23.136900 22.669300
v 20.809300 11.000000 -85.300000
v 9.402810 24.990900 177.020000
v 20.060500 6.778660 172.165000
v -9.402810 24.990900 177.020000
v -20.060500 6.778660 172.165000
v -4.345000 21.207500 -224.370000
v -1.795000 18.657500 -224.370000
v 1.795000 18.657500 -224.370000
v 4.345000 21.207500 -224.370000
v -4.345000 24.792500 -224.370000
v -1.795000 27.342500 -224.370000
v 1.795000 27.342500 -224.370000
v 4.345000 24.792500 -224.370000
v 0.000000 -0.500000 219.870000
v 18.500000 -12.500000 88.000000
v 14.322200 -12.500000 -8.500000
v 90.200000 -8.200000 -29.800000
v 194.548000 -2.099400 -90.629500
v 196.328000 -1.736900 -65.884100
v -18.500000 -12.500000 88.000000
v -14.322200 -12.500000 -8.500000
v -90.200000 -8.200000 -29.800000
v -194.548000 -2.099400 -90.629500
v -196.328000 -1.736900 -65.884100
v 9.702610 17.197200 -165.139000
v 67.962100 25.090100 -215.477000
v 67.350800 25.412500 -229.709000
v 5.129330 18.643200 -209.945000
v 11.787800 -20.330700 107.592000
v 21.315600 -14.283800 109.812000
v -21.315600 -14.283800 109.812000
v -11.787800 -20.330700 107.592000
v 22.311500 7.128600 113.067000
v 9.723680 26.667400 115.463000
v -9.723680 26.667400 115.463000
v -22.311500 7.128600 113.067000
v -197.617000 -5.158400 -64.822400
v -18.500000 -16.000000 89.500000
v 18.500000 -16.000000 89.500000
v 197.617000 -5.158400 -64.822400
v -14.322200 -14.000000 -11.500000
v -90.200000 -9.700000 -32.800000
v -197.971000 -3.399300 -95.624800
v 14.322200 -14.000000 -11.500000
v 90.200000 -9.700000 -32.800000
v 197.971000 -3.399300 -95.624800
v -2.400000 26.200000 -210.200000
v 2.400000 26.200000 -210.200000
v 0.000000 91.000000 -207.600000
v 0.000000 28.700000 -134.800000
v 0.000000 24.500000 -120.000000
v 0.000000 93.400000 -232.800000
v 0.000000 22.000000 -215.970000
v 68.645900 24.380100 -231.155000
v 4.306600 17.552000 -213.318000
v 69.239700 24.043600 -215.837000
v 9.945130 15.920500 -162.763000
v -9.702610 17.197200 -165.139000
v -67.962100 25.090100 -215.477000
v -67.350800 25.412500 -229.709000
v -5.129330 18.643200 -209.945000
v -68.645900 24.380100 -231.155000
v -4.306600 17.552000 -213.318000
v -69.239700 24.043600 -215.837000
v -9.945130 15.920500 -162.763000
v 6.745060 1.726960 212.240000
v 3.092450 7.359200 212.317000
v -3.092450 7.359200 212.317000
v -6.745060 1.726960 212.240000
v -6.461220 -3.296660 212.161000
v -2.899740 -6.620400 212.052000
v 2.899740 -6.620400 212.052000
v 6.461220 -3.296660 212.161000
v 90.616000 -29.000000 46.676800
v 97.558000 -40.889500 46.482100
v 111.442000 -40.889500 46.482100
v 118.384000 -29.000000 46.676800
v 111.442000 -17.110500 46.871600
v 97.558000 -17.110500 46.871600
v 92.490300 -29.000000 53.032800
v 98.495200 -39.133900 53.032800
v 110.505000 -39.133900 53.032800
v 116.510000 -29.000000 53.032800
v 110.505000 -18.865900 53.032800
v 98.495200 -18.865900 53.032800
v 110.322000 -39.182100 24.180200
v 116.145000 -29.356000 24.180200
v 110.322000 -19.529900 24.180200
v 98.677600 -19.529900 24.180200
v 92.855100 -29.356000 24.180200
v 98.677600 -39.182100 24.180200
v 95.283500 -29.356000 23.156500
v 99.891800 -37.133200 23.156500
v 109.108000 -37.133200 23.156500
v 113.716000 -29.356000 23.156500
v 109.108000 -21.578800 23.156500
v 99.891800 -21.578800 23.156500
v 108.302000 -35.715600 0.512430
v 112.103000 -29.300000 0.512430
v 108.302000 -22.884400 0.512430
v 100.698000 -22.884400 0.512430
v 96.897100 -29.300000 0.512430
v 100.698000 -35.715600 0.512430
v 104.500000 -29.356000 18.410700
v 107.621000 -34.751100 0.512430
v 110.743000 -29.483200 0.512430
v 107.621000 -24.215300 0.512430
v 101.379000 -24.215300 0.512430
v 98.257200 -29.483200 0.512430
v 101.379000 -34.751100 0.512430
v 109.338000 -29.318800 -10.590300
v 106.919000 -25.236200 -10.590300
v 102.081000 -25.236200 -10.590300
v 99.661800 -29.318800 -10.590300
v 102.081000 -33.401400 -10.590300
v 106.919000 -33.401400 -10.590300
v 104.500000 -29.190000 -19.641100
v -90.616000 -29.000000 46.676800
v -97.558000 -40.889500 46.482100
v -111.442000 -40.889500 46.482100
v -118.384000 -29.000000 46.676800
v -111.442000 -17.110500 46.871600
v -97.558000 -17.110500 46.871600
v -92.490300 -29.000000 53.032800
v -98.495200 -39.133900 53.032800
v -110.505000 -39.133900 53.032800
v -116.510000 -29.000000 53.032800
v -110.505000 -18.865900 53.032800
v -98.495200 -18.865900 53.032800
v -110.322000 -39.182100 24.180200
v -116.145000 -29.356000 24.180200
v -110.322000 -19.529900 24.180200
v -98.677600 -19.529900 24.180200
v -92.855100 -29.356000 24.180200
v -98.677600 -39.182100 24.180200
v -95.283500 -29.356000 23.156500
v -99.891800 -37.133200 23.156500
v -109.108000 -37.133200 23.156500
v -113.716000 -29.356000 23.156500
v -109.108000 -21.578800 23.156500
v -99.891800 -21.578800 23.156500
v -108.302000 -35.715600 0.512430
v -112.103000 -29.300000 0.512430
v -108.302000 -22.884400 0.512430
v -100.698000 -22.884400 0.512430
v -96.897100 -29.300000 0.512430
v -100.698000 -35.715600 0.512430
v -104.500000 -29.356000 18.410700
v -107.621000 -34.751100 0.512430
v -110.743000 -29.483200 0.512430
v -107.621000 -24.215300 0.512430
v -101.379000 -24.215300 0.512430
v -98.257200 -29.483200 0.512430
v -101.379000 -34.751100 0.512430
v -109.338000 -29.318800 -10.590300
v -106.919000 -25.236200 -10.590300
v -102.081000 -25.236200 -10.590300
v -99.661800 -29.318800 -10.590300
v -102.081000 -33.401400 -10.590300
v -106.919000 -33.401400 -10.590300
v -104.500000 -29.190000 -19.641100
v 92.490300 -29.000000 50.432800
v 98.495200 -39.133900 50.432800
v 110.505000 -39.133900 50.432800
v 116.510000 -29.000000 50.432800
v 110.505000 -18.865900 50.432800
v 98.495200 -18.865900 50.432800
v 104.500000 -29.000000 45.517500
v -92.490300 -29.000000 50.432800
v -98.495200 -39.133900 50.432800
v -110.505000 -39.133900 50.432800
v -116.510000 -29.000000 50.432800
v -110.505000 -18.865900 50.432800
v -98.495200 -18.865900 50.432800
v -104.500000 -29.000000 45.517500
v 104.500000 -21.422500 8.117670
v -105.813000 -11.026700 -6.991460
v -103.384000 -11.013500 -6.481210
v -102.199000 -20.715400 23.616100
v -104.500000 -21.422500 8.117670
v -104.505000 -12.109500 -22.294800
v -103.706000 -10.600000 14.300000
v -106.201000 -20.715400 23.616100
v -104.208000 -17.173200 37.294800
v 103.384000 -11.013500 -6.481210
v 102.199000 -20.715400 23.616100
v 104.208000 -17.173200 37.294800
v 106.201000 -20.715400 23.616100
v 103.706000 -10.600000 14.300000
v 105.813000 -11.026700 -6.991460
v 104.505000 -12.109500 -22.294800
v 43.733200 -12.356900 -17.725400
v 45.062300 -15.564200 8.174820
v 45.537900 -13.871200 14.908500
v 45.173700 -14.069100 -24.476400
v 45.534000 -15.942000 -22.356400
v 47.334300 -12.356900 -17.725400
v 61.454900 -10.564800 -12.629500
v 62.588700 -14.337200 2.714980
v 63.022500 -12.921500 14.329300
v 63.060900 -12.646800 -27.015000
v 63.060900 -13.731500 -23.609000
v 64.665900 -10.564800 -12.629500
v 127.176000 -8.148910 -27.630500
v 126.302000 -7.482900 -48.866200
v 127.907000 -8.054840 -60.159500
v 127.907000 -9.798700 -60.254100
v 127.907000 -11.477000 -51.607400
v 129.513000 -7.482900 -48.866200
v 102.986000 -8.715690 -35.252900
v 104.591000 -9.287630 -46.546200
v 104.591000 -11.031500 -46.640900
v 104.591000 -12.709800 -37.994100
v 103.860000 -9.381700 -14.017300
v 106.197000 -8.715690 -35.252900
v -43.733200 -12.356900 -17.725400
v -45.062300 -15.564200 8.174820
v -45.537900 -13.871200 14.908500
v -45.173700 -14.069100 -24.476400
v -45.534000 -15.942000 -22.356400
v -47.334300 -12.356900 -17.725400
v -61.454900 -10.564800 -12.629500
v -62.588700 -14.337200 2.714980
v -63.022500 -12.921500 14.329300
v -63.060900 -12.646800 -27.015000
v -63.060900 -13.731500 -23.609000
v -64.665900 -10.564800 -12.629500
v -127.176000 -8.148910 -27.630500
v -126.302000 -7.482900 -48.866200
v -127.907000 -8.054840 -60.159500
v -127.907000 -9.798700 -60.254100
v -127.907000 -11.477000 -51.607400
v -129.513000 -7.482900 -48.866200
v -102.986000 -8.715690 -35.252900
v -104.591000 -9.287630 -46.546200
v -104.591000 -11.031500 -46.640900
v -104.591000 -12.709800 -37.994100
v -103.860000 -9.381700 -14.017300
v -106.197000 -8.715690 -35.252900
v -105.194000 -10.550000 14.550000
v 105.194000 -10.550000 14.550000
#end 252 vertices

#begin 993 normals
vn -0.142055 0.963699 -0.226065
vn 0.441328 0.876104 0.194092
vn 0.171878 0.961449 -0.214649
vn -0.142055 0.963699 -0.226065
vn -0.118078 0.967085 -0.225399
vn 0.326489 0.838605 0.436058
vn 0.441328 0.876104 0.194092
vn -0.142055 0.963699 -0.226065
vn 0.326489 0.838605 0.436058
vn -0.441328 0.876104 0.194092
vn 0.142055 0.963699 -0.226065
vn -0.171878 0.961449 -0.214649
vn 0.142055 0.963699 -0.226065
vn -0.441328 0.876104 0.194092
vn -0.326489 0.838605 0.436058
vn 0.118078 0.967085 -0.225399
vn 0.142055 0.963699 -0.226065
vn -0.326489 0.838605 0.436058
vn 0.000000 -0.318765 -0.947834
vn 0.000000 -0.318765 -0.947834
vn 0.000000 -0.318765 -0.947834
vn -0.819615 0.346040 -0.456603
vn -0.346934 0.843612 -0.409824
vn 0.000000 0.046847 -0.998902
vn -0.346934 0.843612 -0.409824
vn 0.346934 0.843612 -0.409824
vn 0.000000 0.046847 -0.998902
vn 0.346934 0.843612 -0.409824
vn 0.819615 0.346040 -0.456603
vn 0.000000 0.046847 -0.998902
vn 0.819615 0.346040 -0.456603
vn 0.793111 -0.321695 -0.517191
vn 0.000000 0.046847 -0.998902
vn 0.793111 -0.321695 -0.517191
vn 0.320537 -0.766767 -0.556169
vn 0.000000 0.046847 -0.998902
vn 0.320537 -0.766767 -0.556169
vn -0.320537 -0.766767 -0.556169
vn 0.000000 0.046847 -0.998902
vn -0.320537 -0.766767 -0.556169
vn -0.793111 -0.321695 -0.517191
vn 0.000000 0.046847 -0.998902
vn -0.793111 -0.321695 -0.517191
vn -0.819615 0.346040 -0.456603
vn 0.000000 0.046847 -0.998902
vn -0.000000 -0.103985 0.994579
vn 0.832201 0.250652 0.494586
vn 0.309702 0.745651 0.589992
vn -0.000000 -0.103985 0.994579
vn 0.309702 0.745651 0.589992
vn -0.387799 0.686369 0.615231
vn -0.000000 -0.103985 0.994579
vn -0.387799 0.686369 0.615231
vn -0.832201 0.250652 0.494586
vn -0.000000 -0.103985 0.994579
vn -0.832201 0.250652 0.494586
vn -0.821291 -0.328290 0.466590
vn -0.000000 -0.103985 0.994579
vn -0.821291 -0.328290 0.466590
vn -0.320224 -0.851567 0.415079
vn -0.000000 -0.103985 0.994579
vn -0.320224 -0.851567 0.415079
vn 0.383114 -0.810718 0.442673
vn -0.000000 -0.103985 0.994579
vn 0.383114 -0.810718 0.442673
vn 0.821291 -0.328290 0.466590
vn -0.000000 -0.103985 0.994579
vn 0.821291 -0.328290 0.466590
vn 0.832201 0.250652 0.494586
vn -0.997259 0.067862 0.029493
vn -0.998126 0.057539 0.020833
vn -0.994595 0.099887 0.028346
vn 0.998126 0.057539 0.020833
vn 0.997259 0.067862 0.029493
vn 0.994595 0.099887 0.028346
vn -0.999194 0.036323 0.017062
vn -0.999314 0.036871 0.003511
vn -0.998126 0.057539 0.020833
vn -0.997259 0.067862 0.029493
vn -0.999194 0.036323 0.017062
vn -0.998126 0.057539 0.020833
vn 0.999194 0.036323 0.017062
vn 0.997259 0.067862 0.029493
vn 0.998126 0.057539 0.020833
vn 0.999314 0.036871 0.003511
vn 0.999194 0.036323 0.017062
vn 0.998126 0.057539 0.020833
vn 0.343468 0.939084 -0.012295
vn 0.930129 0.366159 -0.028061
vn 0.485281 0.874358 0.000684
vn 0.965050 0.246464 -0.089073
vn 0.485281 0.874358 0.000684
vn 0.930129 0.366159 -0.028061
vn -0.480621 0.876838 -0.012612
vn -0.367060 0.930183 0.005094
vn -0.930129 0.366159 -0.028061
vn -0.965050 0.246464 -0.089073
vn -0.930129 0.366159 -0.028061
vn -0.367060 0.930183 0.005094
vn 0.430933 -0.894563 -0.118546
vn 0.372513 -0.896577 -0.239547
vn 0.913820 -0.386030 -0.126150
vn 0.911177 -0.374248 -0.172324
vn 0.913820 -0.386030 -0.126150
vn 0.372513 -0.896577 -0.239547
vn -0.307954 -0.943054 -0.125748
vn -0.913820 -0.386030 -0.126150
vn -0.492288 -0.839314 -0.230660
vn -0.911177 -0.374248 -0.172324
vn -0.492288 -0.839314 -0.230660
vn -0.913820 -0.386030 -0.126150
vn 0.884313 -0.430594 0.180496
vn 0.331127 -0.930140 0.158730
vn 0.862760 -0.505563 0.007138
vn 0.185250 -0.982664 -0.007361
vn 0.862760 -0.505563 0.007138
vn 0.331127 -0.930140 0.158730
vn -0.884313 -0.430594 0.180496
vn -0.862760 -0.505563 0.007138
vn -0.331346 -0.936452 0.115182
vn -0.279194 -0.960215 -0.006192
vn -0.331346 -0.936452 0.115182
vn -0.862760 -0.505563 0.007138
vn 0.956688 0.290847 0.012488
vn 0.578977 0.815344 -0.000251
vn 0.961062 0.209698 0.179964
vn 0.486171 0.839634 0.242183
vn 0.961062 0.209698 0.179964
vn 0.578977 0.815344 -0.000251
vn -0.956688 0.290847 0.012488
vn -0.961062 0.209698 0.179964
vn -0.414767 0.909926 -0.001939
vn -0.483189 0.814108 0.322112
vn -0.414767 0.909926 -0.001939
vn -0.961062 0.209698 0.179964
vn -0.279194 -0.960215 -0.006192
vn 0.185250 -0.982664 -0.007361
vn -0.331346 -0.936452 0.115182
vn 0.331127 -0.930140 0.158730
vn -0.331346 -0.936452 0.115182
vn 0.185250 -0.982664 -0.007361
vn 0.862760 -0.505563 0.007138
vn 0.956688 0.290847 0.012488
vn 0.884313 -0.430594 0.180496
vn 0.961062 0.209698 0.179964
vn 0.884313 -0.430594 0.180496
vn 0.956688 0.290847 0.012488
vn -0.862760 -0.505563 0.007138
vn -0.884313 -0.430594 0.180496
vn -0.956688 0.290847 0.012488
vn -0.961062 0.209698 0.179964
vn -0.956688 0.290847 0.012488
vn -0.884313 -0.430594 0.180496
vn 0.578977 0.815344 -0.000251
vn -0.414767 0.909926 -0.001939
vn 0.486171 0.839634 0.242183
vn -0.483189 0.814108 0.322112
vn 0.486171 0.839634 0.242183
vn -0.414767 0.909926 -0.001939
vn -0.118078 0.967085 -0.225399
vn -0.142055 0.963699 -0.226065
vn -0.173552 0.880854 -0.440427
vn -0.257465 0.864271 -0.432143
vn -0.173552 0.880854 -0.440427
vn -0.142055 0.963699 -0.226065
vn 0.118078 0.967085 -0.225399
vn 0.173552 0.880854 -0.440427
vn 0.142055 0.963699 -0.226065
vn 0.257465 0.864271 -0.432143
vn 0.142055 0.963699 -0.226065
vn 0.173552 0.880854 -0.440427
vn 0.441328 0.876104 0.194092
vn 0.724080 0.562110 0.399676
vn 0.171878 0.961449 -0.214649
vn 0.070396 0.976068 -0.205758
vn 0.171878 0.961449 -0.214649
vn 0.724080 0.562110 0.399676
vn -0.441328 0.876104 0.194092
vn -0.171878 0.961449 -0.214649
vn -0.724080 0.562110 0.399676
vn -0.070396 0.976068 -0.205758
vn -0.724080 0.562110 0.399676
vn -0.171878 0.961449 -0.214649
vn 0.283922 0.920236 0.269358
vn 0.650039 0.719727 0.243807
vn 0.161788 0.961696 -0.221283
vn 0.214510 0.875515 -0.432966
vn 0.161788 0.961696 -0.221283
vn 0.650039 0.719727 0.243807
vn -0.283922 0.920236 0.269358
vn -0.161788 0.961696 -0.221283
vn -0.650039 0.719727 0.243807
vn -0.214510 0.875515 -0.432966
vn -0.650039 0.719727 0.243807
vn -0.161788 0.961696 -0.221283
vn -0.480621 0.876838 -0.012612
vn 0.343468 0.939084 -0.012295
vn -0.367060 0.930183 0.005094
vn 0.485281 0.874358 0.000684
vn -0.367060 0.930183 0.005094
vn 0.343468 0.939084 -0.012295
vn 0.930129 0.366159 -0.028061
vn 0.913820 -0.386030 -0.126150
vn 0.965050 0.246464 -0.089073
vn 0.911177 -0.374248 -0.172324
vn 0.965050 0.246464 -0.089073
vn 0.913820 -0.386030 -0.126150
vn -0.930129 0.366159 -0.028061
vn -0.965050 0.246464 -0.089073
vn -0.913820 -0.386030 -0.126150
vn -0.911177 -0.374248 -0.172324
vn -0.913820 -0.386030 -0.126150
vn -0.965050 0.246464 -0.089073
vn 0.430933 -0.894563 -0.118546
vn -0.307954 -0.943054 -0.125748
vn 0.372513 -0.896577 -0.239547
vn -0.492288 -0.839314 -0.230660
vn 0.372513 -0.896577 -0.239547
vn -0.307954 -0.943054 -0.125748
vn 0.084211 0.964898 0.248757
vn 0.283922 0.920236 0.269358
vn -0.129401 0.989476 -0.064751
vn 0.161788 0.961696 -0.221283
vn -0.129401 0.989476 -0.064751
vn 0.283922 0.920236 0.269358
vn -0.084211 0.964898 0.248757
vn 0.129401 0.989476 -0.064751
vn -0.283922 0.920236 0.269358
vn -0.161788 0.961696 -0.221283
vn -0.283922 0.920236 0.269358
vn 0.129401 0.989476 -0.064751
vn 0.913820 -0.386030 -0.126150
vn 0.862760 -0.505563 0.007138
vn 0.430933 -0.894563 -0.118546
vn 0.185250 -0.982664 -0.007361
vn 0.430933 -0.894563 -0.118546
vn 0.862760 -0.505563 0.007138
vn -0.913820 -0.386030 -0.126150
vn -0.307954 -0.943054 -0.125748
vn -0.862760 -0.505563 0.007138
vn -0.279194 -0.960215 -0.006192
vn -0.862760 -0.505563 0.007138
vn -0.307954 -0.943054 -0.125748
vn 0.578977 0.815344 -0.000251
vn 0.956688 0.290847 0.012488
vn 0.343468 0.939084 -0.012295
vn 0.930129 0.366159 -0.028061
vn 0.343468 0.939084 -0.012295
vn 0.956688 0.290847 0.012488
vn -0.414767 0.909926 -0.001939
vn -0.480621 0.876838 -0.012612
vn -0.956688 0.290847 0.012488
vn -0.930129 0.366159 -0.028061
vn -0.956688 0.290847 0.012488
vn -0.480621 0.876838 -0.012612
vn -0.279194 -0.960215 -0.006192
vn -0.307954 -0.943054 -0.125748
vn 0.185250 -0.982664 -0.007361
vn 0.430933 -0.894563 -0.118546
vn 0.185250 -0.982664 -0.007361
vn -0.307954 -0.943054 -0.125748
vn 0.956688 0.290847 0.012488
vn 0.862760 -0.505563 0.007138
vn 0.930129 0.366159 -0.028061
vn 0.913820 -0.386030 -0.126150
vn 0.930129 0.366159 -0.028061
vn 0.862760 -0.505563 0.007138
vn -0.956688 0.290847 0.012488
vn -0.930129 0.366159 -0.028061
vn -0.862760 -0.505563 0.007138
vn -0.913820 -0.386030 -0.126150
vn -0.862760 -0.505563 0.007138
vn -0.930129 0.366159 -0.028061
vn 0.578977 0.815344 -0.000251
vn 0.343468 0.939084 -0.012295
vn -0.414767 0.909926 -0.001939
vn -0.480621 0.876838 -0.012612
vn -0.414767 0.909926 -0.001939
vn 0.343468 0.939084 -0.012295
vn 0.441328 0.876104 0.194092
vn 0.326489 0.838605 0.436058
vn 0.724080 0.562110 0.399676
vn 0.609131 0.312405 0.728946
vn 0.724080 0.562110 0.399676
vn 0.326489 0.838605 0.436058
vn -0.441328 0.876104 0.194092
vn -0.724080 0.562110 0.399676
vn -0.326489 0.838605 0.436058
vn -0.609131 0.312405 0.728946
vn -0.326489 0.838605 0.436058
vn -0.724080 0.562110 0.399676
vn -0.142055 0.963699 -0.226065
vn 0.171878 0.961449 -0.214649
vn -0.257465 0.864271 -0.432143
vn 0.070396 0.976068 -0.205758
vn -0.257465 0.864271 -0.432143
vn 0.171878 0.961449 -0.214649
vn 0.142055 0.963699 -0.226065
vn 0.257465 0.864271 -0.432143
vn -0.171878 0.961449 -0.214649
vn -0.070396 0.976068 -0.205758
vn -0.171878 0.961449 -0.214649
vn 0.257465 0.864271 -0.432143
vn -0.129401 0.989476 -0.064751
vn 0.161788 0.961696 -0.221283
vn -0.234350 0.832401 -0.502183
vn 0.214510 0.875515 -0.432966
vn -0.234350 0.832401 -0.502183
vn 0.161788 0.961696 -0.221283
vn 0.129401 0.989476 -0.064751
vn 0.234350 0.832401 -0.502183
vn -0.161788 0.961696 -0.221283
vn -0.214510 0.875515 -0.432966
vn -0.161788 0.961696 -0.221283
vn 0.234350 0.832401 -0.502183
vn 0.084211 0.964898 0.248757
vn 0.429248 0.682807 0.591204
vn 0.283922 0.920236 0.269358
vn 0.650039 0.719727 0.243807
vn 0.283922 0.920236 0.269358
vn 0.429248 0.682807 0.591204
vn -0.084211 0.964898 0.248757
vn -0.283922 0.920236 0.269358
vn -0.429248 0.682807 0.591204
vn -0.650039 0.719727 0.243807
vn -0.429248 0.682807 0.591204
vn -0.283922 0.920236 0.269358
vn 0.961062 0.209698 0.179964
vn 0.486171 0.839634 0.242183
vn 0.832201 0.250652 0.494586
vn 0.309702 0.745651 0.589992
vn 0.832201 0.250652 0.494586
vn 0.486171 0.839634 0.242183
vn -0.961062 0.209698 0.179964
vn -0.832201 0.250652 0.494586
vn -0.483189 0.814108 0.322112
vn -0.387799 0.686369 0.615231
vn -0.483189 0.814108 0.322112
vn -0.832201 0.250652 0.494586
vn 0.486171 0.839634 0.242183
vn -0.483189 0.814108 0.322112
vn 0.309702 0.745651 0.589992
vn -0.387799 0.686369 0.615231
vn 0.309702 0.745651 0.589992
vn -0.483189 0.814108 0.322112
vn -0.331346 -0.936452 0.115182
vn 0.331127 -0.930140 0.158730
vn -0.320224 -0.851567 0.415079
vn 0.383114 -0.810718 0.442673
vn -0.320224 -0.851567 0.415079
vn 0.331127 -0.930140 0.158730
vn 0.331127 -0.930140 0.158730
vn 0.884313 -0.430594 0.180496
vn 0.383114 -0.810718 0.442673
vn 0.821291 -0.328290 0.466590
vn 0.383114 -0.810718 0.442673
vn 0.884313 -0.430594 0.180496
vn -0.331346 -0.936452 0.115182
vn -0.320224 -0.851567 0.415079
vn -0.884313 -0.430594 0.180496
vn -0.821291 -0.328290 0.466590
vn -0.884313 -0.430594 0.180496
vn -0.320224 -0.851567 0.415079
vn 0.884313 -0.430594 0.180496
vn 0.961062 0.209698 0.179964
vn 0.821291 -0.328290 0.466590
vn 0.832201 0.250652 0.494586
vn 0.821291 -0.328290 0.466590
vn 0.961062 0.209698 0.179964
vn -0.884313 -0.430594 0.180496
vn -0.821291 -0.328290 0.466590
vn -0.961062 0.209698 0.179964
vn -0.832201 0.250652 0.494586
vn -0.961062 0.209698 0.179964
vn -0.821291 -0.328290 0.466590
vn -0.858793 -0.125599 -0.496688
vn -0.000002 -0.000000 -1.000000
vn -0.320111 -0.811741 -0.488472
vn -0.320111 -0.811741 -0.488472
vn -0.000002 -0.000000 -1.000000
vn 0.399929 -0.704276 -0.586559
vn 0.399929 -0.704276 -0.586559
vn -0.000002 -0.000000 -1.000000
vn 0.858790 -0.125601 -0.496693
vn 0.858790 -0.125601 -0.496693
vn -0.000002 -0.000000 -1.000000
vn 0.444550 0.779369 -0.441541
vn 0.444550 0.779369 -0.441541
vn -0.000002 -0.000000 -1.000000
vn -0.530480 0.684056 -0.500659
vn -0.530480 0.684056 -0.500659
vn -0.000002 -0.000000 -1.000000
vn -0.858793 -0.125599 -0.496688
vn 0.956419 0.118258 -0.266980
vn 0.000016 0.005945 -0.999982
vn 0.376754 0.891391 -0.251951
vn 0.376754 0.891391 -0.251951
vn 0.000016 0.005945 -0.999982
vn -0.473043 0.831966 -0.289937
vn -0.473043 0.831966 -0.289937
vn 0.000016 0.005945 -0.999982
vn -0.956421 0.118255 -0.266973
vn -0.956421 0.118255 -0.266973
vn 0.000016 0.005945 -0.999982
vn -0.478942 -0.840418 -0.253598
vn -0.478942 -0.840418 -0.253598
vn 0.000016 0.005945 -0.999982
vn 0.570770 -0.773851 -0.274546
vn 0.570770 -0.773851 -0.274546
vn 0.000016 0.005945 -0.999982
vn 0.956419 0.118258 -0.266980
vn 0.858793 -0.125599 -0.496688
vn 0.320111 -0.811741 -0.488472
vn 0.000002 -0.000000 -1.000000
vn 0.320111 -0.811741 -0.488472
vn -0.399929 -0.704276 -0.586559
vn 0.000002 -0.000000 -1.000000
vn -0.399929 -0.704276 -0.586559
vn -0.858790 -0.125601 -0.496693
vn 0.000002 -0.000000 -1.000000
vn -0.858790 -0.125601 -0.496693
vn -0.444550 0.779369 -0.441541
vn 0.000002 -0.000000 -1.000000
vn -0.444550 0.779369 -0.441541
vn 0.530480 0.684056 -0.500659
vn 0.000002 -0.000000 -1.000000
vn 0.530480 0.684056 -0.500659
vn 0.858793 -0.125599 -0.496688
vn 0.000002 -0.000000 -1.000000
vn -0.956419 0.118258 -0.266980
vn -0.376754 0.891391 -0.251951
vn -0.000016 0.005945 -0.999982
vn -0.376754 0.891391 -0.251951
vn 0.473043 0.831966 -0.289937
vn -0.000016 0.005945 -0.999982
vn 0.473043 0.831966 -0.289937
vn 0.956421 0.118255 -0.266973
vn -0.000016 0.005945 -0.999982
vn 0.956421 0.118255 -0.266973
vn 0.478942 -0.840418 -0.253598
vn -0.000016 0.005945 -0.999982
vn 0.478942 -0.840418 -0.253598
vn -0.570770 -0.773851 -0.274546
vn -0.000016 0.005945 -0.999982
vn -0.570770 -0.773851 -0.274546
vn -0.956419 0.118258 -0.266980
vn -0.000016 0.005945 -0.999982
vn 0.424459 -0.902264 0.075853
vn 0.995626 0.001796 0.093408
vn 0.623351 -0.729168 0.282398
vn 0.940993 0.181602 0.285573
vn 0.623351 -0.729168 0.282398
vn 0.995626 0.001796 0.093408
vn -0.424459 -0.902264 0.075853
vn -0.623351 -0.729168 0.282398
vn -0.995626 0.001796 0.093408
vn -0.940993 0.181602 0.285573
vn -0.995626 0.001796 0.093408
vn -0.623351 -0.729168 0.282398
vn -0.493228 0.864852 0.093575
vn -0.309441 0.901084 0.303800
vn 0.491169 0.854897 0.167043
vn 0.471685 0.826517 0.307219
vn 0.491169 0.854897 0.167043
vn -0.309441 0.901084 0.303800
vn 0.493228 0.864852 0.093575
vn -0.491169 0.854897 0.167043
vn 0.309441 0.901084 0.303800
vn -0.471685 0.826517 0.307219
vn 0.309441 0.901084 0.303800
vn -0.491169 0.854897 0.167043
vn -0.592105 -0.803356 0.063488
vn -0.475201 -0.831045 0.289048
vn -0.995624 0.001791 0.093428
vn -0.940983 0.181600 0.285609
vn -0.995624 0.001791 0.093428
vn -0.475201 -0.831045 0.289048
vn 0.592105 -0.803356 0.063488
vn 0.995624 0.001791 0.093428
vn 0.475201 -0.831045 0.289048
vn 0.940983 0.181600 0.285609
vn 0.475201 -0.831045 0.289048
vn 0.995624 0.001791 0.093428
vn 0.995626 0.001796 0.093408
vn 0.424459 -0.902264 0.075853
vn 0.858790 -0.125601 -0.496693
vn 0.399929 -0.704276 -0.586559
vn 0.858790 -0.125601 -0.496693
vn 0.424459 -0.902264 0.075853
vn -0.995626 0.001796 0.093408
vn -0.858790 -0.125601 -0.496693
vn -0.424459 -0.902264 0.075853
vn -0.399929 -0.704276 -0.586559
vn -0.424459 -0.902264 0.075853
vn -0.858790 -0.125601 -0.496693
vn 0.491169 0.854897 0.167043
vn 0.444550 0.779369 -0.441541
vn -0.493228 0.864852 0.093575
vn -0.530480 0.684056 -0.500659
vn -0.493228 0.864852 0.093575
vn 0.444550 0.779369 -0.441541
vn -0.491169 0.854897 0.167043
vn 0.493228 0.864852 0.093575
vn -0.444550 0.779369 -0.441541
vn 0.530480 0.684056 -0.500659
vn -0.444550 0.779369 -0.441541
vn 0.493228 0.864852 0.093575
vn -0.995624 0.001791 0.093428
vn -0.858793 -0.125599 -0.496688
vn -0.592105 -0.803356 0.063488
vn -0.320111 -0.811741 -0.488472
vn -0.592105 -0.803356 0.063488
vn -0.858793 -0.125599 -0.496688
vn 0.995624 0.001791 0.093428
vn 0.592105 -0.803356 0.063488
vn 0.858793 -0.125599 -0.496688
vn 0.320111 -0.811741 -0.488472
vn 0.858793 -0.125599 -0.496688
vn 0.592105 -0.803356 0.063488
vn 0.973308 -0.191825 -0.125992
vn 0.956419 0.118258 -0.266980
vn 0.644385 0.756699 -0.110337
vn 0.376754 0.891391 -0.251951
vn 0.644385 0.756699 -0.110337
vn 0.956419 0.118258 -0.266980
vn -0.973308 -0.191825 -0.125992
vn -0.644385 0.756699 -0.110337
vn -0.956419 0.118258 -0.266980
vn -0.376754 0.891391 -0.251951
vn -0.956419 0.118258 -0.266980
vn -0.644385 0.756699 -0.110337
vn -0.973309 -0.191836 -0.125968
vn -0.491825 0.863652 -0.110514
vn -0.956421 0.118255 -0.266973
vn -0.473043 0.831966 -0.289937
vn -0.956421 0.118255 -0.266973
vn -0.491825 0.863652 -0.110514
vn 0.973309 -0.191836 -0.125968
vn 0.956421 0.118255 -0.266973
vn 0.491825 0.863652 -0.110514
vn 0.473043 0.831966 -0.289937
vn 0.491825 0.863652 -0.110514
vn 0.956421 0.118255 -0.266973
vn -0.490643 -0.860736 -0.135657
vn -0.478942 -0.840418 -0.253598
vn 0.321445 -0.937360 -0.134274
vn 0.570770 -0.773851 -0.274546
vn 0.321445 -0.937360 -0.134274
vn -0.478942 -0.840418 -0.253598
vn 0.490643 -0.860736 -0.135657
vn -0.321445 -0.937360 -0.134274
vn 0.478942 -0.840418 -0.253598
vn -0.570770 -0.773851 -0.274546
vn 0.478942 -0.840418 -0.253598
vn -0.321445 -0.937360 -0.134274
vn 0.493826 -0.866589 -0.071829
vn -0.323455 -0.943607 -0.070589
vn 0.493832 -0.866585 -0.071832
vn -0.646929 -0.759277 -0.070577
vn 0.493832 -0.866585 -0.071832
vn -0.323455 -0.943607 -0.070589
vn -0.493826 -0.866589 -0.071829
vn -0.493832 -0.866585 -0.071832
vn 0.323455 -0.943607 -0.070589
vn 0.646929 -0.759277 -0.070577
vn 0.323455 -0.943607 -0.070589
vn -0.493832 -0.866585 -0.071832
vn 0.995626 0.001796 0.093408
vn 0.491169 0.854897 0.167043
vn 0.940993 0.181602 0.285573
vn 0.471685 0.826517 0.307219
vn 0.940993 0.181602 0.285573
vn 0.491169 0.854897 0.167043
vn -0.995626 0.001796 0.093408
vn -0.940993 0.181602 0.285573
vn -0.491169 0.854897 0.167043
vn -0.471685 0.826517 0.307219
vn -0.491169 0.854897 0.167043
vn -0.940993 0.181602 0.285573
vn -0.995624 0.001791 0.093428
vn -0.940983 0.181600 0.285609
vn -0.493228 0.864852 0.093575
vn -0.309441 0.901084 0.303800
vn -0.493228 0.864852 0.093575
vn -0.940983 0.181600 0.285609
vn 0.995624 0.001791 0.093428
vn 0.493228 0.864852 0.093575
vn 0.940983 0.181600 0.285609
vn 0.309441 0.901084 0.303800
vn 0.940983 0.181600 0.285609
vn 0.493228 0.864852 0.093575
vn -0.592105 -0.803356 0.063488
vn 0.424459 -0.902264 0.075853
vn -0.475201 -0.831045 0.289048
vn 0.623351 -0.729168 0.282398
vn -0.475201 -0.831045 0.289048
vn 0.424459 -0.902264 0.075853
vn 0.592105 -0.803356 0.063488
vn 0.475201 -0.831045 0.289048
vn -0.424459 -0.902264 0.075853
vn -0.623351 -0.729168 0.282398
vn -0.424459 -0.902264 0.075853
vn 0.475201 -0.831045 0.289048
vn 0.491169 0.854897 0.167043
vn 0.995626 0.001796 0.093408
vn 0.444550 0.779369 -0.441541
vn 0.858790 -0.125601 -0.496693
vn 0.444550 0.779369 -0.441541
vn 0.995626 0.001796 0.093408
vn -0.491169 0.854897 0.167043
vn -0.444550 0.779369 -0.441541
vn -0.995626 0.001796 0.093408
vn -0.858790 -0.125601 -0.496693
vn -0.995626 0.001796 0.093408
vn -0.444550 0.779369 -0.441541
vn -0.493228 0.864852 0.093575
vn -0.530480 0.684056 -0.500659
vn -0.995624 0.001791 0.093428
vn -0.858793 -0.125599 -0.496688
vn -0.995624 0.001791 0.093428
vn -0.530480 0.684056 -0.500659
vn 0.493228 0.864852 0.093575
vn 0.995624 0.001791 0.093428
vn 0.530480 0.684056 -0.500659
vn 0.858793 -0.125599 -0.496688
vn 0.530480 0.684056 -0.500659
vn 0.995624 0.001791 0.093428
vn -0.592105 -0.803356 0.063488
vn -0.320111 -0.811741 -0.488472
vn 0.424459 -0.902264 0.075853
vn 0.399929 -0.704276 -0.586559
vn 0.424459 -0.902264 0.075853
vn -0.320111 -0.811741 -0.488472
vn 0.592105 -0.803356 0.063488
vn -0.424459 -0.902264 0.075853
vn 0.320111 -0.811741 -0.488472
vn -0.399929 -0.704276 -0.586559
vn 0.320111 -0.811741 -0.488472
vn -0.424459 -0.902264 0.075853
vn 0.644385 0.756699 -0.110337
vn 0.376754 0.891391 -0.251951
vn -0.491825 0.863652 -0.110514
vn -0.473043 0.831966 -0.289937
vn -0.491825 0.863652 -0.110514
vn 0.376754 0.891391 -0.251951
vn -0.644385 0.756699 -0.110337
vn 0.491825 0.863652 -0.110514
vn -0.376754 0.891391 -0.251951
vn 0.473043 0.831966 -0.289937
vn -0.376754 0.891391 -0.251951
vn 0.491825 0.863652 -0.110514
vn -0.490643 -0.860736 -0.135657
vn -0.973309 -0.191836 -0.125968
vn -0.478942 -0.840418 -0.253598
vn -0.956421 0.118255 -0.266973
vn -0.478942 -0.840418 -0.253598
vn -0.973309 -0.191836 -0.125968
vn 0.490643 -0.860736 -0.135657
vn 0.478942 -0.840418 -0.253598
vn 0.973309 -0.191836 -0.125968
vn 0.956421 0.118255 -0.266973
vn 0.973309 -0.191836 -0.125968
vn 0.478942 -0.840418 -0.253598
vn 0.321445 -0.937360 -0.134274
vn 0.570770 -0.773851 -0.274546
vn 0.973308 -0.191825 -0.125992
vn 0.956419 0.118258 -0.266980
vn 0.973308 -0.191825 -0.125992
vn 0.570770 -0.773851 -0.274546
vn -0.321445 -0.937360 -0.134274
vn -0.973308 -0.191825 -0.125992
vn -0.570770 -0.773851 -0.274546
vn -0.956419 0.118258 -0.266980
vn -0.570770 -0.773851 -0.274546
vn -0.973308 -0.191825 -0.125992
vn -0.323455 -0.943607 -0.070589
vn -0.978639 -0.193229 -0.070206
vn -0.646929 -0.759277 -0.070577
vn -0.978685 0.193338 -0.069252
vn -0.646929 -0.759277 -0.070577
vn -0.978639 -0.193229 -0.070206
vn 0.323455 -0.943607 -0.070589
vn 0.646929 -0.759277 -0.070577
vn 0.978639 -0.193229 -0.070206
vn 0.978685 0.193338 -0.069252
vn 0.978639 -0.193229 -0.070206
vn 0.646929 -0.759277 -0.070577
vn -0.978639 -0.193229 -0.070206
vn -0.493940 0.866866 -0.067574
vn -0.978685 0.193338 -0.069252
vn -0.493956 0.866858 -0.067567
vn -0.978685 0.193338 -0.069252
vn -0.493940 0.866866 -0.067574
vn 0.978639 -0.193229 -0.070206
vn 0.978685 0.193338 -0.069252
vn 0.493940 0.866866 -0.067574
vn 0.493956 0.866858 -0.067567
vn 0.493940 0.866866 -0.067574
vn 0.978685 0.193338 -0.069252
vn 0.647075 0.759492 -0.066826
vn 0.323541 0.943914 -0.065940
vn -0.493940 0.866866 -0.067574
vn -0.493956 0.866858 -0.067567
vn -0.493940 0.866866 -0.067574
vn 0.323541 0.943914 -0.065940
vn -0.647075 0.759492 -0.066826
vn 0.493940 0.866866 -0.067574
vn -0.323541 0.943914 -0.065940
vn 0.493956 0.866858 -0.067567
vn -0.323541 0.943914 -0.065940
vn 0.493940 0.866866 -0.067574
vn 0.978640 -0.193232 -0.070185
vn 0.978688 0.193329 -0.069232
vn 0.647075 0.759492 -0.066826
vn 0.323541 0.943914 -0.065940
vn 0.647075 0.759492 -0.066826
vn 0.978688 0.193329 -0.069232
vn -0.978640 -0.193232 -0.070185
vn -0.647075 0.759492 -0.066826
vn -0.978688 0.193329 -0.069232
vn -0.323541 0.943914 -0.065940
vn -0.978688 0.193329 -0.069232
vn -0.647075 0.759492 -0.066826
vn 0.493826 -0.866589 -0.071829
vn 0.493832 -0.866585 -0.071832
vn 0.978640 -0.193232 -0.070185
vn 0.978688 0.193329 -0.069232
vn 0.978640 -0.193232 -0.070185
vn 0.493832 -0.866585 -0.071832
vn -0.493826 -0.866589 -0.071829
vn -0.978640 -0.193232 -0.070185
vn -0.493832 -0.866585 -0.071832
vn -0.978688 0.193329 -0.069232
vn -0.493832 -0.866585 -0.071832
vn -0.978640 -0.193232 -0.070185
vn -0.378773 0.000002 0.925490
vn -0.189188 -0.335500 0.922847
vn 0.000003 0.000003 1.000000
vn -0.189188 -0.335500 0.922847
vn 0.189193 -0.335501 0.922846
vn 0.000003 0.000003 1.000000
vn 0.189193 -0.335501 0.922846
vn 0.378781 0.000002 0.925486
vn 0.000003 0.000003 1.000000
vn 0.378781 0.000002 0.925486
vn 0.189192 0.335507 0.922844
vn 0.000003 0.000003 1.000000
vn 0.189192 0.335507 0.922844
vn -0.189188 0.335506 0.922845
vn 0.000003 0.000003 1.000000
vn -0.189188 0.335506 0.922845
vn -0.378773 0.000002 0.925490
vn 0.000003 0.000003 1.000000
vn 0.378773 0.000002 0.925490
vn -0.000003 0.000003 1.000000
vn 0.189188 -0.335500 0.922847
vn 0.189188 -0.335500 0.922847
vn -0.000003 0.000003 1.000000
vn -0.189193 -0.335501 0.922846
vn -0.189193 -0.335501 0.922846
vn -0.000003 0.000003 1.000000
vn -0.378781 0.000002 0.925486
vn -0.378781 0.000002 0.925486
vn -0.000003 0.000003 1.000000
vn -0.189192 0.335507 0.922844
vn -0.189192 0.335507 0.922844
vn -0.000003 0.000003 1.000000
vn 0.189188 0.335506 0.922845
vn 0.189188 0.335506 0.922845
vn -0.000003 0.000003 1.000000
vn 0.378773 0.000002 0.925490
vn 0.925874 -0.377440 -0.017187
vn 0.935023 -0.352863 -0.034911
vn 0.969503 -0.233525 -0.074370
vn 0.000000 0.969311 -0.245838
vn 0.000000 0.969311 -0.245838
vn 0.000000 0.969311 -0.245838
vn 0.902511 -0.421975 0.086088
vn 0.969410 -0.245185 -0.011375
vn 0.931622 -0.363039 -0.016842
vn -0.921338 -0.387907 0.025754
vn -0.937609 -0.344496 -0.047025
vn -0.972047 -0.232631 -0.031755
vn 0.000000 0.998720 -0.050579
vn 0.000000 0.998720 -0.050579
vn 0.000000 0.998720 -0.050579
vn 0.902510 -0.421976 0.086087
vn 0.969409 -0.245185 -0.011375
vn 0.931622 -0.363039 -0.016842
vn -0.921338 -0.387908 0.025754
vn -0.937609 -0.344497 -0.047025
vn -0.972046 -0.232631 -0.031755
vn -0.969466 -0.233662 -0.074414
vn -0.949979 -0.308279 -0.050042
vn -0.970680 -0.239774 -0.017008
vn 0.939261 -0.334833 -0.075334
vn 0.943292 -0.305298 -0.130357
vn 0.953661 -0.125880 -0.273285
vn 0.000000 0.989688 -0.143237
vn 0.000000 0.989688 -0.143237
vn 0.000000 0.989688 -0.143237
vn -0.940720 -0.317136 -0.120294
vn -0.922713 -0.380036 -0.064599
vn -0.970092 -0.241511 -0.024359
vn 0.000000 0.998720 -0.050579
vn 0.000000 0.998720 -0.050579
vn 0.000000 0.998720 -0.050579
vn -0.925874 -0.377440 -0.017187
vn -0.969503 -0.233525 -0.074370
vn -0.935023 -0.352863 -0.034911
vn 0.000000 0.969311 -0.245838
vn 0.000000 0.969311 -0.245838
vn 0.000000 0.969311 -0.245838
vn -0.902511 -0.421975 0.086088
vn -0.931622 -0.363039 -0.016842
vn -0.969410 -0.245185 -0.011375
vn 0.921338 -0.387907 0.025754
vn 0.972047 -0.232631 -0.031755
vn 0.937609 -0.344496 -0.047025
vn 0.000000 0.998720 -0.050579
vn 0.000000 0.998720 -0.050579
vn 0.000000 0.998720 -0.050579
vn -0.902510 -0.421976 0.086087
vn -0.931622 -0.363039 -0.016842
vn -0.969409 -0.245185 -0.011375
vn 0.921338 -0.387908 0.025754
vn 0.972046 -0.232631 -0.031755
vn 0.937609 -0.344497 -0.047025
vn 0.969466 -0.233662 -0.074414
vn 0.970680 -0.239774 -0.017008
vn 0.949979 -0.308279 -0.050042
vn -0.939261 -0.334833 -0.075334
vn -0.953661 -0.125880 -0.273285
vn -0.943292 -0.305298 -0.130357
vn 0.000000 0.989688 -0.143237
vn 0.000000 0.989688 -0.143237
vn 0.000000 0.989688 -0.143237
vn 0.940720 -0.317136 -0.120294
vn 0.970092 -0.241511 -0.024359
vn 0.922713 -0.380036 -0.064599
vn 0.000000 0.998720 -0.050579
vn 0.000000 0.998720 -0.050579
vn 0.000000 0.998720 -0.050579
vn 0.825986 0.543060 0.151108
vn 0.078494 0.958067 0.275583
vn 0.647683 0.728714 0.222447
vn -0.999835 0.015560 0.009371
vn -0.978643 0.182067 0.095442
vn -0.986536 0.151865 0.060701
vn -0.825986 0.543060 0.151108
vn -0.647683 0.728714 0.222447
vn -0.078494 0.958067 0.275583
vn 0.999835 0.015560 0.009371
vn 0.986536 0.151865 0.060701
vn 0.978643 0.182067 0.095442
vn -0.972930 -0.221015 -0.067520
vn -0.967551 -0.239453 -0.080674
vn -0.991579 -0.121097 -0.045897
vn 0.972930 -0.221015 -0.067520
vn 0.991579 -0.121097 -0.045897
vn 0.967551 -0.239453 -0.080674
vn 0.999835 0.015560 0.009371
vn 0.967551 -0.239453 -0.080674
vn 0.991579 -0.121097 -0.045897
vn 0.991579 -0.121097 -0.045897
vn 0.986536 0.151865 0.060701
vn 0.999835 0.015560 0.009371
vn -0.999835 0.015560 0.009371
vn -0.991579 -0.121097 -0.045897
vn -0.967551 -0.239453 -0.080674
vn -0.991579 -0.121097 -0.045897
vn -0.999835 0.015560 0.009371
vn -0.986536 0.151865 0.060701
vn 0.999361 0.034101 -0.010732
vn 0.825986 0.543060 0.151108
vn 0.647683 0.728714 0.222447
vn -0.999361 0.034101 -0.010732
vn -0.647683 0.728714 0.222447
vn -0.825986 0.543060 0.151108
vn 0.981140 -0.184779 -0.056745
vn 0.992746 -0.104873 -0.058798
vn 0.967858 -0.233789 -0.092704
vn -0.992746 -0.104873 -0.058798
vn -0.981140 -0.184779 -0.056745
vn -0.967858 -0.233789 -0.092704
vn -0.992746 -0.104873 -0.058798
vn -0.999361 0.034101 -0.010732
vn -0.825986 0.543060 0.151108
vn -0.992746 -0.104873 -0.058798
vn -0.967858 -0.233789 -0.092704
vn -0.999361 0.034101 -0.010732
vn 0.999361 0.034101 -0.010732
vn 0.992746 -0.104873 -0.058798
vn 0.825986 0.543060 0.151108
vn 0.992746 -0.104873 -0.058798
vn 0.999361 0.034101 -0.010732
vn 0.967858 -0.233789 -0.092704
vn 0.931622 -0.363039 -0.016842
vn 0.969409 -0.245185 -0.011375
vn 0.986620 -0.151369 -0.060571
vn 1.000000 0.000000 -0.000000
vn 0.986620 -0.151369 -0.060571
vn 0.969409 -0.245185 -0.011375
vn -0.931622 -0.363039 -0.016842
vn -0.986620 -0.151369 -0.060571
vn -0.969409 -0.245185 -0.011375
vn -1.000000 0.000000 0.000000
vn -0.969409 -0.245185 -0.011375
vn -0.986620 -0.151369 -0.060571
vn 0.931622 -0.363039 -0.016842
vn 0.969410 -0.245185 -0.011375
vn 0.986620 -0.151369 -0.060571
vn 1.000000 0.000000 -0.000000
vn 0.986620 -0.151369 -0.060571
vn 0.969410 -0.245185 -0.011375
vn -0.931622 -0.363039 -0.016842
vn -0.986620 -0.151369 -0.060571
vn -0.969410 -0.245185 -0.011375
vn -1.000000 0.000000 0.000000
vn -0.969410 -0.245185 -0.011375
vn -0.986620 -0.151369 -0.060571
vn 0.935023 -0.352863 -0.034911
vn 0.925874 -0.377440 -0.017187
vn 0.895078 -0.445759 0.011579
vn 0.904987 -0.425058 0.018010
vn 0.895078 -0.445759 0.011579
vn 0.925874 -0.377440 -0.017187
vn -0.935023 -0.352863 -0.034911
vn -0.895078 -0.445759 0.011579
vn -0.925874 -0.377440 -0.017187
vn -0.904987 -0.425058 0.018010
vn -0.925874 -0.377440 -0.017187
vn -0.895078 -0.445759 0.011579
vn -0.949979 -0.308279 -0.050042
vn -0.970061 -0.242561 0.012045
vn -0.970680 -0.239774 -0.017008
vn -0.993897 -0.098755 0.049160
vn -0.970680 -0.239774 -0.017008
vn -0.970061 -0.242561 0.012045
vn 0.949979 -0.308279 -0.050042
vn 0.970680 -0.239774 -0.017008
vn 0.970061 -0.242561 0.012045
vn 0.993897 -0.098755 0.049160
vn 0.970061 -0.242561 0.012045
vn 0.970680 -0.239774 -0.017008
vn 0.943292 -0.305298 -0.130357
vn 0.939261 -0.334833 -0.075334
vn 0.902915 -0.429027 0.026077
vn 0.920837 -0.388577 0.032658
vn 0.902915 -0.429027 0.026077
vn 0.939261 -0.334833 -0.075334
vn -0.943292 -0.305298 -0.130357
vn -0.902915 -0.429027 0.026077
vn -0.939261 -0.334833 -0.075334
vn -0.920837 -0.388577 0.032658
vn -0.939261 -0.334833 -0.075334
vn -0.902915 -0.429027 0.026077
vn -0.937609 -0.344497 -0.047025
vn -0.986635 -0.151282 -0.060536
vn -0.972046 -0.232631 -0.031755
vn -1.000000 0.000000 0.000000
vn -0.972046 -0.232631 -0.031755
vn -0.986635 -0.151282 -0.060536
vn 0.937609 -0.344497 -0.047025
vn 0.972046 -0.232631 -0.031755
vn 0.986635 -0.151282 -0.060536
vn 1.000000 0.000000 -0.000000
vn 0.986635 -0.151282 -0.060536
vn 0.972046 -0.232631 -0.031755
vn -0.937609 -0.344496 -0.047025
vn -0.986635 -0.151282 -0.060536
vn -0.972047 -0.232631 -0.031755
vn -1.000000 0.000000 0.000000
vn -0.972047 -0.232631 -0.031755
vn -0.986635 -0.151282 -0.060536
vn 0.937609 -0.344496 -0.047025
vn 0.972047 -0.232631 -0.031755
vn 0.986635 -0.151282 -0.060536
vn 1.000000 0.000000 -0.000000
vn 0.986635 -0.151282 -0.060536
vn 0.972047 -0.232631 -0.031755
vn -0.922713 -0.380036 -0.064599
vn -0.979276 -0.200935 0.025370
vn -0.970092 -0.241511 -0.024359
vn -0.997025 0.051315 0.057518
vn -0.970092 -0.241511 -0.024359
vn -0.979276 -0.200935 0.025370
vn 0.922713 -0.380036 -0.064599
vn 0.970092 -0.241511 -0.024359
vn 0.979276 -0.200935 0.025370
vn 0.997025 0.051315 0.057518
vn 0.979276 -0.200935 0.025370
vn 0.970092 -0.241511 -0.024359
#end 993 vertex normals

#begin 331 faces
usemtl scene_material
f 28//1 30//2 29//3 
usemtl scene_material
f 28//4 27//5 26//6 
usemtl scene_material
f 30//7 28//8 26//9 
usemtl scene_material
f 35//10 33//11 34//12 
usemtl scene_material
f 33//13 35//14 31//15 
usemtl scene_material
f 32//16 33//17 31//18 
usemtl scene_material
f 63//19 59//20 58//21 
usemtl scene_material
f 20//22 19//23 64//24 
usemtl scene_material
f 19//25 18//26 64//27 
usemtl scene_material
f 18//28 17//29 64//30 
usemtl scene_material
f 17//31 21//32 64//33 
usemtl scene_material
f 21//34 22//35 64//36 
usemtl scene_material
f 22//37 23//38 64//39 
usemtl scene_material
f 23//40 24//41 64//42 
usemtl scene_material
f 24//43 20//44 64//45 
usemtl scene_material
f 25//46 77//47 78//48 
usemtl scene_material
f 25//49 78//50 79//51 
usemtl scene_material
f 25//52 79//53 80//54 
usemtl scene_material
f 25//55 80//56 81//57 
usemtl scene_material
f 25//58 81//59 82//60 
usemtl scene_material
f 25//61 82//62 83//63 
usemtl scene_material
f 25//64 83//65 84//66 
usemtl scene_material
f 25//67 84//68 77//69 
usemtl scene_material
f 61//70 58//71 62//72 
usemtl scene_material
f 59//73 61//74 62//75 
usemtl scene_material
f 60//76 63//77 58//78 
usemtl scene_material
f 61//79 60//80 58//81 
usemtl scene_material
f 60//82 61//83 59//84 
usemtl scene_material
f 63//85 60//86 59//87 
usemtl scene_material
f 11//88 12//89 23//90 
usemtl scene_material
f 24//91 23//92 12//93 
usemtl scene_material
f 10//94 22//95 9//96 
usemtl scene_material
f 21//97 9//98 22//99 
usemtl scene_material
f 3//100 19//101 4//102 
usemtl scene_material
f 20//103 4//104 19//105 
usemtl scene_material
f 2//106 1//107 18//108 
usemtl scene_material
f 17//109 18//110 1//111 
usemtl scene_material
f 5//112 6//113 41//114 
usemtl scene_material
f 40//115 41//116 6//117 
usemtl scene_material
f 8//118 42//119 7//120 
usemtl scene_material
f 43//121 7//122 42//123 
usemtl scene_material
f 44//124 45//125 14//126 
usemtl scene_material
f 13//127 14//128 45//129 
usemtl scene_material
f 47//130 16//131 46//132 
usemtl scene_material
f 15//133 46//134 16//135 
usemtl scene_material
f 43//136 40//137 7//138 
usemtl scene_material
f 6//139 7//140 40//141 
usemtl scene_material
f 41//142 44//143 5//144 
usemtl scene_material
f 14//145 5//146 44//147 
usemtl scene_material
f 42//148 8//149 47//150 
usemtl scene_material
f 16//151 47//152 8//153 
usemtl scene_material
f 45//154 46//155 13//156 
usemtl scene_material
f 15//157 13//158 46//159 
usemtl scene_material
f 27//160 28//161 55//162 
usemtl scene_material
f 56//163 55//164 28//165 
usemtl scene_material
f 32//166 52//167 33//168 
usemtl scene_material
f 53//169 33//170 52//171 
usemtl scene_material
f 30//172 51//173 29//174 
usemtl scene_material
f 57//175 29//176 51//177 
usemtl scene_material
f 35//178 34//179 48//180 
usemtl scene_material
f 54//181 48//182 34//183 
usemtl scene_material
f 37//184 67//185 38//186 
usemtl scene_material
f 65//187 38//188 67//189 
usemtl scene_material
f 70//190 71//191 75//192 
usemtl scene_material
f 73//193 75//194 71//195 
usemtl scene_material
f 10//196 11//197 22//198 
usemtl scene_material
f 23//199 22//200 11//201 
usemtl scene_material
f 12//202 4//203 24//204 
usemtl scene_material
f 20//205 24//206 4//207 
usemtl scene_material
f 9//208 21//209 1//210 
usemtl scene_material
f 17//211 1//212 21//213 
usemtl scene_material
f 3//214 2//215 19//216 
usemtl scene_material
f 18//217 19//218 2//219 
usemtl scene_material
f 36//220 37//221 39//222 
usemtl scene_material
f 38//223 39//224 37//225 
usemtl scene_material
f 69//226 72//227 70//228 
usemtl scene_material
f 71//229 70//230 72//231 
usemtl scene_material
f 4//232 41//233 3//234 
usemtl scene_material
f 40//235 3//236 41//237 
usemtl scene_material
f 1//238 2//239 42//240 
usemtl scene_material
f 43//241 42//242 2//243 
usemtl scene_material
f 45//244 44//245 11//246 
usemtl scene_material
f 12//247 11//248 44//249 
usemtl scene_material
f 46//250 10//251 47//252 
usemtl scene_material
f 9//253 47//254 10//255 
usemtl scene_material
f 43//256 2//257 40//258 
usemtl scene_material
f 3//259 40//260 2//261 
usemtl scene_material
f 44//262 41//263 12//264 
usemtl scene_material
f 4//265 12//266 41//267 
usemtl scene_material
f 47//268 9//269 42//270 
usemtl scene_material
f 1//271 42//272 9//273 
usemtl scene_material
f 45//274 11//275 46//276 
usemtl scene_material
f 10//277 46//278 11//279 
usemtl scene_material
f 30//280 26//281 51//282 
usemtl scene_material
f 50//283 51//284 26//285 
usemtl scene_material
f 35//286 48//287 31//288 
usemtl scene_material
f 49//289 31//290 48//291 
usemtl scene_material
f 28//292 29//293 56//294 
usemtl scene_material
f 57//295 56//296 29//297 
usemtl scene_material
f 33//298 53//299 34//300 
usemtl scene_material
f 54//301 34//302 53//303 
usemtl scene_material
f 39//304 38//305 66//306 
usemtl scene_material
f 65//307 66//308 38//309 
usemtl scene_material
f 72//310 74//311 71//312 
usemtl scene_material
f 73//313 71//314 74//315 
usemtl scene_material
f 36//316 68//317 37//318 
usemtl scene_material
f 67//319 37//320 68//321 
usemtl scene_material
f 69//322 70//323 76//324 
usemtl scene_material
f 75//325 76//326 70//327 
usemtl scene_material
f 14//328 13//329 77//330 
usemtl scene_material
f 78//331 77//332 13//333 
usemtl scene_material
f 16//334 80//335 15//336 
usemtl scene_material
f 79//337 15//338 80//339 
usemtl scene_material
f 13//340 15//341 78//342 
usemtl scene_material
f 79//343 78//344 15//345 
usemtl scene_material
f 7//346 6//347 82//348 
usemtl scene_material
f 83//349 82//350 6//351 
usemtl scene_material
f 6//352 5//353 83//354 
usemtl scene_material
f 84//355 83//356 5//357 
usemtl scene_material
f 7//358 82//359 8//360 
usemtl scene_material
f 81//361 8//362 82//363 
usemtl scene_material
f 5//364 14//365 84//366 
usemtl scene_material
f 77//367 84//368 14//369 
usemtl scene_material
f 8//370 81//371 16//372 
usemtl scene_material
f 80//373 16//374 81//375 
usemtl scene_material
f 101//376 115//377 102//378 
usemtl scene_material
f 102//379 115//380 97//381 
usemtl scene_material
f 97//382 115//383 98//384 
usemtl scene_material
f 98//385 115//386 99//387 
usemtl scene_material
f 99//388 115//389 100//390 
usemtl scene_material
f 100//391 115//392 101//393 
usemtl scene_material
f 122//394 128//395 123//396 
usemtl scene_material
f 123//397 128//398 124//399 
usemtl scene_material
f 124//400 128//401 125//402 
usemtl scene_material
f 125//403 128//404 126//405 
usemtl scene_material
f 126//406 128//407 127//408 
usemtl scene_material
f 127//409 128//410 122//411 
usemtl scene_material
f 145//412 146//413 159//414 
usemtl scene_material
f 146//415 141//416 159//417 
usemtl scene_material
f 141//418 142//419 159//420 
usemtl scene_material
f 142//421 143//422 159//423 
usemtl scene_material
f 143//424 144//425 159//426 
usemtl scene_material
f 144//427 145//428 159//429 
usemtl scene_material
f 166//430 167//431 172//432 
usemtl scene_material
f 167//433 168//434 172//435 
usemtl scene_material
f 168//436 169//437 172//438 
usemtl scene_material
f 169//439 170//440 172//441 
usemtl scene_material
f 170//442 171//443 172//444 
usemtl scene_material
f 171//445 166//446 172//447 
usemtl scene_material
f 87//448 88//449 93//450 
usemtl scene_material
f 94//451 93//452 88//453 
usemtl scene_material
f 131//454 137//455 132//456 
usemtl scene_material
f 138//457 132//458 137//459 
usemtl scene_material
f 90//460 96//461 89//462 
usemtl scene_material
f 95//463 89//464 96//465 
usemtl scene_material
f 134//466 133//467 140//468 
usemtl scene_material
f 139//469 140//470 133//471 
usemtl scene_material
f 86//472 92//473 85//474 
usemtl scene_material
f 91//475 85//476 92//477 
usemtl scene_material
f 130//478 129//479 136//480 
usemtl scene_material
f 135//481 136//482 129//483 
usemtl scene_material
f 88//484 87//485 98//486 
usemtl scene_material
f 97//487 98//488 87//489 
usemtl scene_material
f 132//490 142//491 131//492 
usemtl scene_material
f 141//493 131//494 142//495 
usemtl scene_material
f 89//496 99//497 90//498 
usemtl scene_material
f 100//499 90//500 99//501 
usemtl scene_material
f 133//502 134//503 143//504 
usemtl scene_material
f 144//505 143//506 134//507 
usemtl scene_material
f 85//508 101//509 86//510 
usemtl scene_material
f 102//511 86//512 101//513 
usemtl scene_material
f 129//514 130//515 145//516 
usemtl scene_material
f 146//517 145//518 130//519 
usemtl scene_material
f 117//520 122//521 118//522 
usemtl scene_material
f 123//523 118//524 122//525 
usemtl scene_material
f 161//526 162//527 166//528 
usemtl scene_material
f 167//529 166//530 162//531 
usemtl scene_material
f 120//532 119//533 125//534 
usemtl scene_material
f 124//535 125//536 119//537 
usemtl scene_material
f 164//538 169//539 163//540 
usemtl scene_material
f 168//541 163//542 169//543 
usemtl scene_material
f 121//544 126//545 116//546 
usemtl scene_material
f 127//547 116//548 126//549 
usemtl scene_material
f 165//550 160//551 170//552 
usemtl scene_material
f 171//553 170//554 160//555 
usemtl scene_material
f 105//556 104//557 109//558 
usemtl scene_material
f 114//559 109//560 104//561 
usemtl scene_material
f 149//562 153//563 148//564 
usemtl scene_material
f 158//565 148//566 153//567 
usemtl scene_material
f 88//568 89//569 94//570 
usemtl scene_material
f 95//571 94//572 89//573 
usemtl scene_material
f 132//574 138//575 133//576 
usemtl scene_material
f 139//577 133//578 138//579 
usemtl scene_material
f 85//580 91//581 90//582 
usemtl scene_material
f 96//583 90//584 91//585 
usemtl scene_material
f 129//586 134//587 135//588 
usemtl scene_material
f 140//589 135//590 134//591 
usemtl scene_material
f 86//592 87//593 92//594 
usemtl scene_material
f 93//595 92//596 87//597 
usemtl scene_material
f 130//598 136//599 131//600 
usemtl scene_material
f 137//601 131//602 136//603 
usemtl scene_material
f 89//604 88//605 99//606 
usemtl scene_material
f 98//607 99//608 88//609 
usemtl scene_material
f 133//610 143//611 132//612 
usemtl scene_material
f 142//613 132//614 143//615 
usemtl scene_material
f 90//616 100//617 85//618 
usemtl scene_material
f 101//619 85//620 100//621 
usemtl scene_material
f 134//622 129//623 144//624 
usemtl scene_material
f 145//625 144//626 129//627 
usemtl scene_material
f 86//628 102//629 87//630 
usemtl scene_material
f 97//631 87//632 102//633 
usemtl scene_material
f 130//634 131//635 146//636 
usemtl scene_material
f 141//637 146//638 131//639 
usemtl scene_material
f 118//640 123//641 119//642 
usemtl scene_material
f 124//643 119//644 123//645 
usemtl scene_material
f 162//646 163//647 167//648 
usemtl scene_material
f 168//649 167//650 163//651 
usemtl scene_material
f 121//652 120//653 126//654 
usemtl scene_material
f 125//655 126//656 120//657 
usemtl scene_material
f 165//658 170//659 164//660 
usemtl scene_material
f 169//661 164//662 170//663 
usemtl scene_material
f 116//664 127//665 117//666 
usemtl scene_material
f 122//667 117//668 127//669 
usemtl scene_material
f 160//670 161//671 171//672 
usemtl scene_material
f 166//673 171//674 161//675 
usemtl scene_material
f 104//676 103//677 114//678 
usemtl scene_material
f 113//679 114//680 103//681 
usemtl scene_material
f 148//682 158//683 147//684 
usemtl scene_material
f 157//685 147//686 158//687 
usemtl scene_material
f 103//688 108//689 113//690 
usemtl scene_material
f 112//691 113//692 108//693 
usemtl scene_material
f 147//694 157//695 152//696 
usemtl scene_material
f 156//697 152//698 157//699 
usemtl scene_material
f 107//700 111//701 108//702 
usemtl scene_material
f 112//703 108//704 111//705 
usemtl scene_material
f 151//706 152//707 155//708 
usemtl scene_material
f 156//709 155//710 152//711 
usemtl scene_material
f 106//712 110//713 107//714 
usemtl scene_material
f 111//715 107//716 110//717 
usemtl scene_material
f 150//718 151//719 154//720 
usemtl scene_material
f 155//721 154//722 151//723 
usemtl scene_material
f 105//724 109//725 106//726 
usemtl scene_material
f 110//727 106//728 109//729 
usemtl scene_material
f 149//730 150//731 153//732 
usemtl scene_material
f 154//733 153//734 150//735 
usemtl scene_material
f 176//736 177//737 179//738 
usemtl scene_material
f 177//739 178//740 179//741 
usemtl scene_material
f 178//742 173//743 179//744 
usemtl scene_material
f 173//745 174//746 179//747 
usemtl scene_material
f 174//748 175//749 179//750 
usemtl scene_material
f 175//751 176//752 179//753 
usemtl scene_material
f 183//754 186//755 184//756 
usemtl scene_material
f 184//757 186//758 185//759 
usemtl scene_material
f 185//760 186//761 180//762 
usemtl scene_material
f 180//763 186//764 181//765 
usemtl scene_material
f 181//766 186//767 182//768 
usemtl scene_material
f 182//769 186//770 183//771 
usemtl scene_material
f 214//772 213//773 212//774 
usemtl scene_material
f 208//775 206//776 203//777 
usemtl scene_material
f 225//778 224//779 226//780 
usemtl scene_material
f 225//781 221//782 224//783 
usemtl scene_material
f 222//784 221//785 226//786 
usemtl scene_material
f 215//787 219//788 220//789 
usemtl scene_material
f 215//790 216//791 219//792 
usemtl scene_material
f 212//793 213//794 209//795 
usemtl scene_material
f 208//796 207//797 206//798 
usemtl scene_material
f 214//799 212//800 209//801 
usemtl scene_material
f 206//802 207//803 203//804 
usemtl scene_material
f 216//805 220//806 217//807 
usemtl scene_material
f 238//808 236//809 237//810 
usemtl scene_material
f 232//811 227//812 230//813 
usemtl scene_material
f 249//814 250//815 248//816 
usemtl scene_material
f 249//817 248//818 245//819 
usemtl scene_material
f 246//820 250//821 245//822 
usemtl scene_material
f 239//823 244//824 243//825 
usemtl scene_material
f 239//826 243//827 240//828 
usemtl scene_material
f 236//829 233//830 237//831 
usemtl scene_material
f 232//832 230//833 231//834 
usemtl scene_material
f 238//835 233//836 236//837 
usemtl scene_material
f 230//838 227//839 231//840 
usemtl scene_material
f 240//841 241//842 244//843 
usemtl scene_material
f 193//844 251//845 195//846 
usemtl scene_material
f 194//847 195//848 251//849 
usemtl scene_material
f 200//850 198//851 252//852 
usemtl scene_material
f 199//853 252//854 198//855 
usemtl scene_material
f 192//856 191//857 188//858 
usemtl scene_material
f 202//859 201//860 187//861 
usemtl scene_material
f 199//862 187//863 201//864 
usemtl scene_material
f 201//865 252//866 199//867 
usemtl scene_material
f 194//868 188//869 191//870 
usemtl scene_material
f 188//871 194//872 251//873 
usemtl scene_material
f 190//874 193//875 195//876 
usemtl scene_material
f 197//877 198//878 200//879 
usemtl scene_material
f 192//880 189//881 191//882 
usemtl scene_material
f 196//883 202//884 187//885 
usemtl scene_material
f 196//886 197//887 200//888 
usemtl scene_material
f 196//889 187//890 197//891 
usemtl scene_material
f 190//892 189//893 193//894 
usemtl scene_material
f 189//895 190//896 191//897 
usemtl scene_material
f 220//898 219//899 217//900 
usemtl scene_material
f 218//901 217//902 219//903 
usemtl scene_material
f 244//904 241//905 243//906 
usemtl scene_material
f 242//907 243//908 241//909 
usemtl scene_material
f 226//910 224//911 222//912 
usemtl scene_material
f 223//913 222//914 224//915 
usemtl scene_material
f 250//916 246//917 248//918 
usemtl scene_material
f 247//919 248//920 246//921 
usemtl scene_material
f 213//922 214//923 210//924 
usemtl scene_material
f 211//925 210//926 214//927 
usemtl scene_material
f 237//928 234//929 238//930 
usemtl scene_material
f 235//931 238//932 234//933 
usemtl scene_material
f 213//934 210//935 209//936 
usemtl scene_material
f 211//937 209//938 210//939 
usemtl scene_material
f 237//940 233//941 234//942 
usemtl scene_material
f 235//943 234//944 233//945 
usemtl scene_material
f 207//946 208//947 204//948 
usemtl scene_material
f 205//949 204//950 208//951 
usemtl scene_material
f 231//952 228//953 232//954 
usemtl scene_material
f 229//955 232//956 228//957 
usemtl scene_material
f 216//958 217//959 219//960 
usemtl scene_material
f 218//961 219//962 217//963 
usemtl scene_material
f 240//964 243//965 241//966 
usemtl scene_material
f 242//967 241//968 243//969 
usemtl scene_material
f 221//970 222//971 224//972 
usemtl scene_material
f 223//973 224//974 222//975 
usemtl scene_material
f 245//976 248//977 246//978 
usemtl scene_material
f 247//979 246//980 248//981 
usemtl scene_material
f 207//982 204//983 203//984 
usemtl scene_material
f 205//985 203//986 204//987 
usemtl scene_material
f 231//988 227//989 228//990 
usemtl scene_material
f 229//991 228//992 227//993 
#end 331 faces
