# XSI Wavefront OBJ Export v3.0
# File Created: Wed Jun 10 06:43:43 2009
# XSI Version: 7.5.191.0
mtllib f-16_425triangles.mtl

o f16
# Hierarchy (from self to top father)
g f16

#begin 359 vertices
v -3.734890 3.815220 -3.519550
v -3.646560 3.757630 -3.519610
v -3.672620 3.654100 -3.519620
v -3.777050 3.647710 -3.519580
v -3.815530 3.747290 -3.519530
v -3.734000 3.814660 -1.547050
v -3.645680 3.757060 -1.547110
v -3.671740 3.653540 -1.547120
v -3.776170 3.647150 -1.547080
v -3.814650 3.746730 -1.547030
v -3.728280 3.723720 -1.174580
v 3.734890 3.815220 -3.519550
v 3.646560 3.757630 -3.519610
v 3.672620 3.654100 -3.519620
v 3.777050 3.647710 -3.519580
v 3.815530 3.747290 -3.519530
v 3.734000 3.814660 -1.547050
v 3.645680 3.757060 -1.547110
v 3.671740 3.653540 -1.547120
v 3.776170 3.647150 -1.547080
v 3.814650 3.746730 -1.547030
v 3.728280 3.723720 -1.174580
v 0.000000 3.158070 -2.787140
v -0.084111 3.112800 -2.726990
v 0.072600 3.111490 -2.717520
v 0.061007 3.157770 -2.721630
v -0.060906 3.157630 -2.721550
v -0.216089 3.047850 -2.289790
v 0.197556 3.047400 -2.286160
v 0.146291 3.135190 -2.289410
v -0.155616 3.144630 -2.290880
v -0.259786 3.037620 0.118535
v 0.241416 3.037100 0.114866
v 0.158301 3.134430 0.111692
v -0.163917 3.140190 0.113233
v -0.082746 3.036470 0.547546
v 0.075258 3.036240 0.541115
v 0.055030 3.071720 0.542239
v -0.057747 3.075160 0.545509
v 0.000000 3.036130 0.597785
v 0.209857 3.167090 -1.090010
v 0.307032 3.037560 -1.090050
v -0.326217 3.037770 -1.090050
v -0.219675 3.172670 -1.089970
v 0.000000 3.083500 0.540141
v 0.056506 3.087980 -2.716020
v 0.165735 2.981000 -2.288120
v 0.182958 2.946220 0.113298
v 0.240179 2.928230 -1.090020
v 0.061652 3.004730 0.542491
v -0.190456 2.936830 0.115127
v -0.247703 2.918710 -1.090070
v -0.070621 2.994020 0.552974
v -0.068451 3.074500 -2.734080
v -0.174289 2.970080 -2.291060
v 0.000000 2.979520 0.547540
v 0.000000 3.059830 -2.731970
v 0.000142 2.917180 -2.293180
v 0.000086 2.857210 -1.090040
v 0.000112 2.890940 0.113941
v -2.197480 3.365730 -2.955000
v -2.123230 3.439980 -2.955000
v -2.052520 3.369270 -2.955000
v -2.126770 3.295020 -2.955000
v -2.197480 3.365730 -0.890000
v -2.123230 3.439980 -0.890000
v -2.052520 3.369270 -0.890000
v -2.126770 3.295020 -0.890000
v -2.125000 3.367500 -0.777000
v 2.197480 3.365730 -2.955000
v 2.123230 3.439980 -2.955000
v 2.052520 3.369270 -2.955000
v 2.126770 3.295020 -2.955000
v 2.197480 3.365730 -0.890000
v 2.123230 3.439980 -0.890000
v 2.052520 3.369270 -0.890000
v 2.126770 3.295020 -0.890000
v 2.125000 3.367500 -0.777000
v -0.680000 3.794000 -4.550000
v -0.743000 3.896500 -1.539340
v -0.730000 3.870000 0.930000
v -0.395309 4.176790 -1.229200
v -0.370000 4.094000 -4.550000
v -0.485710 4.171550 1.226830
v 0.000000 4.338660 -0.564475
v 0.000000 4.209000 -4.550000
v 0.000000 4.470082 0.843730
v -0.535000 3.795000 -4.550000
v 0.000000 4.019000 -6.140000
v -0.200000 3.980000 -6.140000
v -0.361504 3.737760 -6.140000
v 0.000000 3.685000 5.604700
v -0.205000 3.915000 4.745000
v -0.384290 4.118450 3.283170
v -0.002200 4.268644 3.755172
v 0.000000 4.032900 4.743840
v -0.311874 4.225555 3.168891
v -0.377710 4.306123 1.477711
v 0.000000 4.738300 1.995160
v 0.000000 4.680000 2.810000
v 0.000000 4.545000 3.245000
v -0.225000 4.520000 2.910000
v -0.225000 4.593890 1.912730
v -0.680000 3.623830 -4.550000
v -0.305500 3.498150 -1.540000
v -0.294774 3.543580 1.554560
v -1.090000 3.715000 0.494981
v -1.100000 3.712480 -5.580000
v -0.682000 3.712850 -5.556000
v -0.260000 3.615000 3.595000
v -0.527058 3.703300 3.606990
v -0.154354 3.630230 4.744570
v -0.254536 3.698670 4.743930
v 0.000000 3.510850 1.520000
v 0.000000 3.535000 3.590000
v 0.000000 3.580000 4.743800
v 0.000000 3.383590 -6.140000
v 1.093650 3.712310 -0.014740
v 0.831951 3.802830 -2.136960
v -0.295000 3.520000 -6.140000
v -1.110000 3.723460 -4.530000
v -1.105140 3.706390 -1.618380
v 0.680000 3.794000 -4.550000
v 0.743000 3.896500 -1.539340
v 0.730000 3.870000 0.930000
v 0.395309 4.176790 -1.229200
v 0.370000 4.094000 -4.550000
v 0.485710 4.171550 1.226830
v 0.535000 3.795000 -4.550000
v 0.200000 3.980000 -6.140000
v 0.361504 3.737760 -6.140000
v 0.205000 3.915000 4.745000
v 0.384290 4.118450 3.283170
v 0.311879 4.225358 3.168757
v 0.377710 4.306123 1.477711
v 0.225000 4.520000 2.910000
v 0.225000 4.593890 1.912730
v 0.680000 3.623830 -4.550000
v 0.305500 3.498150 -1.540000
v 0.294774 3.543580 1.554560
v 1.090000 3.715000 0.494981
v 1.100000 3.712480 -5.580000
v 0.682000 3.712850 -5.556000
v 0.260000 3.615000 3.595000
v 0.527058 3.703300 3.606990
v 0.154354 3.630230 4.744570
v 0.254536 3.698670 4.743930
v 0.833641 3.766860 -0.569335
v 0.295000 3.520000 -6.140000
v 1.110000 3.723460 -4.530000
v 1.105140 3.706390 -1.618380
v 0.490000 3.643830 -4.550000
v 3.697550 3.704670 -2.045110
v 0.000000 3.734760 -4.020000
v -2.345440 3.589790 -1.935800
v -1.878870 3.610950 -1.965040
v -1.889000 3.125950 -1.935820
v -2.366190 3.123490 -1.965010
v -2.370330 3.127620 -1.991410
v -2.348860 3.585900 -1.986910
v -1.878860 3.610960 -1.991440
v -1.885350 3.129580 -1.986920
v -3.681670 3.677060 -1.782130
v -3.681670 3.677060 -1.627520
v -3.681290 3.772690 -1.782130
v -3.777290 3.677440 -1.782130
v -3.915140 3.911290 -1.782130
v -3.776920 3.773060 -1.782130
v -3.681670 3.677060 -1.782130
v -3.681290 3.772690 -1.782130
v -3.777290 3.677440 -1.782130
v -3.915140 3.911290 -1.782130
v -3.776920 3.773060 -1.782130
v -3.543450 3.538840 -1.782130
v -3.681670 3.677060 -1.627520
v -3.915520 3.539220 -1.782130
v -3.777290 3.677440 -1.627520
v -3.681290 3.772690 -1.627520
v -3.543070 3.910910 -1.782130
v -3.776920 3.773060 -1.627520
v -3.961800 3.492750 -3.263600
v -3.961800 3.492750 -3.092130
v -3.786590 3.667960 -3.310120
v -3.786590 3.667960 -3.045610
v -3.961800 3.492750 -3.263600
v -3.961800 3.492750 -3.092130
v -3.786590 3.667960 -3.310120
v -3.786590 3.667960 -3.045610
v -3.672270 3.667960 -3.310120
v -3.672270 3.667960 -3.045610
v -3.497070 3.492750 -3.263600
v -3.497070 3.492750 -3.092130
v -3.497070 3.957490 -3.092130
v -3.672270 3.782280 -3.310120
v -3.672270 3.782280 -3.045610
v -3.497070 3.957490 -3.263600
v -3.786590 3.782280 -3.045610
v -3.961800 3.957490 -3.263600
v -3.961800 3.957490 -3.092130
v -3.786590 3.782280 -3.310120
v -2.093900 3.332630 -2.954670
v -2.093900 3.332650 -2.664390
v -1.889040 3.125930 -2.955010
v -2.096610 3.396900 -2.664390
v -1.887830 3.610190 -2.954960
v -2.096600 3.396880 -2.954670
v -2.160890 3.399370 -2.954670
v -2.349150 3.585360 -2.954890
v -2.160900 3.399390 -2.664390
v -2.359340 3.130650 -2.954950
v -2.158100 3.335040 -2.664390
v -2.158090 3.335020 -2.954680
v -2.160850 3.399340 -1.991270
v -2.160940 3.399430 -1.674050
v -2.093870 3.332610 -1.674050
v -2.096580 3.396930 -1.674050
v -2.158140 3.335010 -1.674050
v -2.093940 3.332680 -1.991270
v -2.158060 3.335070 -1.991270
v -2.096640 3.396850 -1.991270
v 2.345440 3.589790 -1.935800
v 1.878870 3.610950 -1.965040
v 1.889000 3.125950 -1.935820
v 2.366190 3.123490 -1.965010
v 2.370330 3.127620 -1.991410
v 2.348860 3.585900 -1.986910
v 1.878860 3.610960 -1.991440
v 1.885350 3.129580 -1.986920
v 3.681670 3.677060 -1.782130
v 3.681670 3.677060 -1.627520
v 3.681290 3.772690 -1.782130
v 3.777290 3.677440 -1.782130
v 3.915140 3.911290 -1.782130
v 3.776920 3.773060 -1.782130
v 3.681670 3.677060 -1.782130
v 3.681290 3.772690 -1.782130
v 3.777290 3.677440 -1.782130
v 3.915140 3.911290 -1.782130
v 3.776920 3.773060 -1.782130
v 3.543450 3.538840 -1.782130
v 3.681670 3.677060 -1.627520
v 3.915520 3.539220 -1.782130
v 3.777290 3.677440 -1.627520
v 3.681290 3.772690 -1.627520
v 3.543070 3.910910 -1.782130
v 3.776920 3.773060 -1.627520
v 3.961800 3.492750 -3.263600
v 3.961800 3.492750 -3.092130
v 3.786590 3.667960 -3.310120
v 3.786590 3.667960 -3.045610
v 3.961800 3.492750 -3.263600
v 3.961800 3.492750 -3.092130
v 3.786590 3.667960 -3.310120
v 3.786590 3.667960 -3.045610
v 3.672270 3.667960 -3.310120
v 3.672270 3.667960 -3.045610
v 3.497070 3.492750 -3.263600
v 3.497070 3.492750 -3.092130
v 3.497070 3.957490 -3.092130
v 3.672270 3.782280 -3.310120
v 3.672270 3.782280 -3.045610
v 3.497070 3.957490 -3.263600
v 3.786590 3.782280 -3.045610
v 3.961800 3.957490 -3.263600
v 3.961800 3.957490 -3.092130
v 3.786590 3.782280 -3.310120
v 2.093900 3.332630 -2.954670
v 2.093900 3.332650 -2.664390
v 1.889040 3.125930 -2.955010
v 2.096610 3.396900 -2.664390
v 1.887830 3.610190 -2.954960
v 2.096600 3.396880 -2.954670
v 2.160890 3.399370 -2.954670
v 2.349150 3.585360 -2.954890
v 2.160900 3.399390 -2.664390
v 2.359340 3.130650 -2.954950
v 2.158100 3.335040 -2.664390
v 2.158090 3.335020 -2.954680
v 2.160850 3.399340 -1.991270
v 2.160940 3.399430 -1.674050
v 2.093870 3.332610 -1.674050
v 2.096580 3.396930 -1.674050
v 2.158140 3.335010 -1.674050
v 2.093940 3.332680 -1.991270
v 2.158060 3.335070 -1.991270
v 2.096640 3.396850 -1.991270
v 0.000000 3.219360 -4.550000
v -0.429250 3.406000 -4.550000
v 0.429250 3.406000 -4.550000
v -0.383780 3.206830 0.081429
v -0.498790 3.406830 0.079384
v 0.000000 3.111940 -2.201780
v -0.366190 3.233170 -2.201050
v -0.481190 3.433170 -2.203090
v -0.383810 3.223980 2.371040
v -0.498810 3.423960 2.405090
v 0.000000 3.120730 2.370580
v -0.393768 3.528660 2.520400
v -0.393753 3.511530 0.080694
v -0.379937 3.537870 -2.201780
v 0.383780 3.206830 0.081429
v 0.498790 3.406830 0.079384
v 0.366190 3.233170 -2.201050
v 0.481190 3.433170 -2.203090
v 0.383810 3.223980 2.371040
v 0.498810 3.423960 2.405090
v 0.393768 3.528660 2.520400
v 0.393753 3.511530 0.080694
v 1.093620 3.667700 -3.006950
v 0.490000 3.643830 -4.550000
v 3.696900 3.711180 -2.328020
v -0.490000 3.643830 -4.550000
v 0.379937 3.537870 -2.201780
v 0.000000 3.111950 0.080694
v 0.000000 3.353420 1.191380
v 0.000709 6.524790 -5.104050
v -0.000051 4.477255 -2.690035
v 0.000709 6.524790 -6.118780
v -0.096851 4.259705 -4.560210
v -0.000056 4.483540 -5.350280
v -0.137201 4.154540 -4.571160
v -0.103031 4.187000 -3.495520
v -0.000051 4.279205 -2.060710
v 0.102919 4.187000 -3.495520
v 0.137089 4.154540 -4.571160
v 0.096739 4.259705 -4.560210
v 0.001289 4.637130 -5.351320
v -0.000056 4.483540 -5.350280
v -0.000056 4.329950 -5.349240
v -0.001291 6.524790 -5.104050
v -0.000056 4.329950 -5.349240
v -0.001291 6.524790 -6.118780
v -0.000711 4.637130 -5.351320
v -2.273850 3.599140 -5.168630
v -2.273770 3.583770 -4.995340
v -0.913141 3.753090 -4.011220
v -1.093300 3.694280 -3.476730
v -2.274290 3.582990 -5.674640
v -0.913581 3.723540 -5.572960
v 2.273850 3.599140 -5.168630
v 2.273770 3.583770 -4.995340
v 0.913141 3.753090 -4.011220
v 1.093300 3.694280 -3.476730
v 2.274290 3.582990 -5.674640
v 0.913581 3.723540 -5.572960
v -3.696350 3.698930 -2.841030
v -3.697530 3.694320 -3.046410
v -3.696900 3.711180 -2.328020
v -3.697550 3.704670 -2.045110
v -1.093620 3.667700 -3.006950
v -0.831951 3.802830 -2.136960
v -1.093650 3.712310 -0.014740
v -0.833641 3.766860 -0.569335
v 3.696350 3.698930 -2.841030
v 3.697530 3.694320 -3.046410
v -0.000051 4.477255 -2.690035
v -0.000706 4.675305 -3.319360
v 0.001294 4.675305 -3.319360
v -0.000051 4.279205 -2.060710
#end 359 vertices

#begin 1275 normals
vn -0.874197 0.476212 -0.094881
vn -0.589256 0.798601 -0.122532
vn 0.589256 0.798601 -0.122532
vn 0.874197 0.476212 -0.094881
vn 0.000000 -0.006771 -0.999977
vn 0.087060 0.991628 0.095363
vn 0.969392 0.227240 0.092960
vn 0.821533 0.570161 -0.000205
vn -0.299203 0.954190 0.000405
vn 0.969392 0.227240 0.092960
vn 0.517349 -0.850601 0.093957
vn 0.802702 -0.596380 -0.000528
vn 0.821533 0.570161 -0.000205
vn 0.517349 -0.850601 0.093957
vn -0.654090 -0.750489 0.094511
vn -0.325262 -0.945624 -0.000123
vn 0.802702 -0.596380 -0.000528
vn -0.654090 -0.750489 0.094511
vn -0.919405 0.381951 0.093854
vn -0.999847 0.017493 0.000451
vn -0.325262 -0.945624 -0.000123
vn -0.919405 0.381951 0.093854
vn 0.087060 0.991628 0.095363
vn -0.299203 0.954190 0.000405
vn -0.999847 0.017493 0.000451
vn 0.000553 -0.000518 1.000000
vn 0.969392 0.227240 0.092960
vn 0.087060 0.991628 0.095363
vn 0.000553 -0.000518 1.000000
vn 0.517349 -0.850601 0.093957
vn 0.969392 0.227240 0.092960
vn 0.000553 -0.000518 1.000000
vn -0.654090 -0.750489 0.094511
vn 0.517349 -0.850601 0.093957
vn 0.000553 -0.000518 1.000000
vn -0.919405 0.381951 0.093854
vn -0.654090 -0.750489 0.094511
vn 0.000553 -0.000518 1.000000
vn 0.087060 0.991628 0.095363
vn -0.919405 0.381951 0.093854
vn -0.000000 -0.006771 -0.999977
vn 0.000000 0.953880 0.300188
vn -0.000000 0.953880 0.300188
vn 0.058068 0.995804 0.070724
vn 0.034576 0.999133 0.023176
vn -0.087060 0.991628 0.095363
vn 0.299203 0.954190 0.000405
vn -0.821533 0.570161 -0.000205
vn -0.969392 0.227240 0.092960
vn -0.969392 0.227240 0.092960
vn -0.821533 0.570161 -0.000205
vn -0.802702 -0.596380 -0.000528
vn -0.517349 -0.850601 0.093957
vn -0.517349 -0.850601 0.093957
vn -0.802702 -0.596380 -0.000528
vn 0.325262 -0.945624 -0.000123
vn 0.654090 -0.750489 0.094511
vn 0.654090 -0.750489 0.094511
vn 0.325262 -0.945624 -0.000123
vn 0.999847 0.017493 0.000451
vn 0.919405 0.381951 0.093854
vn 0.919405 0.381951 0.093854
vn 0.999847 0.017493 0.000451
vn 0.299203 0.954190 0.000405
vn -0.087060 0.991628 0.095363
vn -0.000553 -0.000518 1.000000
vn -0.087060 0.991628 0.095363
vn -0.969392 0.227240 0.092960
vn -0.000553 -0.000518 1.000000
vn -0.969392 0.227240 0.092960
vn -0.517349 -0.850601 0.093957
vn -0.000553 -0.000518 1.000000
vn -0.517349 -0.850601 0.093957
vn 0.654090 -0.750489 0.094511
vn -0.000553 -0.000518 1.000000
vn 0.654090 -0.750489 0.094511
vn 0.919405 0.381951 0.093854
vn -0.000553 -0.000518 1.000000
vn 0.919405 0.381951 0.093854
vn -0.087060 0.991628 0.095363
vn 0.080739 0.107925 0.990875
vn 0.565789 0.560344 0.604894
vn 0.043856 0.771854 0.634285
vn 0.080739 0.107925 0.990875
vn 0.043856 0.771854 0.634285
vn -0.489442 0.606998 0.626100
vn -0.788649 0.614802 -0.007236
vn -0.851044 0.507044 -0.136492
vn -0.987540 0.039927 -0.152220
vn -0.998913 0.042942 -0.018144
vn 0.807690 0.589549 -0.008343
vn 0.998701 0.047581 -0.018237
vn 0.987916 0.046185 -0.147946
vn 0.901335 0.410430 -0.138355
vn -0.788649 0.614802 -0.007236
vn -0.998913 0.042942 -0.018144
vn -0.983584 0.064246 0.168625
vn -0.747174 0.631467 0.207316
vn 0.807690 0.589549 -0.008343
vn 0.782404 0.588626 0.203382
vn 0.984993 0.061280 0.161352
vn 0.998701 0.047581 -0.018237
vn 0.080739 0.107925 0.990875
vn 0.850791 0.057228 0.522379
vn 0.565789 0.560344 0.604894
vn 0.782404 0.588626 0.203382
vn 0.565789 0.560344 0.604894
vn 0.850791 0.057228 0.522379
vn 0.984993 0.061280 0.161352
vn -0.747174 0.631467 0.207316
vn -0.983584 0.064246 0.168625
vn -0.821599 0.143847 0.551618
vn -0.489442 0.606998 0.626100
vn 0.080739 0.107925 0.990875
vn -0.489442 0.606998 0.626100
vn -0.821599 0.143847 0.551618
vn 0.078381 -0.182592 -0.980060
vn -0.883356 0.109151 -0.455816
vn -0.789510 0.458202 -0.408318
vn -0.851044 0.507044 -0.136492
vn -0.789510 0.458202 -0.408318
vn -0.883356 0.109151 -0.455816
vn -0.987540 0.039927 -0.152220
vn 0.078381 -0.182592 -0.980060
vn 0.877451 0.180332 -0.444477
vn 0.881517 -0.094774 -0.462544
vn 0.901335 0.410430 -0.138355
vn 0.987916 0.046185 -0.147946
vn 0.881517 -0.094774 -0.462544
vn 0.877451 0.180332 -0.444477
vn 0.714279 -0.699658 -0.016862
vn 0.633377 -0.746526 -0.203796
vn 0.987916 0.046185 -0.147946
vn 0.998701 0.047581 -0.018237
vn 0.714279 -0.699658 -0.016862
vn 0.998701 0.047581 -0.018237
vn 0.984993 0.061280 0.161352
vn 0.610683 -0.774205 0.166350
vn 0.080739 0.107925 0.990875
vn 0.546777 -0.681641 0.486210
vn 0.850791 0.057228 0.522379
vn 0.610683 -0.774205 0.166350
vn 0.984993 0.061280 0.161352
vn 0.850791 0.057228 0.522379
vn 0.546777 -0.681641 0.486210
vn 0.633377 -0.746526 -0.203796
vn 0.540692 -0.656700 -0.525735
vn 0.881517 -0.094774 -0.462544
vn 0.987916 0.046185 -0.147946
vn 0.078381 -0.182592 -0.980060
vn 0.881517 -0.094774 -0.462544
vn 0.540692 -0.656700 -0.525735
vn -0.686405 -0.727036 -0.016345
vn -0.998913 0.042942 -0.018144
vn -0.987540 0.039927 -0.152220
vn -0.631715 -0.749762 -0.196960
vn -0.686405 -0.727036 -0.016345
vn -0.598097 -0.784256 0.164990
vn -0.983584 0.064246 0.168625
vn -0.998913 0.042942 -0.018144
vn -0.598097 -0.784256 0.164990
vn -0.470075 -0.690448 0.549829
vn -0.821599 0.143847 0.551618
vn -0.983584 0.064246 0.168625
vn 0.080739 0.107925 0.990875
vn -0.821599 0.143847 0.551618
vn -0.470075 -0.690448 0.549829
vn 0.078381 -0.182592 -0.980060
vn -0.471813 -0.640997 -0.605404
vn -0.883356 0.109151 -0.455816
vn -0.631715 -0.749762 -0.196960
vn -0.987540 0.039927 -0.152220
vn -0.883356 0.109151 -0.455816
vn -0.471813 -0.640997 -0.605404
vn 0.027485 -0.999534 -0.013304
vn 0.077917 -0.971309 -0.224695
vn 0.633377 -0.746526 -0.203796
vn 0.714279 -0.699658 -0.016862
vn 0.027485 -0.999534 -0.013304
vn 0.714279 -0.699658 -0.016862
vn 0.610683 -0.774205 0.166350
vn 0.054311 -0.988038 0.144329
vn 0.080739 0.107925 0.990875
vn 0.119386 -0.858313 0.499044
vn 0.546777 -0.681641 0.486210
vn 0.077917 -0.971309 -0.224695
vn 0.185945 -0.757152 -0.626215
vn 0.540692 -0.656700 -0.525735
vn 0.633377 -0.746526 -0.203796
vn 0.078381 -0.182592 -0.980060
vn 0.540692 -0.656700 -0.525735
vn 0.185945 -0.757152 -0.626215
vn 0.054311 -0.988038 0.144329
vn 0.610683 -0.774205 0.166350
vn 0.546777 -0.681641 0.486210
vn 0.119386 -0.858313 0.499044
vn 0.027485 -0.999534 -0.013304
vn -0.686405 -0.727036 -0.016345
vn -0.631715 -0.749762 -0.196960
vn 0.077917 -0.971309 -0.224695
vn 0.027485 -0.999534 -0.013304
vn 0.054311 -0.988038 0.144329
vn -0.598097 -0.784256 0.164990
vn -0.686405 -0.727036 -0.016345
vn 0.054311 -0.988038 0.144329
vn 0.119386 -0.858313 0.499044
vn -0.470075 -0.690448 0.549829
vn -0.598097 -0.784256 0.164990
vn 0.080739 0.107925 0.990875
vn -0.470075 -0.690448 0.549829
vn 0.119386 -0.858313 0.499044
vn 0.077917 -0.971309 -0.224695
vn -0.631715 -0.749762 -0.196960
vn -0.471813 -0.640997 -0.605404
vn 0.185945 -0.757152 -0.626215
vn 0.078381 -0.182592 -0.980060
vn 0.185945 -0.757152 -0.626215
vn -0.471813 -0.640997 -0.605404
vn -0.010561 0.999691 -0.022500
vn 0.008529 0.998973 -0.044502
vn 0.019994 0.997627 -0.065878
vn -0.006311 0.996058 -0.088484
vn -0.952435 0.199043 0.230759
vn 0.196162 0.952999 0.230896
vn -0.316228 0.948683 0.000000
vn -0.948683 -0.316228 0.000000
vn 0.196162 0.952999 0.230896
vn 0.952435 -0.199043 0.230759
vn 0.948683 0.316228 0.000000
vn -0.316228 0.948683 0.000000
vn 0.952435 -0.199043 0.230759
vn -0.196162 -0.952999 0.230896
vn 0.316228 -0.948683 0.000000
vn 0.948683 0.316228 0.000000
vn -0.196162 -0.952999 0.230896
vn -0.952435 0.199043 0.230759
vn -0.948683 -0.316228 0.000000
vn 0.316228 -0.948683 0.000000
vn -0.196162 -0.952999 0.230896
vn 0.952435 -0.199043 0.230759
vn 0.000000 0.000000 1.000000
vn 0.952435 -0.199043 0.230759
vn 0.196162 0.952999 0.230896
vn 0.000000 0.000000 1.000000
vn 0.196162 0.952999 0.230896
vn -0.952435 0.199043 0.230759
vn 0.000000 0.000000 1.000000
vn -0.952435 0.199043 0.230759
vn -0.196162 -0.952999 0.230896
vn 0.000000 0.000000 1.000000
vn 0.019994 0.997627 -0.065878
vn 0.008529 0.998973 -0.044502
vn 0.019147 0.999817 -0.000481
vn 0.034576 0.999133 0.023176
vn 0.952435 0.199043 0.230759
vn 0.948683 -0.316228 0.000000
vn 0.316228 0.948683 0.000000
vn -0.196162 0.952999 0.230896
vn -0.196162 0.952999 0.230896
vn 0.316228 0.948683 0.000000
vn -0.948683 0.316228 0.000000
vn -0.952435 -0.199043 0.230759
vn -0.952435 -0.199043 0.230759
vn -0.948683 0.316228 0.000000
vn -0.316228 -0.948683 0.000000
vn 0.196162 -0.952999 0.230896
vn 0.196162 -0.952999 0.230896
vn -0.316228 -0.948683 0.000000
vn 0.948683 -0.316228 0.000000
vn 0.952435 0.199043 0.230759
vn 0.196162 -0.952999 0.230896
vn 0.000000 0.000000 1.000000
vn -0.952435 -0.199043 0.230759
vn -0.952435 -0.199043 0.230759
vn 0.000000 0.000000 1.000000
vn -0.196162 0.952999 0.230896
vn -0.196162 0.952999 0.230896
vn 0.000000 0.000000 1.000000
vn 0.952435 0.199043 0.230759
vn 0.952435 0.199043 0.230759
vn 0.000000 0.000000 1.000000
vn 0.196162 -0.952999 0.230896
vn -0.592083 0.805334 -0.029582
vn -0.000000 0.998434 -0.055943
vn 0.000000 0.997460 -0.071227
vn -0.629924 0.773193 -0.073268
vn -0.592083 0.805334 -0.029582
vn -0.629924 0.773193 -0.073268
vn -0.874197 0.476212 -0.094881
vn -0.437116 0.899177 -0.020241
vn -0.159396 0.986678 -0.032539
vn -0.437116 0.899177 -0.020241
vn -0.874197 0.476212 -0.094881
vn 0.000000 0.997460 -0.071227
vn 0.000000 0.992936 -0.118653
vn -0.589256 0.798601 -0.122532
vn -0.629924 0.773193 -0.073268
vn -0.629924 0.773193 -0.073268
vn -0.589256 0.798601 -0.122532
vn -0.983169 0.143978 -0.112464
vn -0.874197 0.476212 -0.094881
vn -0.799457 0.544088 0.254632
vn 0.000000 0.860415 0.509594
vn -0.001208 0.962165 0.272465
vn -0.691068 0.721640 0.040752
vn -0.791168 0.611162 0.023125
vn -0.592083 0.805334 -0.029582
vn -0.437116 0.899177 -0.020241
vn -0.791168 0.611162 0.023125
vn -0.746864 0.647670 0.150720
vn -0.761909 0.633951 0.132668
vn -0.623395 0.781552 -0.023563
vn -0.000000 0.998434 -0.055943
vn 0.592083 0.805334 -0.029582
vn 0.791065 0.611295 0.023137
vn 0.623413 0.781538 -0.023547
vn -0.691068 0.721640 0.040752
vn -0.850859 0.502586 0.153124
vn -0.746864 0.647670 0.150720
vn -0.791168 0.611162 0.023125
vn -0.746864 0.647670 0.150720
vn -0.850859 0.502586 0.153124
vn -0.942977 0.214668 0.254384
vn -0.799457 0.544088 0.254632
vn -0.242934 -0.969586 0.029753
vn 0.000000 -0.999932 0.011666
vn 0.000000 -0.999549 0.030039
vn -0.348928 -0.935901 0.048358
vn 0.000000 0.860415 0.509594
vn -0.799457 0.544088 0.254632
vn -0.942977 0.214668 0.254384
vn -0.348928 -0.935901 0.048358
vn -0.439180 -0.893490 0.093786
vn -0.481903 -0.870946 0.096029
vn -0.296591 -0.953628 0.051267
vn -0.348928 -0.935901 0.048358
vn 0.000000 -0.999549 0.030039
vn 0.000000 -0.997704 0.067723
vn -0.439180 -0.893490 0.093786
vn 0.000000 -0.997704 0.067723
vn 0.000000 -0.988665 0.150138
vn -0.439180 -0.893490 0.093786
vn -0.481903 -0.870946 0.096029
vn -0.439180 -0.893490 0.093786
vn 0.000000 -0.988665 0.150138
vn -0.746864 0.647670 0.150720
vn -0.799457 0.544088 0.254632
vn -0.001208 0.962165 0.272465
vn -0.002996 0.955501 0.294971
vn -0.746864 0.647670 0.150720
vn -0.002996 0.955501 0.294971
vn -0.761909 0.633951 0.132668
vn 0.000199 0.858218 0.513286
vn 0.001100 0.923831 0.382799
vn -0.721501 0.668981 0.178607
vn -0.871257 0.442956 0.211428
vn 0.000199 0.858218 0.513286
vn -0.721501 0.668981 0.178607
vn 0.000000 0.982097 0.188374
vn -0.721501 0.668981 0.178607
vn 0.001100 0.923831 0.382799
vn 0.623413 0.781538 -0.023547
vn 0.000000 0.995673 -0.092922
vn 0.592083 0.805334 -0.029582
vn -0.865659 0.498337 -0.047911
vn -0.871257 0.442956 0.211428
vn -0.721501 0.668981 0.178607
vn -0.677753 0.730289 -0.085605
vn -0.721501 0.668981 0.178607
vn 0.000000 0.982097 0.188374
vn 0.000000 0.999507 -0.031404
vn -0.677753 0.730289 -0.085605
vn -0.865659 0.498337 -0.047911
vn -0.677753 0.730289 -0.085605
vn 0.000000 0.964886 -0.262671
vn -0.242934 -0.969586 0.029753
vn -0.348928 -0.935901 0.048358
vn -0.296591 -0.953628 0.051267
vn -0.249883 -0.968030 0.021847
vn -0.691068 0.721640 0.040752
vn -0.452949 0.890878 0.034243
vn -0.850859 0.502586 0.153124
vn -0.750786 -0.651963 -0.106131
vn 0.000000 -0.994708 -0.102743
vn -0.048708 -0.995463 -0.081733
vn -0.757199 -0.649548 -0.068827
vn 0.003735 0.996755 -0.080412
vn -0.079660 0.995745 -0.046326
vn -0.162014 0.986784 -0.002905
vn -0.159396 0.986678 -0.032539
vn 0.005943 -0.996089 -0.088155
vn -0.119759 -0.992345 -0.030159
vn -0.225658 -0.974206 0.001354
vn -0.110584 -0.993046 -0.040377
vn -0.437116 0.899177 -0.020241
vn -0.365478 0.930749 -0.011477
vn -0.452949 0.890878 0.034243
vn -0.691068 0.721640 0.040752
vn -0.159158 -0.987194 -0.010829
vn -0.242934 -0.969586 0.029753
vn -0.249883 -0.968030 0.021847
vn -0.243240 -0.969962 -0.002916
vn -0.159396 0.986678 -0.032539
vn -0.162014 0.986784 -0.002905
vn -0.365478 0.930749 -0.011477
vn -0.437116 0.899177 -0.020241
vn -0.119759 -0.992345 -0.030159
vn -0.159158 -0.987194 -0.010829
vn -0.243240 -0.969962 -0.002916
vn -0.225658 -0.974206 0.001354
vn 0.592083 0.805334 -0.029582
vn 0.629924 0.773193 -0.073268
vn 0.000000 0.997460 -0.071227
vn -0.000000 0.998434 -0.055943
vn 0.592083 0.805334 -0.029582
vn 0.437116 0.899177 -0.020241
vn 0.874197 0.476212 -0.094881
vn 0.629924 0.773193 -0.073268
vn 0.159396 0.986678 -0.032539
vn 0.874197 0.476212 -0.094881
vn 0.437116 0.899177 -0.020241
vn 0.000000 0.997460 -0.071227
vn 0.629924 0.773193 -0.073268
vn 0.589256 0.798601 -0.122532
vn 0.000000 0.992936 -0.118653
vn 0.629924 0.773193 -0.073268
vn 0.874197 0.476212 -0.094881
vn 0.983169 0.143978 -0.112464
vn 0.589256 0.798601 -0.122532
vn 0.799457 0.544088 0.254632
vn -0.001208 0.962165 0.272465
vn 0.000000 0.860415 0.509594
vn 0.691068 0.721640 0.040752
vn 0.437116 0.899177 -0.020241
vn 0.592083 0.805334 -0.029582
vn 0.791065 0.611295 0.023137
vn 0.791065 0.611295 0.023137
vn 0.623413 0.781538 -0.023547
vn 0.760836 0.635051 0.133560
vn 0.745661 0.649004 0.150939
vn -0.000000 0.998434 -0.055943
vn 0.000000 0.995673 -0.092922
vn -0.592083 0.805334 -0.029582
vn -0.623395 0.781552 -0.023563
vn 0.691068 0.721640 0.040752
vn 0.791065 0.611295 0.023137
vn 0.745661 0.649004 0.150939
vn 0.850859 0.502586 0.153124
vn 0.745661 0.649004 0.150939
vn 0.799457 0.544088 0.254632
vn 0.942977 0.214668 0.254384
vn 0.850859 0.502586 0.153124
vn 0.242934 -0.969586 0.029753
vn 0.348928 -0.935901 0.048358
vn 0.000000 -0.999549 0.030039
vn 0.000000 -0.999932 0.011666
vn 0.000000 0.860415 0.509594
vn 0.942977 0.214668 0.254384
vn 0.799457 0.544088 0.254632
vn 0.348928 -0.935901 0.048358
vn 0.296591 -0.953628 0.051267
vn 0.481903 -0.870946 0.096029
vn 0.439180 -0.893490 0.093786
vn 0.348928 -0.935901 0.048358
vn 0.439180 -0.893490 0.093786
vn 0.000000 -0.997704 0.067723
vn 0.000000 -0.999549 0.030039
vn 0.000000 -0.997704 0.067723
vn 0.439180 -0.893490 0.093786
vn 0.000000 -0.988665 0.150138
vn 0.481903 -0.870946 0.096029
vn 0.000000 -0.988665 0.150138
vn 0.439180 -0.893490 0.093786
vn 0.745661 0.649004 0.150939
vn -0.002996 0.955501 0.294971
vn -0.001208 0.962165 0.272465
vn 0.799457 0.544088 0.254632
vn 0.745661 0.649004 0.150939
vn 0.760836 0.635051 0.133560
vn -0.002996 0.955501 0.294971
vn 0.000199 0.858218 0.513286
vn 0.721652 0.668554 0.179592
vn 0.001100 0.923831 0.382799
vn 0.870214 0.444039 0.213441
vn 0.721652 0.668554 0.179592
vn 0.000199 0.858218 0.513286
vn 0.000000 0.982097 0.188374
vn 0.001100 0.923831 0.382799
vn 0.721652 0.668554 0.179592
vn -0.592083 0.805334 -0.029582
vn -0.623395 0.781552 -0.023563
vn -0.791168 0.611162 0.023125
vn 0.865690 0.498283 -0.047900
vn 0.677753 0.730289 -0.085605
vn 0.721652 0.668554 0.179592
vn 0.870214 0.444039 0.213441
vn 0.721652 0.668554 0.179592
vn 0.677753 0.730289 -0.085605
vn 0.000000 0.999507 -0.031404
vn 0.000000 0.982097 0.188374
vn 0.865690 0.498283 -0.047900
vn 0.000000 0.964886 -0.262671
vn 0.677753 0.730289 -0.085605
vn 0.242934 -0.969586 0.029753
vn 0.249883 -0.968030 0.021847
vn 0.296591 -0.953628 0.051267
vn 0.348928 -0.935901 0.048358
vn 0.691068 0.721640 0.040752
vn 0.850859 0.502586 0.153124
vn 0.452949 0.890878 0.034243
vn 0.750786 -0.651963 -0.106131
vn 0.677524 -0.732570 -0.065594
vn -0.048708 -0.995463 -0.081733
vn 0.000000 -0.994708 -0.102743
vn -0.003735 0.996755 -0.080412
vn 0.159396 0.986678 -0.032539
vn 0.162014 0.986784 -0.002905
vn 0.079660 0.995745 -0.046326
vn -0.005943 -0.996089 -0.088155
vn 0.110584 -0.993046 -0.040377
vn 0.225658 -0.974206 0.001354
vn 0.119759 -0.992345 -0.030159
vn 0.437116 0.899177 -0.020241
vn 0.691068 0.721640 0.040752
vn 0.452949 0.890878 0.034243
vn 0.365477 0.930749 -0.011477
vn 0.159158 -0.987194 -0.010829
vn 0.243240 -0.969962 -0.002916
vn 0.249883 -0.968030 0.021847
vn 0.242934 -0.969586 0.029753
vn 0.159396 0.986678 -0.032539
vn 0.437116 0.899177 -0.020241
vn 0.365477 0.930749 -0.011477
vn 0.162014 0.986784 -0.002905
vn 0.119759 -0.992345 -0.030159
vn 0.225658 -0.974206 0.001354
vn 0.243240 -0.969962 -0.002916
vn 0.159158 -0.987194 -0.010829
vn 0.159158 -0.987194 -0.010829
vn -0.104529 -0.993029 -0.054468
vn 0.119759 -0.992345 -0.030159
vn -0.159158 -0.987194 -0.010829
vn -0.119759 -0.992345 -0.030159
vn 0.104529 -0.993029 -0.054468
vn 0.750786 -0.651963 -0.106131
vn 0.983169 0.143978 -0.112464
vn 0.874197 0.476212 -0.094881
vn 0.677524 -0.732570 -0.065594
vn -0.874197 0.476212 -0.094881
vn -0.983169 0.143978 -0.112464
vn -0.750786 -0.651963 -0.106131
vn -0.757199 -0.649548 -0.068827
vn 0.548151 -0.823367 -0.146959
vn 0.000000 -0.991131 -0.132886
vn -0.000000 -0.501133 -0.865370
vn 0.000000 -0.991131 -0.132886
vn -0.548151 -0.823367 -0.146959
vn -0.000000 -0.501133 -0.865370
vn -0.548151 -0.823367 -0.146959
vn -0.975469 -0.143959 -0.166541
vn -0.000000 -0.501133 -0.865370
vn -0.975469 -0.143959 -0.166541
vn -0.742642 0.648017 -0.168985
vn -0.000000 -0.501133 -0.865370
vn -0.742642 0.648017 -0.168985
vn 0.000000 0.986557 -0.163419
vn -0.000000 -0.501133 -0.865370
vn 0.000000 0.986557 -0.163419
vn 0.742642 0.648017 -0.168985
vn -0.000000 -0.501133 -0.865370
vn 0.742642 0.648017 -0.168985
vn 0.975469 -0.143959 -0.166541
vn -0.000000 -0.501133 -0.865370
vn 0.975469 -0.143959 -0.166541
vn 0.548151 -0.823367 -0.146959
vn -0.000000 -0.501133 -0.865370
vn -0.677753 0.730289 -0.085605
vn 0.000000 0.999507 -0.031404
vn 0.000000 0.964886 -0.262671
vn 0.677753 0.730289 -0.085605
vn 0.000000 0.964886 -0.262671
vn 0.000000 0.999507 -0.031404
vn -0.850859 0.502586 0.153124
vn -0.799457 0.544088 0.254632
vn 0.799457 0.544088 0.254632
vn 0.850859 0.502586 0.153124
vn 0.159396 0.986678 -0.032539
vn 0.079660 0.995745 -0.046326
vn 0.110584 -0.993046 -0.040377
vn 0.119759 -0.992345 -0.030159
vn -0.079660 0.995745 -0.046326
vn -0.159396 0.986678 -0.032539
vn -0.119759 -0.992345 -0.030159
vn -0.110584 -0.993046 -0.040377
vn 0.000000 0.000000 0.000000
vn -0.707107 -0.707107 0.000000
vn 0.000000 0.000000 0.000000
vn 0.000000 0.000000 0.000000
vn 0.000000 0.000000 0.000000
vn 0.000000 0.000000 0.000000
vn 0.707107 0.707107 0.000000
vn 0.000000 0.000000 0.000000
vn -0.707081 0.707132 0.000000
vn 0.000000 0.000000 0.000000
vn 0.000000 0.000000 0.000000
vn 0.000000 0.000000 0.000000
vn 0.707081 -0.707132 0.000000
vn 0.000000 0.000000 0.000000
vn 0.707107 -0.707107 0.000000
vn 0.000000 0.000000 0.000000
vn 0.000000 0.000000 0.000000
vn 0.000000 0.000000 0.000000
vn -0.707107 0.707107 0.000000
vn 0.707132 0.707081 0.000000
vn 0.707132 0.707081 0.000000
vn 0.707132 0.707081 -0.000000
vn -0.707132 -0.707081 -0.000000
vn -0.707132 -0.707081 0.000000
vn -0.707132 -0.707081 0.000000
vn 0.707107 -0.707107 0.000000
vn 0.707107 -0.707107 0.000000
vn 0.707107 -0.707107 0.000000
vn 0.707107 -0.707107 0.000000
vn -0.707107 0.707107 0.000000
vn -0.707107 0.707107 0.000000
vn -0.707107 0.707107 0.000000
vn -0.707107 0.707107 0.000000
vn 0.707127 0.707087 0.000000
vn -0.707127 -0.707087 0.000000
vn 0.707127 0.707087 0.000000
vn -0.707127 -0.707087 0.000000
vn -0.707127 -0.707087 0.000000
vn 0.707127 0.707087 0.000000
vn -0.707127 -0.707087 0.000000
vn 0.707127 0.707087 0.000000
vn 0.707127 -0.707087 0.000000
vn -0.707127 0.707087 0.000000
vn 0.707127 -0.707087 0.000000
vn -0.707127 0.707087 0.000000
vn -0.707127 0.707087 0.000000
vn 0.707127 -0.707087 0.000000
vn -0.707127 0.707087 0.000000
vn 0.707127 -0.707087 0.000000
vn 0.707107 0.707107 0.000000
vn -0.707107 -0.707107 0.000000
vn 0.707107 0.707107 0.000000
vn -0.707107 -0.707107 0.000000
vn -0.707107 -0.707107 0.000000
vn 0.707107 0.707107 0.000000
vn -0.707107 -0.707107 0.000000
vn 0.707107 0.707107 0.000000
vn 0.000000 0.000000 0.000000
vn 0.000000 0.000000 0.000000
vn 0.000000 0.000000 0.000000
vn 0.000000 0.000000 0.000000
vn 0.000000 0.000000 0.000000
vn 0.000000 0.000000 0.000000
vn 0.000000 0.000000 0.000000
vn 0.000000 0.000000 0.000000
vn 0.000000 0.000000 0.000000
vn 0.000000 0.000000 0.000000
vn 0.000000 0.000000 0.000000
vn 0.000000 0.000000 0.000000
vn 0.000000 0.000000 0.000000
vn 0.000000 0.000000 0.000000
vn 0.000000 0.000000 0.000000
vn 0.000000 0.000000 0.000000
vn 0.000000 0.000000 0.000000
vn 0.000000 0.000000 0.000000
vn 0.000000 0.000000 0.000000
vn 0.000000 0.000000 0.000000
vn 0.000000 0.000000 0.000000
vn 0.000000 0.000000 0.000000
vn 0.000000 0.000000 0.000000
vn 0.000000 0.000000 0.000000
vn -0.767011 -0.633881 0.099438
vn 0.631167 0.775646 -0.001392
vn -0.783767 -0.621054 -0.001412
vn 0.713337 0.693556 -0.100650
vn 0.713337 0.693556 -0.100650
vn -0.783767 -0.621054 -0.001412
vn 0.631167 0.775646 -0.001392
vn -0.767011 -0.633881 0.099438
vn 0.701108 -0.713055 0.000047
vn -0.701038 0.713124 0.000005
vn 0.701070 -0.713093 -0.000005
vn -0.701034 0.713127 -0.000047
vn -0.701034 0.713127 -0.000047
vn 0.701070 -0.713093 -0.000005
vn -0.701038 0.713124 0.000005
vn 0.701108 -0.713055 0.000047
vn -0.755598 -0.647361 -0.099976
vn 0.705608 0.701481 0.100213
vn -0.771410 -0.636339 0.000400
vn 0.630119 0.776498 0.000399
vn 0.705608 0.701481 0.100213
vn -0.755598 -0.647361 -0.099976
vn 0.630119 0.776498 0.000399
vn -0.771410 -0.636339 0.000400
vn -0.544193 0.838947 0.004726
vn 0.815658 -0.538240 -0.212131
vn -0.696429 0.684271 0.216241
vn 0.842368 -0.538879 0.005029
vn 0.842368 -0.538879 0.005029
vn -0.696429 0.684271 0.216241
vn 0.815658 -0.538240 -0.212131
vn -0.544193 0.838947 0.004726
vn 0.000000 0.000000 0.000000
vn 0.000000 0.000000 0.000000
vn 0.000000 0.000000 0.000000
vn 0.707107 -0.707107 0.000000
vn 0.000000 0.000000 0.000000
vn -0.707107 0.707107 0.000000
vn 0.000000 0.000000 0.000000
vn 0.000000 0.000000 0.000000
vn 0.000000 0.000000 0.000000
vn 0.707081 0.707132 0.000000
vn 0.000000 0.000000 0.000000
vn -0.707081 -0.707132 0.000000
vn 0.000000 0.000000 0.000000
vn 0.000000 0.000000 0.000000
vn 0.000000 0.000000 0.000000
vn -0.707107 -0.707107 0.000000
vn 0.000000 0.000000 0.000000
vn 0.707107 0.707107 0.000000
vn 0.000000 0.000000 0.000000
vn -0.707132 0.707081 0.000000
vn -0.707132 0.707081 0.000000
vn -0.707132 0.707081 0.000000
vn 0.707132 -0.707081 0.000000
vn 0.707132 -0.707081 0.000000
vn 0.707132 -0.707081 0.000000
vn -0.707107 -0.707107 0.000000
vn -0.707107 -0.707107 0.000000
vn -0.707107 -0.707107 0.000000
vn -0.707107 -0.707107 0.000000
vn 0.707107 0.707107 0.000000
vn 0.707107 0.707107 0.000000
vn 0.707107 0.707107 0.000000
vn 0.707107 0.707107 0.000000
vn -0.707127 0.707087 0.000000
vn 0.707127 -0.707087 0.000000
vn -0.707127 0.707087 0.000000
vn 0.707127 -0.707087 0.000000
vn 0.707127 -0.707087 0.000000
vn -0.707127 0.707087 0.000000
vn 0.707127 -0.707087 0.000000
vn -0.707127 0.707087 0.000000
vn -0.707127 -0.707087 0.000000
vn 0.707127 0.707087 0.000000
vn -0.707127 -0.707087 0.000000
vn 0.707127 0.707087 0.000000
vn 0.707127 0.707087 0.000000
vn -0.707127 -0.707087 0.000000
vn 0.707127 0.707087 0.000000
vn -0.707127 -0.707087 0.000000
vn -0.707107 0.707107 0.000000
vn 0.707107 -0.707107 0.000000
vn -0.707107 0.707107 0.000000
vn 0.707107 -0.707107 0.000000
vn 0.707107 -0.707107 0.000000
vn -0.707107 0.707107 0.000000
vn 0.707107 -0.707107 0.000000
vn -0.707107 0.707107 0.000000
vn 0.000000 0.000000 0.000000
vn 0.000000 0.000000 0.000000
vn 0.000000 0.000000 0.000000
vn 0.000000 0.000000 0.000000
vn 0.000000 0.000000 0.000000
vn 0.000000 0.000000 0.000000
vn 0.000000 0.000000 0.000000
vn 0.000000 0.000000 0.000000
vn 0.000000 0.000000 0.000000
vn 0.000000 0.000000 0.000000
vn 0.000000 0.000000 0.000000
vn 0.000000 0.000000 0.000000
vn 0.000000 0.000000 0.000000
vn 0.000000 0.000000 0.000000
vn 0.000000 0.000000 0.000000
vn 0.000000 0.000000 0.000000
vn 0.000000 0.000000 0.000000
vn 0.000000 0.000000 0.000000
vn 0.000000 0.000000 0.000000
vn 0.000000 0.000000 0.000000
vn 0.000000 0.000000 0.000000
vn 0.000000 0.000000 0.000000
vn 0.000000 0.000000 0.000000
vn 0.000000 0.000000 0.000000
vn 0.767011 -0.633881 0.099438
vn -0.713337 0.693556 -0.100650
vn 0.783767 -0.621054 -0.001412
vn -0.631167 0.775646 -0.001392
vn -0.713337 0.693556 -0.100650
vn 0.767011 -0.633881 0.099438
vn -0.631167 0.775646 -0.001392
vn 0.783767 -0.621054 -0.001412
vn -0.701108 -0.713055 0.000047
vn 0.701034 0.713127 -0.000047
vn -0.701070 -0.713093 -0.000005
vn 0.701038 0.713124 0.000005
vn 0.701034 0.713127 -0.000047
vn -0.701108 -0.713055 0.000047
vn 0.701038 0.713124 0.000005
vn -0.701070 -0.713093 -0.000005
vn 0.755598 -0.647361 -0.099976
vn -0.630119 0.776498 0.000399
vn 0.771410 -0.636339 0.000400
vn -0.705608 0.701481 0.100213
vn -0.705608 0.701481 0.100213
vn 0.771410 -0.636339 0.000400
vn -0.630119 0.776498 0.000399
vn 0.755598 -0.647361 -0.099976
vn 0.544193 0.838947 0.004726
vn -0.842368 -0.538879 0.005029
vn 0.696429 0.684271 0.216241
vn -0.815658 -0.538240 -0.212131
vn -0.842368 -0.538879 0.005029
vn 0.544193 0.838947 0.004726
vn -0.815658 -0.538240 -0.212131
vn 0.696429 0.684271 0.216241
vn -0.651270 -0.758840 -0.003031
vn -0.609609 -0.792680 0.005929
vn -0.991112 0.133026 -0.000892
vn -0.960831 0.277128 -0.001894
vn -0.991112 0.133026 -0.000892
vn -0.703187 0.710987 -0.004996
vn -0.705042 0.709162 -0.002107
vn -0.960831 0.277128 -0.001894
vn 0.604355 -0.796714 -0.001292
vn 0.991620 0.129123 -0.004202
vn 0.991112 0.133026 -0.000892
vn 0.609609 -0.792680 0.005929
vn 0.991112 0.133026 -0.000892
vn 0.991620 0.129123 -0.004202
vn 0.705042 0.709162 -0.002107
vn 0.703187 0.710987 -0.004996
vn -0.619290 -0.784769 -0.024850
vn -0.757199 -0.649548 -0.068827
vn -0.048708 -0.995463 -0.081733
vn 0.084173 -0.995969 -0.030991
vn 0.084173 -0.995969 -0.030991
vn -0.048708 -0.995463 -0.081733
vn 0.677524 -0.732570 -0.065594
vn 0.693231 -0.720416 -0.020765
vn -0.651270 -0.758840 -0.003031
vn -0.960831 0.277128 -0.001894
vn -0.999649 -0.026502 0.000260
vn -0.619290 -0.784769 -0.024850
vn 0.991620 0.129123 -0.004202
vn 0.604355 -0.796714 -0.001292
vn 0.693231 -0.720416 -0.020765
vn 0.992446 0.122612 0.004222
vn -0.619290 -0.784769 -0.024850
vn -0.999649 -0.026502 0.000260
vn -0.999713 -0.020582 0.012236
vn -0.757199 -0.649548 -0.068827
vn 0.693231 -0.720416 -0.020765
vn 0.677524 -0.732570 -0.065594
vn 0.999713 -0.020582 0.012236
vn 0.992446 0.122612 0.004222
vn -0.960831 0.277128 -0.001894
vn -0.705042 0.709162 -0.002107
vn -0.714522 0.699209 0.023779
vn -0.999649 -0.026502 0.000260
vn -0.999713 -0.020582 0.012236
vn 0.019147 0.999817 -0.000481
vn -0.999649 -0.026502 0.000260
vn -0.714522 0.699209 0.023779
vn 0.991620 0.129123 -0.004202
vn 0.992446 0.122612 0.004222
vn 0.714522 0.699209 0.023779
vn 0.705042 0.709162 -0.002107
vn 0.045803 0.997852 0.046836
vn 0.714522 0.699209 0.023779
vn 0.992446 0.122612 0.004222
vn 0.999713 -0.020582 0.012236
vn -0.000000 -0.999984 0.005656
vn -0.609609 -0.792680 0.005929
vn -0.651270 -0.758840 -0.003031
vn -0.000000 -0.999995 -0.003226
vn -0.000000 -0.999995 -0.003226
vn -0.651270 -0.758840 -0.003031
vn -0.619290 -0.784769 -0.024850
vn 0.084173 -0.995969 -0.030991
vn -0.000000 -0.999984 0.005656
vn -0.000000 -0.999995 -0.003226
vn 0.604355 -0.796714 -0.001292
vn 0.609609 -0.792680 0.005929
vn -0.000000 -0.999995 -0.003226
vn 0.084173 -0.995969 -0.030991
vn 0.693231 -0.720416 -0.020765
vn 0.604355 -0.796714 -0.001292
vn -0.598805 0.751368 0.277270
vn -0.890652 -0.248906 0.380506
vn -0.000000 0.084942 0.996386
vn -0.890652 -0.248906 0.380506
vn -0.272145 -0.940251 0.204611
vn -0.000000 0.084942 0.996386
vn -0.272145 -0.940251 0.204611
vn 0.272145 -0.940251 0.204611
vn -0.000000 0.084942 0.996386
vn 0.272145 -0.940251 0.204611
vn 0.890652 -0.248906 0.380506
vn -0.000000 0.084942 0.996386
vn 0.890652 -0.248906 0.380506
vn 0.598805 0.751368 0.277270
vn -0.000000 0.084942 0.996386
vn 0.598805 0.751368 0.277270
vn 0.000000 0.981081 0.193596
vn -0.000000 0.084942 0.996386
vn 0.000000 0.981081 0.193596
vn -0.598805 0.751368 0.277270
vn -0.000000 0.084942 0.996386
vn -0.934127 0.356439 0.018918
vn -0.968186 0.248587 0.028635
vn -0.979369 0.200515 -0.025119
vn 0.979629 0.199229 -0.025187
vn 0.968414 0.247696 0.028640
vn 0.934127 0.356440 0.018918
vn -0.924635 0.371194 0.085233
vn -0.979369 0.200515 -0.025119
vn -0.968186 0.248587 0.028635
vn -0.635006 0.736785 0.232198
vn 0.924966 0.370366 0.085248
vn 0.635516 0.736285 0.232390
vn 0.968414 0.247696 0.028640
vn 0.979629 0.199229 -0.025187
vn -0.924635 0.371194 0.085233
vn -0.960445 0.055174 -0.272948
vn -0.662555 -0.006484 -0.748985
vn -0.979369 0.200515 -0.025119
vn 0.924966 0.370366 0.085248
vn 0.979629 0.199229 -0.025187
vn 0.662471 -0.007973 -0.749045
vn 0.960474 0.054535 -0.272976
vn -1.000000 -0.000308 0.000004
vn -1.000000 -0.000307 0.000000
vn -0.960445 0.055174 -0.272948
vn -0.924635 0.371194 0.085233
vn -1.000000 -0.000308 0.000004
vn -0.960445 0.055174 -0.272948
vn 1.000000 0.000308 -0.000004
vn 0.960474 0.054535 -0.272976
vn 1.000000 0.000307 0.000000
vn 0.924966 0.370366 0.085248
vn 0.960474 0.054535 -0.272976
vn 1.000000 0.000308 -0.000004
vn -0.960445 0.055174 -0.272948
vn -0.979369 0.200515 -0.025119
vn 0.979629 0.199229 -0.025187
vn 0.960474 0.054535 -0.272976
vn -0.180628 0.980995 0.070872
vn -0.115283 0.993331 0.001530
vn -0.149304 0.988108 0.036751
vn -0.202727 0.975398 0.086607
vn -0.115283 0.993331 0.001530
vn -0.101337 0.994675 -0.018792
vn -0.093521 0.995297 -0.025251
vn -0.149304 0.988108 0.036751
vn 0.180628 0.980995 0.070872
vn 0.202727 0.975398 0.086607
vn 0.149304 0.988108 0.036751
vn 0.115283 0.993331 0.001530
vn 0.115283 0.993331 0.001530
vn 0.149304 0.988108 0.036751
vn 0.093521 0.995297 -0.025251
vn 0.101337 0.994675 -0.018792
vn -0.034576 0.999133 0.023176
vn -0.019994 0.997627 -0.065878
vn -0.008529 0.998973 -0.044502
vn -0.019147 0.999817 -0.000481
vn 0.006311 0.996058 -0.088484
vn 0.010561 0.999691 -0.022500
vn -0.008529 0.998973 -0.044502
vn -0.019994 0.997627 -0.065878
vn -0.034576 0.999133 0.023176
vn -0.019147 0.999817 -0.000481
vn -0.045803 0.997852 0.046836
vn -0.058068 0.995804 0.070724
vn 0.087060 0.991628 0.095363
vn 0.821533 0.570161 -0.000205
vn 0.969392 0.227240 0.092960
vn 0.802702 -0.596380 -0.000528
vn 0.517349 -0.850601 0.093957
vn -0.325262 -0.945624 -0.000123
vn -0.654090 -0.750489 0.094511
vn -0.999847 0.017493 0.000451
vn -0.919405 0.381951 0.093854
vn -0.299203 0.954190 0.000405
vn -0.087060 0.991628 0.095363
vn -0.821533 0.570161 -0.000205
vn -0.969392 0.227240 0.092960
vn -0.802702 -0.596380 -0.000528
vn -0.517349 -0.850601 0.093957
vn 0.325262 -0.945624 -0.000123
vn 0.654090 -0.750489 0.094511
vn 0.999847 0.017493 0.000451
vn 0.919405 0.381951 0.093854
vn 0.299203 0.954190 0.000405
vn -0.788649 0.614802 -0.007236
vn -0.987540 0.039927 -0.152220
vn 0.807690 0.589549 -0.008343
vn 0.987916 0.046185 -0.147946
vn -0.788649 0.614802 -0.007236
vn -0.983584 0.064246 0.168625
vn 0.807690 0.589549 -0.008343
vn 0.984993 0.061280 0.161352
vn 0.782404 0.588626 0.203382
vn 0.850791 0.057228 0.522379
vn -0.747174 0.631467 0.207316
vn -0.821599 0.143847 0.551618
vn -0.851044 0.507044 -0.136492
vn -0.883356 0.109151 -0.455816
vn 0.901335 0.410430 -0.138355
vn 0.881517 -0.094774 -0.462544
vn 0.714279 -0.699658 -0.016862
vn 0.987916 0.046185 -0.147946
vn 0.714279 -0.699658 -0.016862
vn 0.984993 0.061280 0.161352
vn 0.610683 -0.774205 0.166350
vn 0.850791 0.057228 0.522379
vn 0.633377 -0.746526 -0.203796
vn 0.881517 -0.094774 -0.462544
vn -0.686405 -0.727036 -0.016345
vn -0.987540 0.039927 -0.152220
vn -0.686405 -0.727036 -0.016345
vn -0.983584 0.064246 0.168625
vn -0.598097 -0.784256 0.164990
vn -0.821599 0.143847 0.551618
vn -0.631715 -0.749762 -0.196960
vn -0.883356 0.109151 -0.455816
vn 0.027485 -0.999534 -0.013304
vn 0.633377 -0.746526 -0.203796
vn 0.027485 -0.999534 -0.013304
vn 0.610683 -0.774205 0.166350
vn 0.077917 -0.971309 -0.224695
vn 0.540692 -0.656700 -0.525735
vn 0.054311 -0.988038 0.144329
vn 0.546777 -0.681641 0.486210
vn 0.027485 -0.999534 -0.013304
vn -0.631715 -0.749762 -0.196960
vn 0.027485 -0.999534 -0.013304
vn -0.598097 -0.784256 0.164990
vn 0.054311 -0.988038 0.144329
vn -0.470075 -0.690448 0.549829
vn 0.077917 -0.971309 -0.224695
vn -0.471813 -0.640997 -0.605404
vn 0.034576 0.999133 0.023176
vn 0.045803 0.997852 0.046836
vn -0.952435 0.199043 0.230759
vn -0.316228 0.948683 0.000000
vn 0.196162 0.952999 0.230896
vn 0.948683 0.316228 0.000000
vn 0.952435 -0.199043 0.230759
vn 0.316228 -0.948683 0.000000
vn -0.196162 -0.952999 0.230896
vn -0.948683 -0.316228 0.000000
vn -0.006311 0.996058 -0.088484
vn 0.008529 0.998973 -0.044502
vn 0.952435 0.199043 0.230759
vn 0.316228 0.948683 0.000000
vn -0.196162 0.952999 0.230896
vn -0.948683 0.316228 0.000000
vn -0.952435 -0.199043 0.230759
vn -0.316228 -0.948683 0.000000
vn 0.196162 -0.952999 0.230896
vn 0.948683 -0.316228 0.000000
vn -0.592083 0.805334 -0.029582
vn 0.000000 0.997460 -0.071227
vn -0.592083 0.805334 -0.029582
vn -0.874197 0.476212 -0.094881
vn 0.000000 0.997460 -0.071227
vn -0.589256 0.798601 -0.122532
vn -0.691068 0.721640 0.040752
vn -0.592083 0.805334 -0.029582
vn -0.791168 0.611162 0.023125
vn -0.761909 0.633951 0.132668
vn 0.008529 0.998973 -0.044502
vn 0.034576 0.999133 0.023176
vn -0.691068 0.721640 0.040752
vn -0.746864 0.647670 0.150720
vn -0.242934 -0.969586 0.029753
vn 0.000000 -0.999549 0.030039
vn -0.348928 -0.935901 0.048358
vn -0.481903 -0.870946 0.096029
vn -0.348928 -0.935901 0.048358
vn 0.000000 -0.997704 0.067723
vn -0.746864 0.647670 0.150720
vn -0.001208 0.962165 0.272465
vn -0.865659 0.498337 -0.047911
vn -0.721501 0.668981 0.178607
vn -0.721501 0.668981 0.178607
vn 0.000000 0.999507 -0.031404
vn -0.242934 -0.969586 0.029753
vn -0.296591 -0.953628 0.051267
vn -0.750786 -0.651963 -0.106131
vn -0.048708 -0.995463 -0.081733
vn -0.437116 0.899177 -0.020241
vn -0.452949 0.890878 0.034243
vn -0.159158 -0.987194 -0.010829
vn -0.249883 -0.968030 0.021847
vn -0.159396 0.986678 -0.032539
vn -0.365478 0.930749 -0.011477
vn -0.119759 -0.992345 -0.030159
vn -0.243240 -0.969962 -0.002916
vn 0.592083 0.805334 -0.029582
vn 0.000000 0.997460 -0.071227
vn 0.592083 0.805334 -0.029582
vn 0.874197 0.476212 -0.094881
vn 0.000000 0.997460 -0.071227
vn 0.589256 0.798601 -0.122532
vn 0.691068 0.721640 0.040752
vn 0.592083 0.805334 -0.029582
vn 0.791065 0.611295 0.023137
vn 0.760836 0.635051 0.133560
vn -0.045803 0.997852 0.046836
vn -0.034576 0.999133 0.023176
vn 0.691068 0.721640 0.040752
vn 0.745661 0.649004 0.150939
vn 0.242934 -0.969586 0.029753
vn 0.000000 -0.999549 0.030039
vn 0.348928 -0.935901 0.048358
vn 0.481903 -0.870946 0.096029
vn 0.348928 -0.935901 0.048358
vn 0.000000 -0.997704 0.067723
vn 0.745661 0.649004 0.150939
vn -0.001208 0.962165 0.272465
vn 0.865690 0.498283 -0.047900
vn 0.721652 0.668554 0.179592
vn 0.721652 0.668554 0.179592
vn 0.000000 0.999507 -0.031404
vn 0.242934 -0.969586 0.029753
vn 0.296591 -0.953628 0.051267
vn 0.750786 -0.651963 -0.106131
vn -0.048708 -0.995463 -0.081733
vn 0.437116 0.899177 -0.020241
vn 0.452949 0.890878 0.034243
vn 0.159158 -0.987194 -0.010829
vn 0.249883 -0.968030 0.021847
vn 0.159396 0.986678 -0.032539
vn 0.365477 0.930749 -0.011477
vn 0.119759 -0.992345 -0.030159
vn 0.243240 -0.969962 -0.002916
vn 0.750786 -0.651963 -0.106131
vn 0.874197 0.476212 -0.094881
vn -0.874197 0.476212 -0.094881
vn -0.750786 -0.651963 -0.106131
vn -0.707107 -0.707107 0.000000
vn 0.000000 0.000000 0.000000
vn 0.707107 -0.707107 0.000000
vn 0.707107 -0.707107 0.000000
vn -0.707107 0.707107 0.000000
vn -0.707107 0.707107 0.000000
vn 0.707127 0.707087 0.000000
vn 0.707127 0.707087 0.000000
vn -0.707127 -0.707087 0.000000
vn -0.707127 -0.707087 0.000000
vn 0.707127 -0.707087 0.000000
vn 0.707127 -0.707087 0.000000
vn -0.707127 0.707087 0.000000
vn -0.707127 0.707087 0.000000
vn 0.707107 0.707107 0.000000
vn 0.707107 0.707107 0.000000
vn -0.707107 -0.707107 0.000000
vn -0.707107 -0.707107 0.000000
vn -0.767011 -0.633881 0.099438
vn -0.783767 -0.621054 -0.001412
vn 0.713337 0.693556 -0.100650
vn 0.631167 0.775646 -0.001392
vn 0.701108 -0.713055 0.000047
vn 0.701070 -0.713093 -0.000005
vn -0.701034 0.713127 -0.000047
vn -0.701038 0.713124 0.000005
vn -0.755598 -0.647361 -0.099976
vn -0.771410 -0.636339 0.000400
vn 0.705608 0.701481 0.100213
vn 0.630119 0.776498 0.000399
vn -0.544193 0.838947 0.004726
vn -0.696429 0.684271 0.216241
vn 0.842368 -0.538879 0.005029
vn 0.815658 -0.538240 -0.212131
vn 0.000000 0.000000 0.000000
vn 0.707107 -0.707107 0.000000
vn -0.707107 -0.707107 0.000000
vn -0.707107 -0.707107 0.000000
vn 0.707107 0.707107 0.000000
vn 0.707107 0.707107 0.000000
vn -0.707127 0.707087 0.000000
vn -0.707127 0.707087 0.000000
vn 0.707127 -0.707087 0.000000
vn 0.707127 -0.707087 0.000000
vn -0.707127 -0.707087 0.000000
vn -0.707127 -0.707087 0.000000
vn 0.707127 0.707087 0.000000
vn 0.707127 0.707087 0.000000
vn -0.707107 0.707107 0.000000
vn -0.707107 0.707107 0.000000
vn 0.707107 -0.707107 0.000000
vn 0.707107 -0.707107 0.000000
vn 0.767011 -0.633881 0.099438
vn 0.783767 -0.621054 -0.001412
vn -0.713337 0.693556 -0.100650
vn -0.631167 0.775646 -0.001392
vn -0.701108 -0.713055 0.000047
vn -0.701070 -0.713093 -0.000005
vn 0.701034 0.713127 -0.000047
vn 0.701038 0.713124 0.000005
vn 0.755598 -0.647361 -0.099976
vn 0.771410 -0.636339 0.000400
vn -0.705608 0.701481 0.100213
vn -0.630119 0.776498 0.000399
vn 0.544193 0.838947 0.004726
vn 0.696429 0.684271 0.216241
vn -0.842368 -0.538879 0.005029
vn -0.815658 -0.538240 -0.212131
vn -0.651270 -0.758840 -0.003031
vn -0.991112 0.133026 -0.000892
vn -0.991112 0.133026 -0.000892
vn -0.705042 0.709162 -0.002107
vn 0.604355 -0.796714 -0.001292
vn 0.991112 0.133026 -0.000892
vn 0.991112 0.133026 -0.000892
vn 0.705042 0.709162 -0.002107
vn -0.619290 -0.784769 -0.024850
vn -0.048708 -0.995463 -0.081733
vn 0.084173 -0.995969 -0.030991
vn 0.677524 -0.732570 -0.065594
vn -0.651270 -0.758840 -0.003031
vn -0.999649 -0.026502 0.000260
vn 0.991620 0.129123 -0.004202
vn 0.693231 -0.720416 -0.020765
vn -0.619290 -0.784769 -0.024850
vn -0.999713 -0.020582 0.012236
vn 0.693231 -0.720416 -0.020765
vn 0.999713 -0.020582 0.012236
vn -0.960831 0.277128 -0.001894
vn -0.714522 0.699209 0.023779
vn 0.991620 0.129123 -0.004202
vn 0.714522 0.699209 0.023779
vn -0.000000 -0.999984 0.005656
vn -0.651270 -0.758840 -0.003031
vn -0.000000 -0.999995 -0.003226
vn -0.619290 -0.784769 -0.024850
vn -0.000000 -0.999984 0.005656
vn 0.604355 -0.796714 -0.001292
vn -0.000000 -0.999995 -0.003226
vn 0.693231 -0.720416 -0.020765
vn -0.924635 0.371194 0.085233
vn -0.968186 0.248587 0.028635
vn -0.924635 0.371194 0.085233
vn -0.635006 0.736785 0.232198
vn 0.924966 0.370366 0.085248
vn 0.635516 0.736285 0.232390
vn 0.924966 0.370366 0.085248
vn 0.968414 0.247696 0.028640
vn -0.662555 -0.006484 -0.748985
vn -0.960445 0.055174 -0.272948
vn 0.662471 -0.007973 -0.749045
vn 0.960474 0.054535 -0.272976
vn -0.180628 0.980995 0.070872
vn -0.149304 0.988108 0.036751
vn -0.115283 0.993331 0.001530
vn -0.093521 0.995297 -0.025251
vn 0.180628 0.980995 0.070872
vn 0.149304 0.988108 0.036751
vn 0.115283 0.993331 0.001530
vn 0.093521 0.995297 -0.025251
vn -0.034576 0.999133 0.023176
vn -0.008529 0.998973 -0.044502
vn 0.006311 0.996058 -0.088484
vn -0.008529 0.998973 -0.044502
vn -0.000000 0.998434 -0.055943
vn -0.623395 0.781552 -0.023563
vn 0.623413 0.781538 -0.023547
vn -0.000000 0.998434 -0.055943
#end 1275 vertex normals

#begin 425 faces
usemtl Polygon2_XSIPOLYCLS.hull_dark_grey
f 91//300 88//1 90//2 
usemtl Polygon1_XSIPOLYCLS.hull_white
f 6//6 2//8 1//9 
usemtl Polygon1_XSIPOLYCLS.hull_white
f 7//10 3//12 2//13 
usemtl Polygon1_XSIPOLYCLS.hull_white
f 8//14 4//16 3//17 
usemtl Polygon1_XSIPOLYCLS.hull_white
f 9//18 5//20 4//21 
usemtl Polygon1_XSIPOLYCLS.hull_white
f 10//22 1//24 5//25 
usemtl Polygon1_XSIPOLYCLS.hull_white
f 11//26 7//27 6//28 
usemtl Polygon1_XSIPOLYCLS.hull_white
f 11//29 8//30 7//31 
usemtl Polygon1_XSIPOLYCLS.hull_white
f 11//32 9//33 8//34 
usemtl Polygon1_XSIPOLYCLS.hull_white
f 11//35 10//36 9//37 
usemtl Polygon1_XSIPOLYCLS.hull_white
f 11//38 6//39 10//40 
usemtl Polygon2_XSIPOLYCLS.hull_dark_grey
f 131//428 130//3 129//4 
usemtl Polygon1_XSIPOLYCLS.hull_white
f 17//46 13//48 18//49 
usemtl Polygon1_XSIPOLYCLS.hull_white
f 18//50 14//52 19//53 
usemtl Polygon1_XSIPOLYCLS.hull_white
f 19//54 15//56 20//57 
usemtl Polygon1_XSIPOLYCLS.hull_white
f 20//58 16//60 21//61 
usemtl Polygon1_XSIPOLYCLS.hull_white
f 21//62 12//64 17//65 
usemtl Polygon1_XSIPOLYCLS.hull_white
f 22//66 17//67 18//68 
usemtl Polygon1_XSIPOLYCLS.hull_white
f 22//69 18//70 19//71 
usemtl Polygon1_XSIPOLYCLS.hull_white
f 22//72 19//73 20//74 
usemtl Polygon1_XSIPOLYCLS.hull_white
f 22//75 20//76 21//77 
usemtl Polygon1_XSIPOLYCLS.hull_white
f 22//78 21//79 17//80 
usemtl Polygon1_XSIPOLYCLS.hull_white
f 40//81 38//82 45//83 
usemtl Polygon1_XSIPOLYCLS.hull_white
f 40//84 45//85 39//86 
usemtl Polygon1_XSIPOLYCLS.hull_white
f 44//87 28//89 43//90 
usemtl Polygon1_XSIPOLYCLS.hull_white
f 41//91 29//93 30//94 
usemtl Polygon1_XSIPOLYCLS.hull_white
f 44//95 32//97 35//98 
usemtl Polygon1_XSIPOLYCLS.hull_white
f 41//99 33//101 42//102 
usemtl Polygon1_XSIPOLYCLS.hull_white
f 40//103 37//104 38//105 
usemtl Polygon1_XSIPOLYCLS.hull_white
f 34//106 37//108 33//109 
usemtl Polygon1_XSIPOLYCLS.hull_white
f 35//110 36//112 39//113 
usemtl Polygon1_XSIPOLYCLS.hull_white
f 40//114 39//115 36//116 
usemtl Polygon1_XSIPOLYCLS.hull_white
f 23//117 24//118 27//119 
usemtl Polygon1_XSIPOLYCLS.hull_white
f 31//120 24//122 28//123 
usemtl Polygon1_XSIPOLYCLS.hull_white
f 23//124 26//125 25//126 
usemtl Polygon1_XSIPOLYCLS.hull_white
f 30//127 25//129 26//130 
usemtl Polygon1_XSIPOLYCLS.hull_white
f 49//131 29//133 42//134 
usemtl Polygon1_XSIPOLYCLS.hull_white
f 49//135 33//137 48//138 
usemtl Polygon1_XSIPOLYCLS.hull_white
f 40//139 50//140 37//141 
usemtl Polygon1_XSIPOLYCLS.hull_white
f 48//142 37//144 50//145 
usemtl Polygon1_XSIPOLYCLS.hull_white
f 47//146 25//148 29//149 
usemtl Polygon1_XSIPOLYCLS.hull_white
f 23//150 25//151 46//152 
usemtl Polygon1_XSIPOLYCLS.hull_white
f 52//153 28//155 55//156 
usemtl Polygon1_XSIPOLYCLS.hull_white
f 52//157 32//159 43//160 
usemtl Polygon1_XSIPOLYCLS.hull_white
f 51//161 36//163 32//164 
usemtl Polygon1_XSIPOLYCLS.hull_white
f 40//165 36//166 53//167 
usemtl Polygon1_XSIPOLYCLS.hull_white
f 23//168 54//169 24//170 
usemtl Polygon1_XSIPOLYCLS.hull_white
f 55//171 24//173 54//174 
usemtl Polygon1_XSIPOLYCLS.hull_white
f 59//175 47//177 49//178 
usemtl Polygon1_XSIPOLYCLS.hull_white
f 59//179 48//181 60//182 
usemtl Polygon1_XSIPOLYCLS.hull_white
f 40//183 56//184 50//185 
usemtl Polygon1_XSIPOLYCLS.hull_white
f 58//186 46//188 47//189 
usemtl Polygon1_XSIPOLYCLS.hull_white
f 23//190 46//191 57//192 
usemtl Polygon1_XSIPOLYCLS.hull_white
f 60//193 50//195 56//196 
usemtl Polygon1_XSIPOLYCLS.hull_white
f 59//197 55//199 58//200 
usemtl Polygon1_XSIPOLYCLS.hull_white
f 59//201 51//203 52//204 
usemtl Polygon1_XSIPOLYCLS.hull_white
f 60//205 53//207 51//208 
usemtl Polygon1_XSIPOLYCLS.hull_white
f 40//209 53//210 56//211 
usemtl Polygon1_XSIPOLYCLS.hull_white
f 58//212 54//214 57//215 
usemtl Polygon1_XSIPOLYCLS.hull_white
f 23//216 57//217 54//218 
usemtl hull_light_grey
f 148//45 153//873 311//866 
usemtl Polygon1_XSIPOLYCLS.hull_white
f 65//223 62//225 61//226 
usemtl Polygon1_XSIPOLYCLS.hull_white
f 66//227 63//229 62//230 
usemtl Polygon1_XSIPOLYCLS.hull_white
f 67//231 64//233 63//234 
usemtl Polygon1_XSIPOLYCLS.hull_white
f 68//235 61//237 64//238 
usemtl Polygon1_XSIPOLYCLS.hull_white
f 68//239 67//240 69//241 
usemtl Polygon1_XSIPOLYCLS.hull_white
f 67//242 66//243 69//244 
usemtl Polygon1_XSIPOLYCLS.hull_white
f 66//245 65//246 69//247 
usemtl Polygon1_XSIPOLYCLS.hull_white
f 65//248 68//249 69//250 
usemtl hull_light_grey
f 309//222 354//220 355//219 
usemtl Polygon1_XSIPOLYCLS.hull_white
f 74//255 71//257 75//258 
usemtl Polygon1_XSIPOLYCLS.hull_white
f 75//259 72//261 76//262 
usemtl Polygon1_XSIPOLYCLS.hull_white
f 76//263 73//265 77//266 
usemtl Polygon1_XSIPOLYCLS.hull_white
f 77//267 70//269 74//270 
usemtl Polygon1_XSIPOLYCLS.hull_white
f 77//271 78//272 76//273 
usemtl Polygon1_XSIPOLYCLS.hull_white
f 76//274 78//275 75//276 
usemtl Polygon1_XSIPOLYCLS.hull_white
f 75//277 78//278 74//279 
usemtl Polygon1_XSIPOLYCLS.hull_white
f 74//280 78//281 77//282 
usemtl hull_light_grey
f 82//283 86//285 83//286 
usemtl hull_light_grey
f 82//287 88//289 80//290 
usemtl hull_light_grey
f 79//291 80//292 88//293 
usemtl Polygon2_XSIPOLYCLS.hull_dark_grey
f 86//294 90//296 83//297 
usemtl Polygon2_XSIPOLYCLS.hull_dark_grey
f 83//298 90//299 88//301 
usemtl hull_light_grey
f 93//302 92//303 96//304 
usemtl hull_light_grey
f 81//305 82//307 80//308 
usemtl hull_light_grey
f 84//309 97//311 98//312 
usemtl hull_light_grey
f 87//363 135//316 85//313 
usemtl hull_light_grey
f 81//317 94//319 84//320 
usemtl hull_light_grey
f 94//321 111//322 93//324 
usemtl hull_light_grey
f 106//325 115//327 110//328 
usemtl hull_light_grey
f 92//329 93//330 113//331 
usemtl hull_light_grey
f 110//332 113//334 111//335 
usemtl hull_light_grey
f 110//336 116//338 112//339 
usemtl hull_light_grey
f 116//340 92//341 112//342 
usemtl hull_light_grey
f 113//343 112//344 92//345 
usemtl hull_light_grey
f 94//346 96//348 95//349 
usemtl hull_light_grey
f 94//350 95//351 97//352 
usemtl Polygon3_XSIPOLYCLS.glass
f 95//353 101//354 102//355 
usemtl Polygon3_XSIPOLYCLS.glass
f 97//356 95//357 102//358 
usemtl Polygon3_XSIPOLYCLS.glass
f 100//359 102//360 101//361 
usemtl hull_light_grey
f 126//364 135//362 128//315 
usemtl Polygon3_XSIPOLYCLS.glass
f 98//365 102//367 103//368 
usemtl Polygon3_XSIPOLYCLS.glass
f 102//369 99//371 103//372 
usemtl Polygon3_XSIPOLYCLS.glass
f 98//373 103//374 87//375 
usemtl hull_light_grey
f 106//376 111//378 107//379 
usemtl hull_light_grey
f 81//380 107//381 111//382 
usemtl Polygon2_XSIPOLYCLS.hull_dark_grey
f 120//383 287//385 288//386 
usemtl hull_light_grey
f 109//387 108//388 79//390 
usemtl hull_light_grey
f 109//391 104//392 108//394 
usemtl hull_light_grey
f 80//395 107//397 81//398 
usemtl hull_light_grey
f 105//399 107//401 122//402 
usemtl hull_light_grey
f 79//403 122//405 80//406 
usemtl hull_light_grey
f 104//407 122//409 121//410 
usemtl hull_light_grey
f 126//411 86//413 85//414 
usemtl hull_light_grey
f 126//415 129//417 127//418 
usemtl hull_light_grey
f 123//419 129//420 124//421 
usemtl Polygon2_XSIPOLYCLS.hull_dark_grey
f 86//422 130//424 89//425 
usemtl Polygon2_XSIPOLYCLS.hull_dark_grey
f 127//426 129//427 130//429 
usemtl hull_light_grey
f 132//430 96//431 92//432 
usemtl hull_light_grey
f 125//433 126//435 128//436 
usemtl hull_light_grey
f 128//437 134//439 133//440 
usemtl hull_light_grey
f 82//490 98//444 85//441 
usemtl hull_light_grey
f 125//445 133//447 145//448 
usemtl hull_light_grey
f 133//449 132//450 145//452 
usemtl hull_light_grey
f 140//453 115//455 114//456 
usemtl hull_light_grey
f 92//457 147//458 132//459 
usemtl hull_light_grey
f 144//460 147//462 146//463 
usemtl hull_light_grey
f 144//464 116//466 115//467 
usemtl hull_light_grey
f 116//468 146//469 92//470 
usemtl hull_light_grey
f 147//471 92//472 146//473 
usemtl hull_light_grey
f 133//474 96//476 132//477 
usemtl hull_light_grey
f 133//478 134//479 95//480 
usemtl Polygon3_XSIPOLYCLS.glass
f 95//481 136//482 101//483 
usemtl Polygon3_XSIPOLYCLS.glass
f 134//484 136//485 95//486 
usemtl Polygon3_XSIPOLYCLS.glass
f 100//487 101//488 136//489 
usemtl hull_light_grey
f 84//492 98//491 82//443 
usemtl Polygon3_XSIPOLYCLS.glass
f 135//493 136//495 134//496 
usemtl Polygon3_XSIPOLYCLS.glass
f 136//497 99//499 100//500 
usemtl Polygon3_XSIPOLYCLS.glass
f 135//501 87//502 137//503 
usemtl hull_light_grey
f 140//504 145//506 144//507 
usemtl hull_light_grey
f 125//508 145//509 141//510 
usemtl Polygon2_XSIPOLYCLS.hull_dark_grey
f 149//511 287//513 117//514 
usemtl hull_light_grey
f 143//515 123//516 142//518 
usemtl hull_light_grey
f 143//519 142//520 138//522 
usemtl hull_light_grey
f 124//523 141//525 151//526 
usemtl hull_light_grey
f 139//527 141//529 140//530 
usemtl hull_light_grey
f 123//531 151//533 150//534 
usemtl hull_light_grey
f 138//535 151//537 139//538 
usemtl hull_light_grey
f 139//539 152//540 138//541 
usemtl hull_light_grey
f 105//542 104//543 312//544 
usemtl Polygon2_XSIPOLYCLS.hull_dark_grey
f 149//545 129//547 289//548 
usemtl Polygon2_XSIPOLYCLS.hull_dark_grey
f 88//549 120//551 288//552 
usemtl Polygon_XSIPOLYCLS.black
f 90//553 89//554 154//555 
usemtl Polygon_XSIPOLYCLS.black
f 89//556 130//557 154//558 
usemtl Polygon_XSIPOLYCLS.black
f 130//559 131//560 154//561 
usemtl Polygon_XSIPOLYCLS.black
f 131//562 149//563 154//564 
usemtl Polygon_XSIPOLYCLS.black
f 149//565 117//566 154//567 
usemtl Polygon_XSIPOLYCLS.black
f 117//568 120//569 154//570 
usemtl Polygon_XSIPOLYCLS.black
f 120//571 91//572 154//573 
usemtl Polygon_XSIPOLYCLS.black
f 91//574 90//575 154//576 
usemtl Polygon3_XSIPOLYCLS.glass
f 103//577 99//578 87//579 
usemtl Polygon3_XSIPOLYCLS.glass
f 137//580 87//581 99//582 
usemtl hull_light_grey
f 113//323 93//584 111//583 
usemtl hull_light_grey
f 147//451 145//586 132//585 
usemtl hull_light_grey
f 150//517 142//588 123//587 
usemtl hull_light_grey
f 150//521 138//590 142//589 
usemtl hull_light_grey
f 121//389 79//592 108//591 
usemtl hull_light_grey
f 121//393 108//594 104//593 
usemtl Polygon2_XSIPOLYCLS.hull_dark_grey
f 164//595 163//596 175//598 
usemtl Polygon2_XSIPOLYCLS.hull_dark_grey
f 175//599 174//600 169//601 
usemtl Polygon2_XSIPOLYCLS.hull_dark_grey
f 177//602 166//603 176//604 
usemtl Polygon2_XSIPOLYCLS.hull_dark_grey
f 177//605 176//606 171//607 
usemtl Polygon2_XSIPOLYCLS.hull_dark_grey
f 178//608 165//609 179//610 
usemtl Polygon2_XSIPOLYCLS.hull_dark_grey
f 178//611 179//612 170//613 
usemtl Polygon2_XSIPOLYCLS.hull_dark_grey
f 168//614 167//615 180//616 
usemtl Polygon2_XSIPOLYCLS.hull_dark_grey
f 180//617 172//618 173//619 
usemtl Polygon2_XSIPOLYCLS.hull_dark_grey
f 184//620 181//622 183//623 
usemtl Polygon2_XSIPOLYCLS.hull_dark_grey
f 187//624 186//626 188//627 
usemtl Polygon2_XSIPOLYCLS.hull_dark_grey
f 190//628 191//630 189//631 
usemtl Polygon2_XSIPOLYCLS.hull_dark_grey
f 189//632 192//634 190//635 
usemtl Polygon2_XSIPOLYCLS.hull_dark_grey
f 194//636 193//638 195//639 
usemtl Polygon2_XSIPOLYCLS.hull_dark_grey
f 195//640 196//642 194//643 
usemtl Polygon2_XSIPOLYCLS.hull_dark_grey
f 200//644 199//646 197//647 
usemtl Polygon2_XSIPOLYCLS.hull_dark_grey
f 197//648 198//650 200//651 
usemtl Polygon2_XSIPOLYCLS.hull_dark_grey
f 202//652 201//653 203//654 
usemtl Polygon2_XSIPOLYCLS.hull_dark_grey
f 201//655 202//656 203//657 
usemtl Polygon2_XSIPOLYCLS.hull_dark_grey
f 205//658 206//659 204//660 
usemtl Polygon2_XSIPOLYCLS.hull_dark_grey
f 205//661 204//662 206//663 
usemtl Polygon2_XSIPOLYCLS.hull_dark_grey
f 207//664 209//665 208//666 
usemtl Polygon2_XSIPOLYCLS.hull_dark_grey
f 209//667 207//668 208//669 
usemtl Polygon2_XSIPOLYCLS.hull_dark_grey
f 210//670 212//671 211//672 
usemtl Polygon2_XSIPOLYCLS.hull_dark_grey
f 210//673 211//674 212//675 
usemtl Polygon2_XSIPOLYCLS.hull_dark_grey
f 214//676 160//678 213//679 
usemtl Polygon2_XSIPOLYCLS.hull_dark_grey
f 213//680 155//682 214//683 
usemtl Polygon2_XSIPOLYCLS.hull_dark_grey
f 156//684 220//686 161//687 
usemtl Polygon2_XSIPOLYCLS.hull_dark_grey
f 161//688 216//690 156//691 
usemtl Polygon2_XSIPOLYCLS.hull_dark_grey
f 215//692 162//694 157//695 
usemtl Polygon2_XSIPOLYCLS.hull_dark_grey
f 218//696 157//698 162//699 
usemtl Polygon2_XSIPOLYCLS.hull_dark_grey
f 158//700 219//702 159//703 
usemtl Polygon2_XSIPOLYCLS.hull_dark_grey
f 159//704 217//706 158//707 
usemtl Polygon2_XSIPOLYCLS.hull_dark_grey
f 230//708 241//709 229//711 
usemtl Polygon2_XSIPOLYCLS.hull_dark_grey
f 241//712 235//713 240//714 
usemtl Polygon2_XSIPOLYCLS.hull_dark_grey
f 243//715 242//716 232//717 
usemtl Polygon2_XSIPOLYCLS.hull_dark_grey
f 243//718 237//719 242//720 
usemtl Polygon2_XSIPOLYCLS.hull_dark_grey
f 244//721 245//722 231//723 
usemtl Polygon2_XSIPOLYCLS.hull_dark_grey
f 244//724 236//725 245//726 
usemtl Polygon2_XSIPOLYCLS.hull_dark_grey
f 234//727 246//728 233//729 
usemtl Polygon2_XSIPOLYCLS.hull_dark_grey
f 246//730 239//731 238//732 
usemtl Polygon2_XSIPOLYCLS.hull_dark_grey
f 250//733 247//735 248//736 
usemtl Polygon2_XSIPOLYCLS.hull_dark_grey
f 253//737 252//739 251//740 
usemtl Polygon2_XSIPOLYCLS.hull_dark_grey
f 256//741 257//743 258//744 
usemtl Polygon2_XSIPOLYCLS.hull_dark_grey
f 255//745 258//747 257//748 
usemtl Polygon2_XSIPOLYCLS.hull_dark_grey
f 260//749 259//751 262//752 
usemtl Polygon2_XSIPOLYCLS.hull_dark_grey
f 261//753 262//755 259//756 
usemtl Polygon2_XSIPOLYCLS.hull_dark_grey
f 266//757 265//759 264//760 
usemtl Polygon2_XSIPOLYCLS.hull_dark_grey
f 263//761 264//763 265//764 
usemtl Polygon2_XSIPOLYCLS.hull_dark_grey
f 268//765 269//766 267//767 
usemtl Polygon2_XSIPOLYCLS.hull_dark_grey
f 267//768 269//769 268//770 
usemtl Polygon2_XSIPOLYCLS.hull_dark_grey
f 271//771 270//772 272//773 
usemtl Polygon2_XSIPOLYCLS.hull_dark_grey
f 271//774 272//775 270//776 
usemtl Polygon2_XSIPOLYCLS.hull_dark_grey
f 273//777 274//778 275//779 
usemtl Polygon2_XSIPOLYCLS.hull_dark_grey
f 275//780 274//781 273//782 
usemtl Polygon2_XSIPOLYCLS.hull_dark_grey
f 276//783 277//784 278//785 
usemtl Polygon2_XSIPOLYCLS.hull_dark_grey
f 276//786 278//787 277//788 
usemtl Polygon2_XSIPOLYCLS.hull_dark_grey
f 280//789 226//791 221//792 
usemtl Polygon2_XSIPOLYCLS.hull_dark_grey
f 279//793 221//795 226//796 
usemtl Polygon2_XSIPOLYCLS.hull_dark_grey
f 222//797 286//799 282//800 
usemtl Polygon2_XSIPOLYCLS.hull_dark_grey
f 227//801 282//803 286//804 
usemtl Polygon2_XSIPOLYCLS.hull_dark_grey
f 281//805 228//807 284//808 
usemtl Polygon2_XSIPOLYCLS.hull_dark_grey
f 284//809 223//811 281//812 
usemtl Polygon2_XSIPOLYCLS.hull_dark_grey
f 224//813 285//815 283//816 
usemtl Polygon2_XSIPOLYCLS.hull_dark_grey
f 225//817 283//819 285//820 
usemtl hull_light_grey
f 290//821 296//823 291//824 
usemtl hull_light_grey
f 296//825 299//827 291//828 
usemtl hull_light_grey
f 301//829 306//831 305//832 
usemtl hull_light_grey
f 306//833 308//835 307//836 
usemtl hull_light_grey
f 293//837 287//839 292//840 
usemtl hull_light_grey
f 292//841 289//843 303//844 
usemtl hull_light_grey
f 290//845 294//847 293//848 
usemtl hull_light_grey
f 302//849 303//851 304//852 
usemtl hull_light_grey
f 293//853 312//855 288//856 
usemtl hull_light_grey
f 303//857 310//859 304//860 
usemtl hull_light_grey
f 291//861 300//863 294//864 
usemtl hull_light_grey
f 312//865 294//867 300//868 
usemtl hull_light_grey
f 302//869 313//871 308//872 
usemtl hull_light_grey
f 313//874 304//875 310//876 
usemtl hull_light_grey
f 297//877 290//879 314//880 
usemtl hull_light_grey
f 314//881 293//883 292//884 
usemtl hull_light_grey
f 297//885 301//887 305//888 
usemtl hull_light_grey
f 314//889 303//891 301//892 
usemtl Polygon_XSIPOLYCLS.black
f 305//893 306//894 315//895 
usemtl Polygon_XSIPOLYCLS.black
f 306//896 307//897 315//898 
usemtl Polygon_XSIPOLYCLS.black
f 307//899 298//900 315//901 
usemtl Polygon_XSIPOLYCLS.black
f 298//902 296//903 315//904 
usemtl Polygon_XSIPOLYCLS.black
f 296//905 295//906 315//907 
usemtl Polygon_XSIPOLYCLS.black
f 295//908 297//909 315//910 
usemtl Polygon_XSIPOLYCLS.black
f 297//911 305//912 315//913 
usemtl hull_light_grey
f 321//914 322//915 319//916 
usemtl hull_light_grey
f 326//917 324//918 325//919 
usemtl hull_light_grey
f 357//920 359//923 356//43 
usemtl hull_light_grey
f 358//924 324//926 326//927 
usemtl hull_light_grey
f 357//928 333//929 319//931 
usemtl hull_light_grey
f 358//932 326//933 327//935 
usemtl hull_light_grey
f 330//936 332//937 333//938 
usemtl hull_light_grey
f 357//939 330//940 333//941 
usemtl hull_light_grey
f 316//942 327//943 318//944 
usemtl hull_light_grey
f 358//945 327//946 316//947 
usemtl hull_light_grey
f 331//930 333//948 320//5 
usemtl hull_light_grey
f 329//934 327//951 326//950 
usemtl hull_light_grey
f 337//952 334//954 335//955 
usemtl hull_light_grey
f 336//956 338//958 334//959 
usemtl hull_light_grey
f 343//960 340//962 342//963 
usemtl hull_light_grey
f 342//964 344//966 345//967 
usemtl hull_light_grey
f 353//968 346//970 348//971 
usemtl hull_light_grey
f 350//972 346//974 351//975 
usemtl hull_light_grey
f 353//976 349//978 352//979 
usemtl hull_light_grey
f 148//254 354//252 119//251 
usemtl Polygon1_XSIPOLYCLS.hull_white
f 7//7 2//981 6//980 
usemtl Polygon1_XSIPOLYCLS.hull_white
f 8//11 3//983 7//982 
usemtl Polygon1_XSIPOLYCLS.hull_white
f 9//15 4//985 8//984 
usemtl Polygon1_XSIPOLYCLS.hull_white
f 10//19 5//987 9//986 
usemtl Polygon1_XSIPOLYCLS.hull_white
f 6//23 1//989 10//988 
usemtl Polygon1_XSIPOLYCLS.hull_white
f 12//47 13//991 17//990 
usemtl Polygon1_XSIPOLYCLS.hull_white
f 13//51 14//993 18//992 
usemtl Polygon1_XSIPOLYCLS.hull_white
f 14//55 15//995 19//994 
usemtl Polygon1_XSIPOLYCLS.hull_white
f 15//59 16//997 20//996 
usemtl Polygon1_XSIPOLYCLS.hull_white
f 16//63 12//999 21//998 
usemtl Polygon1_XSIPOLYCLS.hull_white
f 31//88 28//1001 44//1000 
usemtl Polygon1_XSIPOLYCLS.hull_white
f 42//92 29//1003 41//1002 
usemtl Polygon1_XSIPOLYCLS.hull_white
f 43//96 32//1005 44//1004 
usemtl Polygon1_XSIPOLYCLS.hull_white
f 34//100 33//1007 41//1006 
usemtl Polygon1_XSIPOLYCLS.hull_white
f 38//107 37//1009 34//1008 
usemtl Polygon1_XSIPOLYCLS.hull_white
f 32//111 36//1011 35//1010 
usemtl Polygon1_XSIPOLYCLS.hull_white
f 27//121 24//1013 31//1012 
usemtl Polygon1_XSIPOLYCLS.hull_white
f 29//128 25//1015 30//1014 
usemtl Polygon1_XSIPOLYCLS.hull_white
f 47//132 29//1017 49//1016 
usemtl Polygon1_XSIPOLYCLS.hull_white
f 42//136 33//1019 49//1018 
usemtl Polygon1_XSIPOLYCLS.hull_white
f 33//143 37//1021 48//1020 
usemtl Polygon1_XSIPOLYCLS.hull_white
f 46//147 25//1023 47//1022 
usemtl Polygon1_XSIPOLYCLS.hull_white
f 43//154 28//1025 52//1024 
usemtl Polygon1_XSIPOLYCLS.hull_white
f 51//158 32//1027 52//1026 
usemtl Polygon1_XSIPOLYCLS.hull_white
f 53//162 36//1029 51//1028 
usemtl Polygon1_XSIPOLYCLS.hull_white
f 28//172 24//1031 55//1030 
usemtl Polygon1_XSIPOLYCLS.hull_white
f 58//176 47//1033 59//1032 
usemtl Polygon1_XSIPOLYCLS.hull_white
f 49//180 48//1035 59//1034 
usemtl Polygon1_XSIPOLYCLS.hull_white
f 57//187 46//1037 58//1036 
usemtl Polygon1_XSIPOLYCLS.hull_white
f 48//194 50//1039 60//1038 
usemtl Polygon1_XSIPOLYCLS.hull_white
f 52//198 55//1041 59//1040 
usemtl Polygon1_XSIPOLYCLS.hull_white
f 60//202 51//1043 59//1042 
usemtl Polygon1_XSIPOLYCLS.hull_white
f 56//206 53//1045 60//1044 
usemtl Polygon1_XSIPOLYCLS.hull_white
f 55//213 54//1047 58//1046 
usemtl hull_light_grey
f 118//44 153//1049 148//1048 
usemtl Polygon1_XSIPOLYCLS.hull_white
f 66//224 62//1051 65//1050 
usemtl Polygon1_XSIPOLYCLS.hull_white
f 67//228 63//1053 66//1052 
usemtl Polygon1_XSIPOLYCLS.hull_white
f 68//232 64//1055 67//1054 
usemtl Polygon1_XSIPOLYCLS.hull_white
f 65//236 61//1057 68//1056 
usemtl hull_light_grey
f 119//221 354//1059 309//1058 
usemtl Polygon1_XSIPOLYCLS.hull_white
f 70//256 71//1061 74//1060 
usemtl Polygon1_XSIPOLYCLS.hull_white
f 71//260 72//1063 75//1062 
usemtl Polygon1_XSIPOLYCLS.hull_white
f 72//264 73//1065 76//1064 
usemtl Polygon1_XSIPOLYCLS.hull_white
f 73//268 70//1067 77//1066 
usemtl hull_light_grey
f 85//284 86//1069 82//1068 
usemtl hull_light_grey
f 83//288 88//1071 82//1070 
usemtl Polygon2_XSIPOLYCLS.hull_dark_grey
f 89//295 90//1073 86//1072 
usemtl hull_light_grey
f 84//306 82//1075 81//1074 
usemtl hull_light_grey
f 94//310 97//1077 84//1076 
usemtl hull_light_grey
f 311//253 354//1078 148//1079 
usemtl hull_light_grey
f 111//318 94//1081 81//1080 
usemtl hull_light_grey
f 114//326 115//1083 106//1082 
usemtl hull_light_grey
f 112//333 113//1085 110//1084 
usemtl hull_light_grey
f 115//337 116//1087 110//1086 
usemtl hull_light_grey
f 93//347 96//1089 94//1088 
usemtl Polygon3_XSIPOLYCLS.glass
f 97//366 102//1091 98//1090 
usemtl Polygon3_XSIPOLYCLS.glass
f 100//370 99//1093 102//1092 
usemtl hull_light_grey
f 110//377 111//1095 106//1094 
usemtl Polygon2_XSIPOLYCLS.hull_dark_grey
f 117//384 287//1097 120//1096 
usemtl hull_light_grey
f 122//396 107//1099 80//1098 
usemtl hull_light_grey
f 106//400 107//1101 105//1100 
usemtl hull_light_grey
f 121//404 122//1103 79//1102 
usemtl hull_light_grey
f 105//408 122//1105 104//1104 
usemtl hull_light_grey
f 127//412 86//1107 126//1106 
usemtl hull_light_grey
f 124//416 129//1109 126//1108 
usemtl Polygon2_XSIPOLYCLS.hull_dark_grey
f 127//423 130//1111 86//1110 
usemtl hull_light_grey
f 124//434 126//1113 125//1112 
usemtl hull_light_grey
f 135//438 134//1115 128//1114 
usemtl hull_light_grey
f 348//977 349//1116 353//1117 
usemtl hull_light_grey
f 128//446 133//1119 125//1118 
usemtl hull_light_grey
f 144//454 115//1121 140//1120 
usemtl hull_light_grey
f 145//461 147//1123 144//1122 
usemtl hull_light_grey
f 146//465 116//1125 144//1124 
usemtl hull_light_grey
f 95//475 96//1127 133//1126 
usemtl Polygon3_XSIPOLYCLS.glass
f 137//494 136//1129 135//1128 
usemtl Polygon3_XSIPOLYCLS.glass
f 137//498 99//1131 136//1130 
usemtl hull_light_grey
f 141//505 145//1133 140//1132 
usemtl Polygon2_XSIPOLYCLS.hull_dark_grey
f 289//512 287//1135 149//1134 
usemtl hull_light_grey
f 125//524 141//1137 124//1136 
usemtl hull_light_grey
f 151//528 141//1139 139//1138 
usemtl hull_light_grey
f 124//532 151//1141 123//1140 
usemtl hull_light_grey
f 150//536 151//1143 138//1142 
usemtl Polygon2_XSIPOLYCLS.hull_dark_grey
f 131//546 129//1145 149//1144 
usemtl Polygon2_XSIPOLYCLS.hull_dark_grey
f 91//550 120//1147 88//1146 
usemtl Polygon2_XSIPOLYCLS.hull_dark_grey
f 174//597 175//1149 163//1148 
usemtl Polygon2_XSIPOLYCLS.hull_dark_grey
f 182//621 181//1151 184//1150 
usemtl Polygon2_XSIPOLYCLS.hull_dark_grey
f 185//625 186//1153 187//1152 
usemtl Polygon2_XSIPOLYCLS.hull_dark_grey
f 192//629 191//1155 190//1154 
usemtl Polygon2_XSIPOLYCLS.hull_dark_grey
f 191//633 192//1157 189//1156 
usemtl Polygon2_XSIPOLYCLS.hull_dark_grey
f 196//637 193//1159 194//1158 
usemtl Polygon2_XSIPOLYCLS.hull_dark_grey
f 193//641 196//1161 195//1160 
usemtl Polygon2_XSIPOLYCLS.hull_dark_grey
f 198//645 199//1163 200//1162 
usemtl Polygon2_XSIPOLYCLS.hull_dark_grey
f 199//649 198//1165 197//1164 
usemtl Polygon2_XSIPOLYCLS.hull_dark_grey
f 155//677 160//1167 214//1166 
usemtl Polygon2_XSIPOLYCLS.hull_dark_grey
f 160//681 155//1169 213//1168 
usemtl Polygon2_XSIPOLYCLS.hull_dark_grey
f 216//685 220//1171 156//1170 
usemtl Polygon2_XSIPOLYCLS.hull_dark_grey
f 220//689 216//1173 161//1172 
usemtl Polygon2_XSIPOLYCLS.hull_dark_grey
f 218//693 162//1175 215//1174 
usemtl Polygon2_XSIPOLYCLS.hull_dark_grey
f 215//697 157//1177 218//1176 
usemtl Polygon2_XSIPOLYCLS.hull_dark_grey
f 217//701 219//1179 158//1178 
usemtl Polygon2_XSIPOLYCLS.hull_dark_grey
f 219//705 217//1181 159//1180 
usemtl Polygon2_XSIPOLYCLS.hull_dark_grey
f 240//710 229//1183 241//1182 
usemtl Polygon2_XSIPOLYCLS.hull_dark_grey
f 249//734 247//1185 250//1184 
usemtl Polygon2_XSIPOLYCLS.hull_dark_grey
f 254//738 252//1187 253//1186 
usemtl Polygon2_XSIPOLYCLS.hull_dark_grey
f 255//742 257//1189 256//1188 
usemtl Polygon2_XSIPOLYCLS.hull_dark_grey
f 256//746 258//1191 255//1190 
usemtl Polygon2_XSIPOLYCLS.hull_dark_grey
f 261//750 259//1193 260//1192 
usemtl Polygon2_XSIPOLYCLS.hull_dark_grey
f 260//754 262//1195 261//1194 
usemtl Polygon2_XSIPOLYCLS.hull_dark_grey
f 263//758 265//1197 266//1196 
usemtl Polygon2_XSIPOLYCLS.hull_dark_grey
f 266//762 264//1199 263//1198 
usemtl Polygon2_XSIPOLYCLS.hull_dark_grey
f 279//790 226//1201 280//1200 
usemtl Polygon2_XSIPOLYCLS.hull_dark_grey
f 280//794 221//1203 279//1202 
usemtl Polygon2_XSIPOLYCLS.hull_dark_grey
f 227//798 286//1205 222//1204 
usemtl Polygon2_XSIPOLYCLS.hull_dark_grey
f 222//802 282//1207 227//1206 
usemtl Polygon2_XSIPOLYCLS.hull_dark_grey
f 223//806 228//1209 281//1208 
usemtl Polygon2_XSIPOLYCLS.hull_dark_grey
f 228//810 223//1211 284//1210 
usemtl Polygon2_XSIPOLYCLS.hull_dark_grey
f 225//814 285//1213 224//1212 
usemtl Polygon2_XSIPOLYCLS.hull_dark_grey
f 224//818 283//1215 225//1214 
usemtl hull_light_grey
f 295//822 296//1217 290//1216 
usemtl hull_light_grey
f 298//826 299//1219 296//1218 
usemtl hull_light_grey
f 302//830 306//1221 301//1220 
usemtl hull_light_grey
f 302//834 308//1223 306//1222 
usemtl hull_light_grey
f 288//838 287//1225 293//1224 
usemtl hull_light_grey
f 287//842 289//1227 292//1226 
usemtl hull_light_grey
f 291//846 294//1229 290//1228 
usemtl hull_light_grey
f 301//850 303//1231 302//1230 
usemtl hull_light_grey
f 294//854 312//1233 293//1232 
usemtl hull_light_grey
f 289//858 310//1235 303//1234 
usemtl hull_light_grey
f 299//862 300//1237 291//1236 
usemtl hull_light_grey
f 304//870 313//1239 302//1238 
usemtl hull_light_grey
f 295//878 290//1241 297//1240 
usemtl hull_light_grey
f 290//882 293//1243 314//1242 
usemtl hull_light_grey
f 314//886 301//1245 297//1244 
usemtl hull_light_grey
f 292//890 303//1247 314//1246 
usemtl hull_light_grey
f 319//921 322//1249 357//1248 
usemtl hull_light_grey
f 322//922 359//1251 357//1250 
usemtl hull_light_grey
f 317//42 323//1253 358//1252 
usemtl hull_light_grey
f 323//925 324//1255 358//1254 
usemtl hull_light_grey
f 319//949 333//1257 331//1256 
usemtl hull_light_grey
f 328//41 327//1259 329//1258 
usemtl hull_light_grey
f 336//953 334//1261 337//1260 
usemtl hull_light_grey
f 339//957 338//1263 336//1262 
usemtl hull_light_grey
f 341//961 340//1265 343//1264 
usemtl hull_light_grey
f 340//965 344//1267 342//1266 
usemtl hull_light_grey
f 351//969 346//1269 353//1268 
usemtl hull_light_grey
f 347//973 346//1271 350//1270 
usemtl hull_light_grey
f 87//442 85//1272 98//1273 
usemtl hull_light_grey
f 126//314 85//1275 135//1274 
#end 425 faces
