# XSI Wavefront OBJ Export v3.0
# File Created: Tue May 19 16:19:16 2009
# XSI Version: 7.5.191.0
mtllib makeMeWalk.mtl

o Default
# Hierarchy (from self to top father)
g Default

#begin 70 vertices
v -0.342500 -0.217500 -0.237500
v 0.342500 -0.217500 -0.237500
v 0.342500 -0.342500 0.342500
v -0.342500 -0.342500 0.342500
v -0.354587 0.147500 -0.342500
v 0.354587 0.147500 -0.342500
v 0.354587 0.147500 0.342500
v -0.354587 0.147500 0.342500
v -0.428125 -0.134525 -0.402500
v 0.428125 -0.134525 -0.402500
v 0.428125 -0.134525 0.632500
v -0.428125 -0.134525 0.632500
v 0.323883 -0.291493 0.393317
v -0.323883 -0.291493 0.393317
v 0.329223 0.107188 0.405387
v -0.329223 0.107188 0.405387
v 0.396703 -0.131612 0.633094
v -0.396703 -0.131612 0.633094
v 0.304790 -0.278507 0.606683
v -0.304790 -0.278507 0.606683
v 0.301197 0.069041 0.549736
v -0.301197 0.069041 0.549736
v 0.357077 -0.152399 0.821066
v -0.357077 -0.152399 0.821066
v -0.271587 0.147500 -0.294500
v 0.271587 0.147500 -0.294500
v 0.271587 0.149817 0.334591
v -0.271587 0.149817 0.334591
v 0.243060 0.106849 0.398895
v -0.243060 0.106849 0.398895
v -0.271587 0.083408 -0.294261
v 0.271587 0.083408 -0.294261
v 0.271587 0.083408 0.315256
v -0.271587 0.083408 0.315256
v 0.235008 0.028569 0.400754
v -0.235008 0.028569 0.400754
v 0.203864 0.011829 0.501741
v -0.203864 0.011829 0.501741
v -0.202987 0.147500 -0.342500
v 0.202987 0.147500 -0.342500
v -0.202987 0.147500 -0.294500
v -0.202987 0.083408 -0.294261
v 0.202987 0.083408 -0.294261
v 0.202987 0.147500 -0.294500
v 0.202987 0.083408 -0.356420
v -0.202987 0.083408 -0.356420
v 0.204994 0.019980 0.607739
v -0.204994 0.019980 0.607739
v 0.203472 0.069923 0.543209
v -0.203472 0.069923 0.543209
v -0.204589 0.017073 0.569794
v 0.204589 0.017073 0.569794
v -0.197613 0.083408 0.185832
v 0.197613 0.083408 0.185832
v -0.210019 0.083408 0.122256
v 0.210019 0.083408 0.122256
v -0.198922 0.028569 0.207754
v -0.191734 0.011829 0.501741
v 0.191734 0.011829 0.501741
v 0.198922 0.028569 0.207754
v -0.215859 0.083408 -0.284071
v 0.207859 0.083408 -0.284071
v -0.210019 0.190617 0.104217
v 0.210019 0.190617 0.104217
v -0.198922 0.188836 0.206018
v -0.191734 0.069048 0.257226
v 0.191734 0.069048 0.257226
v 0.198922 0.188836 0.206018
v -0.215859 0.181383 -0.260217
v 0.207859 0.181383 -0.260217
#end 70 vertices

#begin 252 normals
vn -0.111488 0.790586 0.602116
vn -0.255611 0.715494 0.650178
vn -0.255611 0.715494 0.650178
vn -0.070379 0.867362 0.492676
vn 0.214765 -0.770972 0.599564
vn 0.108228 -0.744190 0.659142
vn 0.108228 -0.744190 0.659142
vn 0.214765 -0.770972 0.599564
vn -0.108228 -0.744190 0.659142
vn -0.214765 -0.770972 0.599564
vn -0.214765 -0.770972 0.599564
vn -0.108228 -0.744190 0.659142
vn 0.255611 0.715494 0.650178
vn 0.111488 0.790586 0.602116
vn 0.070379 0.867362 0.492676
vn 0.255611 0.715494 0.650178
vn 0.833324 -0.541444 0.111398
vn 0.833324 -0.541444 0.111398
vn 0.833324 -0.541444 0.111398
vn 0.833324 -0.541444 0.111398
vn -0.833324 -0.541444 0.111398
vn -0.833324 -0.541444 0.111398
vn -0.833324 -0.541444 0.111398
vn -0.833324 -0.541444 0.111398
vn 0.070379 0.867362 0.492676
vn 0.111488 0.790586 0.602116
vn -0.035838 0.842972 0.536762
vn -0.025604 0.917215 0.397568
vn -0.111488 0.790586 0.602116
vn -0.070379 0.867362 0.492676
vn 0.025604 0.917215 0.397568
vn 0.035838 0.842972 0.536762
vn 0.006766 0.999977 -0.000882
vn -0.000000 1.000000 0.000000
vn -0.000000 1.000000 0.000000
vn 0.006766 0.999977 -0.000882
vn -0.000000 1.000000 0.000000
vn -0.006766 0.999977 -0.000882
vn -0.006766 0.999977 -0.000882
vn -0.000000 1.000000 0.000000
vn 0.948375 0.110121 -0.297419
vn 0.991175 0.056202 -0.120055
vn 0.991175 0.056202 -0.120055
vn 0.948375 0.110121 -0.297419
vn -0.991175 0.056202 -0.120055
vn -0.948375 0.110121 -0.297419
vn -0.948375 0.110121 -0.297419
vn -0.991175 0.056202 -0.120055
vn -0.070379 0.867362 0.492676
vn 0.014729 0.968536 0.248438
vn 0.014729 0.968536 0.248438
vn 0.025604 0.917215 0.397568
vn 0.070379 0.867362 0.492676
vn -0.025604 0.917215 0.397568
vn -0.014729 0.968536 0.248438
vn -0.014729 0.968536 0.248438
vn -0.826804 0.500323 0.257044
vn -0.826804 0.500323 0.257044
vn -0.826804 0.500323 0.257044
vn -0.826804 0.500323 0.257044
vn 0.826804 0.500323 0.257044
vn 0.826804 0.500323 0.257044
vn 0.826804 0.500323 0.257044
vn 0.826804 0.500323 0.257044
vn -0.008023 0.777114 0.629309
vn -0.016046 0.776372 0.630070
vn -0.016046 0.776372 0.630070
vn -0.008023 0.777114 0.629309
vn 0.000000 -0.998153 0.060750
vn 0.000000 -0.998153 0.060750
vn 0.000000 -0.998153 0.060750
vn 0.000000 -0.998153 0.060750
vn 0.000000 -0.861934 0.507021
vn 0.000000 -0.861934 0.507021
vn 0.000000 -0.861934 0.507021
vn 0.000000 -0.861934 0.507021
vn 0.000000 -0.893396 -0.449270
vn 0.000000 -0.943051 -0.332647
vn 0.000000 -0.943051 -0.332647
vn 0.000000 -0.893396 -0.449270
vn -0.108228 -0.744190 0.659142
vn -0.108228 -0.744190 0.659142
vn 0.108228 -0.744190 0.659142
vn 0.108228 -0.744190 0.659142
vn -0.008023 0.777114 0.629309
vn 0.008023 0.777114 0.629309
vn 0.008023 0.777114 0.629309
vn -0.008023 0.777114 0.629309
vn 0.000686 0.208003 -0.978128
vn 0.000686 0.208003 -0.978128
vn 0.001373 0.209138 -0.977885
vn 0.001373 0.209138 -0.977885
vn -0.000686 0.208003 -0.978128
vn -0.000686 0.208003 -0.978128
vn 0.000686 0.208003 -0.978128
vn 0.000686 0.208003 -0.978128
vn -0.000686 0.208003 -0.978128
vn -0.001373 0.209138 -0.977885
vn -0.001373 0.209138 -0.977885
vn -0.000686 0.208003 -0.978128
vn 0.008023 0.777114 0.629309
vn 0.008023 0.777114 0.629309
vn 0.016046 0.776372 0.630070
vn 0.016046 0.776372 0.630070
vn 0.933996 0.093623 -0.344800
vn 0.948375 0.110121 -0.297419
vn 0.948375 0.110121 -0.297419
vn 0.933996 0.093623 -0.344800
vn 0.000000 1.000000 0.000000
vn 0.000000 1.000000 0.000000
vn 0.000000 1.000000 0.000000
vn 0.000000 1.000000 0.000000
vn -0.933996 0.093623 -0.344800
vn -0.933996 0.093623 -0.344800
vn -0.948375 0.110121 -0.297419
vn -0.948375 0.110121 -0.297419
vn 0.991175 0.056202 -0.120055
vn 0.999815 -0.015183 0.011826
vn 0.999815 -0.015183 0.011826
vn 0.991175 0.056202 -0.120055
vn -0.991175 0.056202 -0.120055
vn -0.991175 0.056202 -0.120055
vn -0.999815 -0.015183 0.011826
vn -0.999815 -0.015183 0.011826
vn 0.000000 0.997078 -0.076387
vn 0.000000 0.997078 -0.076387
vn 0.000000 0.997061 -0.076608
vn 0.000000 0.997061 -0.076608
vn 0.000000 0.986538 0.163532
vn 0.000000 0.986538 0.163532
vn 0.000000 0.999046 0.043668
vn 0.000000 0.999046 0.043668
vn 0.000000 0.999046 0.043668
vn 0.000000 0.999046 0.043668
vn 0.000000 0.997061 -0.076608
vn 0.000000 0.997061 -0.076608
vn -0.967646 0.252314 0.000000
vn -0.967646 0.252314 0.000000
vn -0.967646 0.252314 0.000000
vn -0.967646 0.252314 0.000000
vn 0.967646 0.252314 0.000000
vn 0.967646 0.252314 0.000000
vn 0.967646 0.252314 0.000000
vn 0.967646 0.252314 0.000000
vn 1.000000 -0.000000 0.000000
vn 1.000000 -0.000000 0.000000
vn 1.000000 -0.000000 0.000000
vn 1.000000 -0.000000 0.000000
vn -1.000000 0.000000 0.000000
vn -1.000000 0.000000 0.000000
vn -1.000000 0.000000 0.000000
vn -1.000000 0.000000 0.000000
vn 0.868272 -0.494608 -0.038282
vn 0.868272 -0.494608 -0.038282
vn 0.868272 -0.494608 -0.038282
vn 0.868272 -0.494608 -0.038282
vn 0.000000 -0.977555 -0.210680
vn 0.000000 -0.977555 -0.210680
vn 0.000000 -0.943051 -0.332647
vn 0.000000 -0.943051 -0.332647
vn -0.868272 -0.494608 -0.038282
vn -0.868272 -0.494608 -0.038282
vn -0.868272 -0.494608 -0.038282
vn -0.868272 -0.494608 -0.038282
vn 1.000000 0.000000 -0.000000
vn 1.000000 0.000000 -0.000000
vn 1.000000 0.000000 -0.000000
vn 1.000000 0.000000 -0.000000
vn -1.000000 0.000000 -0.000000
vn -1.000000 0.000000 -0.000000
vn -1.000000 0.000000 -0.000000
vn -1.000000 0.000000 -0.000000
vn 0.000000 0.003729 0.999993
vn 0.000000 0.003729 0.999993
vn 0.000000 0.003729 0.999993
vn 0.000000 0.003729 0.999993
vn 0.000000 0.003729 0.999993
vn 0.000000 0.003729 0.999993
vn 0.000000 0.003729 0.999993
vn 0.000000 0.003729 0.999993
vn 0.000000 0.841733 0.539894
vn 0.000000 0.841733 0.539894
vn 0.000000 0.841733 0.539894
vn 0.000000 0.841733 0.539894
vn 0.000000 1.000000 0.000000
vn 0.000000 1.000000 0.000000
vn 0.000000 1.000000 0.000000
vn 0.000000 1.000000 0.000000
vn 0.000000 1.000000 0.000000
vn 0.000000 1.000000 0.000000
vn 0.000000 1.000000 0.000000
vn 0.000000 1.000000 0.000000
vn 0.000000 1.000000 0.000000
vn -0.000000 1.000000 0.000000
vn 0.000000 1.000000 0.000000
vn 0.000000 1.000000 0.000000
vn -0.000000 1.000000 0.000000
vn 0.000000 1.000000 0.000000
vn 0.000000 1.000000 0.000000
vn 0.000000 1.000000 0.000000
vn -0.013531 0.999907 -0.001763
vn -0.013531 0.999907 -0.001763
vn -0.006766 0.999977 -0.000882
vn -0.006766 0.999977 -0.000882
vn 0.013531 0.999907 -0.001763
vn 0.006766 0.999977 -0.000882
vn 0.006766 0.999977 -0.000882
vn 0.013531 0.999907 -0.001763
vn 0.000000 0.236560 -0.971617
vn 0.000000 0.236560 -0.971617
vn 0.000000 0.236560 -0.971617
vn 0.000000 0.236560 -0.971617
vn -0.999885 -0.000430 0.015157
vn -0.997688 0.004239 0.067833
vn -0.997688 0.004239 0.067833
vn -0.999885 -0.000430 0.015157
vn -0.994107 0.046917 0.097723
vn -0.997688 0.004239 0.067833
vn -0.997688 0.004239 0.067833
vn -0.994107 0.046917 0.097723
vn -0.994107 0.046917 0.097723
vn -0.993572 0.084848 0.074936
vn -0.993572 0.084848 0.074936
vn -0.994107 0.046917 0.097723
vn 0.000000 0.973695 0.227855
vn 0.000000 0.973695 0.227855
vn 0.000000 0.973695 0.227855
vn 0.000000 0.973695 0.227855
vn 0.994107 0.046917 0.097723
vn 0.998337 0.004536 0.057471
vn 0.998337 0.004536 0.057471
vn 0.994107 0.046917 0.097723
vn 0.998337 0.004536 0.057471
vn 0.999984 0.000159 -0.005607
vn 0.999984 0.000159 -0.005607
vn 0.998337 0.004536 0.057471
vn 0.000000 0.393078 0.919505
vn 0.000000 0.393078 0.919505
vn 0.000000 0.393078 0.919505
vn 0.000000 0.393078 0.919505
vn 0.000000 0.999992 -0.003920
vn 0.000000 0.999992 -0.003920
vn 0.000000 0.999847 0.017492
vn 0.000000 0.999847 0.017492
vn 0.000000 0.999679 -0.025330
vn 0.000000 0.999679 -0.025330
vn 0.000000 0.999992 -0.003920
vn 0.000000 0.999992 -0.003920
vn 0.993572 0.084848 0.074936
vn 0.994107 0.046917 0.097723
vn 0.994107 0.046917 0.097723
vn 0.993572 0.084848 0.074936
#end 252 vertex normals

#begin texture vertices
vt 0.605901 0.009861 0.000000
vt 0.275881 0.450572 0.000000
vt 0.235782 0.114802 0.000000
vt 0.323299 0.009861 0.000000
vt 0.739627 0.135315 0.000000
vt 0.275882 0.220061 0.000000
vt 0.740967 0.426469 0.000000
vt 0.515205 0.221008 0.000000
vt 0.515205 0.451520 0.000000
vt 0.234433 0.404211 0.000000
vt 0.326169 0.989200 0.000000
vt 0.610888 0.209739 0.000000
vt 0.028642 0.115350 0.000000
vt 0.945533 0.137907 0.000000
vt 0.318312 0.209739 0.000000
vt 0.622446 0.991076 0.000000
vt 0.623407 0.706492 0.000000
vt 0.944582 0.429097 0.000000
vt 0.029600 0.404816 0.000000
vt 0.328015 0.705108 0.000000
vt 0.145187 0.090425 0.000000
vt 0.641226 0.095569 0.000000
vt 0.287974 0.095569 0.000000
vt 0.829682 0.111683 0.000000
vt 0.829450 0.546156 0.000000
vt 0.145421 0.522314 0.000000
vt 0.743145 0.450374 0.000000
vt 0.795004 0.563988 0.000000
vt 0.533458 0.227345 0.000000
vt 0.533458 0.445327 0.000000
vt 0.157788 0.561193 0.000000
vt 0.232243 0.427952 0.000000
vt 0.936216 0.461598 0.000000
vt 0.612906 0.675430 0.000000
vt 0.625663 0.671818 0.000000
vt 0.338795 0.674180 0.000000
vt 0.038016 0.437207 0.000000
vt 0.326069 0.670494 0.000000
vt 0.665865 0.537781 0.000000
vt 0.829682 0.552941 0.000000
vt 0.145187 0.529055 0.000000
vt 0.287168 0.536118 0.000000
vt 0.608142 0.234066 0.000000
vt 0.735886 0.496984 0.000000
vt 0.217548 0.494712 0.000000
vt 0.608142 0.439197 0.000000
vt 0.602056 0.613271 0.000000
vt 0.350240 0.612159 0.000000
vt 0.701319 0.216839 0.000000
vt 0.626114 0.467954 0.000000
vt 0.327590 0.466645 0.000000
vt 0.701319 0.457161 0.000000
vt 0.496915 0.960804 0.000000
vt 0.360954 0.969501 0.000000
vt 0.587798 0.971032 0.000000
vt 0.459825 0.959187 0.000000
vt 0.459814 0.699505 0.000000
vt 0.588667 0.709674 0.000000
vt 0.362664 0.708595 0.000000
vt 0.496927 0.702067 0.000000
vt 0.443934 0.670564 0.000000
vt 0.576835 0.677518 0.000000
vt 0.374812 0.676588 0.000000
vt 0.512865 0.673586 0.000000
vt 0.519761 0.960804 0.000000
vt 0.045191 0.965028 0.000000
vt 0.437063 0.958679 0.000000
vt 0.259258 0.965028 0.000000
vt 0.261354 0.709953 0.000000
vt 0.436255 0.707062 0.000000
vt 0.520572 0.710121 0.000000
vt 0.047288 0.709953 0.000000
vt 0.247287 0.667446 0.000000
vt 0.415996 0.668773 0.000000
vt 0.540904 0.672423 0.000000
vt 0.062053 0.667446 0.000000
vt 0.409379 0.625131 0.000000
vt 0.235365 0.624607 0.000000
vt 0.074679 0.624607 0.000000
vt 0.547545 0.629089 0.000000
vt 0.548344 0.209739 0.000000
vt 0.389467 0.989581 0.000000
vt 0.559039 0.990890 0.000000
vt 0.380856 0.209739 0.000000
vt 0.389596 0.969674 0.000000
vt 0.496915 0.989020 0.000000
vt 0.072227 0.965028 0.000000
vt 0.416357 0.969735 0.000000
vt 0.519762 0.989020 0.000000
vt 0.437062 0.986996 0.000000
vt 0.532300 0.970771 0.000000
vt 0.232222 0.965028 0.000000
vt 0.559106 0.970949 0.000000
vt 0.459825 0.987505 0.000000
vt 0.380856 0.183769 0.000000
vt 0.232009 0.991041 0.000000
vt 0.532213 0.996595 0.000000
vt 0.072013 0.991041 0.000000
vt 0.548344 0.183769 0.000000
vt 0.416190 0.995514 0.000000
vt 0.561989 0.581555 0.000000
vt 0.412592 0.581473 0.000000
vt 0.236176 0.580118 0.000000
vt 0.544320 0.585522 0.000000
vt 0.390609 0.580802 0.000000
vt 0.074599 0.580118 0.000000
vt 0.561164 0.615434 0.000000
vt 0.430138 0.608682 0.000000
vt 0.526711 0.612240 0.000000
vt 0.391094 0.614684 0.000000
vt 0.545470 0.601118 0.000000
vt 0.074628 0.596044 0.000000
vt 0.235886 0.596044 0.000000
vt 0.411445 0.597102 0.000000
vt 0.075996 0.764116 0.000000
vt 0.231755 0.764116 0.000000
vt 0.690474 0.715417 0.000000
vt 0.946666 0.715940 0.000000
vt 0.669076 0.676933 0.000000
vt 0.740122 0.596091 0.000000
vt 0.664113 0.632858 0.000000
vt 0.974758 0.631635 0.000000
vt 0.896674 0.595965 0.000000
vt 0.968933 0.677082 0.000000
vt 0.691303 0.961722 0.000000
vt 0.731010 0.993203 0.000000
vt 0.902772 0.993203 0.000000
vt 0.942351 0.962301 0.000000
vt 0.733713 0.724557 0.000000
vt 0.903208 0.724531 0.000000
vt 0.737255 0.682665 0.000000
vt 0.687398 0.657571 0.000000
vt 0.740148 0.628779 0.000000
vt 0.896700 0.628654 0.000000
vt 0.950386 0.657112 0.000000
vt 0.899677 0.682535 0.000000
vt 0.731010 0.951789 0.000000
vt 0.902772 0.951790 0.000000
#end 138 texture vertices

#begin 63 faces
usemtl material1
f 8/19/1 12/26/2 18/41/3 16/37/4 
usemtl material1
f 12/26/5 4/10/6 14/32/7 18/41/8 
usemtl material1
f 3/7/9 11/25/10 17/40/11 13/27/12 
usemtl material1
f 11/25/13 7/18/14 15/33/15 17/40/16 
usemtl material1
f 13/28/17 17/39/18 23/50/19 19/44/20 
usemtl material1
f 18/42/21 14/31/22 20/45/23 24/51/24 
usemtl material1
f 15/34/25 7/17/26 27/58/27 29/62/28 
usemtl material1
f 8/20/29 16/36/30 30/63/31 28/59/32 
usemtl material1
f 6/16/33 40/83/34 44/93/35 26/55/36 
usemtl material1
f 39/82/37 5/11/38 25/54/39 41/85/40 
usemtl material1
f 30/64/41 50/109/42 38/80/43 36/75/44 
usemtl material1
f 49/108/45 29/61/46 35/74/47 37/77/48 
usemtl material1
f 16/36/49 22/48/50 50/110/51 30/63/52 
usemtl material1
f 15/34/53 29/62/54 49/107/55 21/47/56 
usemtl material1
f 24/51/57 22/48/58 16/38/59 18/42/60 
usemtl material1
f 23/50/61 17/39/62 15/35/63 21/47/64 
usemtl material1
f 23/50/65 21/47/66 49/107/67 47/101/68 
usemtl material1
f 13/29/69 19/43/70 20/46/71 14/30/72 
usemtl material1
f 23/49/73 24/52/74 20/46/75 19/43/76 
usemtl material1
f 10/23/77 2/4/78 1/1/79 9/22/80 
usemtl material1
f 3/8/81 13/29/82 14/30/83 4/9/84 
usemtl material1
f 47/101/85 48/105/86 24/51/87 23/50/88 
usemtl material1
f 10/23/89 45/95/90 40/84/91 6/15/92 
usemtl material1
f 9/22/93 46/99/94 45/95/95 10/23/96 
usemtl material1
f 9/22/97 5/12/98 39/81/99 46/99/100 
usemtl material1
f 24/51/101 48/105/102 50/110/103 22/48/104 
usemtl material1
f 28/60/105 30/64/106 36/75/107 34/71/108 
usemtl material1
f 46/98/109 42/87/110 43/92/111 45/96/112 
usemtl material1
f 27/57/113 33/70/114 35/74/115 29/61/116 
usemtl material1
f 50/109/117 48/104/118 51/111/119 38/80/120 
usemtl material1
f 49/108/121 37/77/122 52/114/123 47/102/124 
usemtl material1
f 48/106/125 47/103/126 52/113/127 51/112/128 
usemtl material1
f 35/73/129 36/76/130 38/79/131 37/78/132 
usemtl material1
f 37/78/133 38/79/134 51/112/135 52/113/136 
usemtl material1
f 12/26/137 8/19/138 5/13/139 9/21/140 
usemtl material1
f 11/25/141 10/24/142 6/14/143 7/18/144 
usemtl material1
f 28/60/145 34/71/146 31/65/147 25/53/148 
usemtl material1
f 27/57/149 26/56/150 32/67/151 33/70/152 
usemtl material1
f 11/25/153 3/7/154 2/5/155 10/24/156 
usemtl material1
f 3/8/157 4/9/158 1/2/159 2/6/160 
usemtl material1
f 12/26/161 9/21/162 1/3/163 4/10/164 
usemtl material1
f 42/88/165 46/100/166 39/82/167 41/85/168 
usemtl material1
f 45/97/169 43/91/170 44/93/171 40/83/172 
usemtl material1
f 41/86/173 25/53/174 31/65/175 42/89/176 
usemtl material1
f 26/56/177 44/94/178 43/90/179 32/67/180 
usemtl material1
f 33/69/181 34/72/182 36/76/183 35/73/184 
usemtl material1
f 54/116/185 43/92/186 42/87/187 53/115/188 
usemtl material1
f 53/115/189 34/72/190 33/69/191 54/116/192 
usemtl material1
f 42/87/193 31/66/194 34/72/195 53/115/196 
usemtl material1
f 32/68/197 43/92/198 54/116/199 33/69/200 
usemtl material1
f 8/20/201 28/59/202 25/54/203 5/11/204 
usemtl material1
f 7/17/205 6/16/206 26/55/207 27/58/208 
usemtl material1
f 62/127/209 61/126/210 69/137/211 70/138/212 
usemtl material1
f 61/125/213 55/117/214 63/129/215 69/137/216 
usemtl material1
f 65/131/217 63/129/218 55/117/219 57/119/220 
usemtl material1
f 57/119/221 58/121/222 66/132/223 65/131/224 
usemtl material1
f 58/120/225 59/123/226 67/134/227 66/133/228 
usemtl material1
f 60/124/229 56/118/230 64/130/231 68/136/232 
usemtl material1
f 56/118/233 62/128/234 70/138/235 64/130/236 
usemtl material1
f 68/136/237 65/131/238 66/133/239 67/134/240 
usemtl material1
f 64/130/241 63/129/242 65/131/243 68/136/244 
usemtl material1
f 70/138/245 69/137/246 63/129/247 64/130/248 
usemtl material1
f 59/122/249 60/124/250 68/136/251 67/135/252 
#end 63 faces
